InazumaLanguage-Regular.ufo
<glyph name="B" format="2">
  <advance width="898"/>
  <unicode hex="0042"/>
  <outline>
    <contour>
      <point x="775.463" y="144.676" type="curve" smooth="yes"/>
      <point x="737.269" y="145.833"/>
      <point x="699.074" y="146.991"/>
      <point x="672.454" y="178.241" type="curve"/>
      <point x="665.509" y="185.185"/>
      <point x="659.722" y="194.444"/>
      <point x="656.25" y="203.704" type="curve"/>
      <point x="648.148" y="236.111"/>
      <point x="643.519" y="267.361"/>
      <point x="634.259" y="298.611" type="curve"/>
      <point x="623.843" y="331.019"/>
      <point x="613.426" y="364.583"/>
      <point x="596.065" y="393.519" type="curve" smooth="yes"/>
      <point x="569.444" y="436.343"/>
      <point x="539.352" y="478.009"/>
      <point x="504.63" y="513.889" type="curve" smooth="yes"/>
      <point x="471.065" y="548.611"/>
      <point x="430.556" y="578.704"/>
      <point x="376.157" y="572.917" type="curve" smooth="yes"/>
      <point x="350.694" y="570.602"/>
      <point x="331.019" y="559.028"/>
      <point x="313.657" y="541.667" type="curve" smooth="yes"/>
      <point x="266.204" y="494.213"/>
      <point x="234.954" y="437.5"/>
      <point x="211.806" y="375" type="curve"/>
      <point x="200.231" y="346.065"/>
      <point x="185.185" y="318.287"/>
      <point x="160.88" y="297.454" type="curve" smooth="yes"/>
      <point x="145.833" y="284.722"/>
      <point x="130.787" y="274.306"/>
      <point x="109.954" y="281.25" type="curve" smooth="yes"/>
      <point x="82.1759" y="290.509"/>
      <point x="64.8148" y="307.87"/>
      <point x="60.1852" y="337.963" type="curve" smooth="yes"/>
      <point x="52.0833" y="388.889"/>
      <point x="68.287" y="431.713"/>
      <point x="104.167" y="467.593" type="curve"/>
      <point x="170.139" y="537.037"/>
      <point x="236.111" y="607.639"/>
      <point x="304.398" y="675.926" type="curve" smooth="yes"/>
      <point x="322.917" y="694.444"/>
      <point x="343.75" y="709.491"/>
      <point x="364.583" y="723.38" type="curve" smooth="yes"/>
      <point x="385.417" y="737.269"/>
      <point x="412.037" y="737.269"/>
      <point x="431.713" y="722.222" type="curve" smooth="yes"/>
      <point x="458.333" y="703.704"/>
      <point x="483.796" y="682.87"/>
      <point x="504.63" y="658.565" type="curve" smooth="yes"/>
      <point x="579.861" y="572.917"/>
      <point x="652.778" y="484.954"/>
      <point x="726.852" y="399.306" type="curve" smooth="yes"/>
      <point x="753.472" y="369.213"/>
      <point x="780.093" y="341.435"/>
      <point x="806.713" y="311.343" type="curve" smooth="yes"/>
      <point x="846.065" y="267.361"/>
      <point x="858.796" y="211.806"/>
      <point x="821.759" y="157.407" type="curve" smooth="yes"/>
      <point x="817.13" y="150.463"/>
      <point x="807.87" y="146.991"/>
      <point x="799.769" y="144.676" type="curve" smooth="yes"/>
      <point x="791.667" y="142.361"/>
      <point x="783.565" y="144.676"/>
    </contour>
    <contour>
      <point x="461.806" y="325.231" type="curve"/>
      <point x="405.093" y="327.546"/>
      <point x="361.111" y="306.713"/>
      <point x="331.019" y="258.102" type="curve" smooth="yes"/>
      <point x="317.13" y="236.111"/>
      <point x="304.398" y="237.269"/>
      <point x="291.667" y="259.259" type="curve"/>
      <point x="280.093" y="280.093"/>
      <point x="269.676" y="300.926"/>
      <point x="259.259" y="321.759" type="curve"/>
      <point x="247.685" y="347.222"/>
      <point x="260.417" y="373.843"/>
      <point x="289.352" y="377.315" type="curve" smooth="yes"/>
      <point x="349.537" y="385.417"/>
      <point x="410.88" y="390.046"/>
      <point x="472.222" y="379.63" type="curve"/>
      <point x="483.796" y="378.472"/>
      <point x="493.056" y="375"/>
      <point x="502.315" y="369.213" type="curve"/>
      <point x="517.361" y="361.111"/>
      <point x="516.204" y="346.065"/>
      <point x="501.157" y="339.12" type="curve" smooth="yes"/>
      <point x="488.426" y="333.333"/>
      <point x="474.537" y="329.861"/>
    </contour>
    <contour>
      <point x="435.185" y="250" type="curve" smooth="yes"/>
      <point x="447.917" y="250"/>
      <point x="462.963" y="234.954"/>
      <point x="478.009" y="219.907" type="curve" smooth="yes"/>
      <point x="487.269" y="209.491"/>
      <point x="480.324" y="194.444"/>
      <point x="466.435" y="192.13" type="curve" smooth="yes"/>
      <point x="439.815" y="187.5"/>
      <point x="436.343" y="184.028"/>
      <point x="436.343" y="156.25" type="curve" smooth="yes"/>
      <point x="436.343" y="142.361"/>
      <point x="438.657" y="127.315"/>
      <point x="443.287" y="113.426" type="curve" smooth="yes"/>
      <point x="450.231" y="96.0648"/>
      <point x="461.806" y="91.4352"/>
      <point x="479.167" y="99.537" type="curve" smooth="yes"/>
      <point x="495.37" y="106.481"/>
      <point x="515.046" y="105.324"/>
      <point x="530.093" y="96.0648" type="curve" smooth="yes"/>
      <point x="545.139" y="85.6481"/>
      <point x="550.926" y="69.4444"/>
      <point x="543.981" y="53.2407" type="curve" smooth="yes"/>
      <point x="532.407" y="23.1481"/>
      <point x="482.639" y="-3.47222"/>
      <point x="450.231" y="0" type="curve" smooth="yes"/>
      <point x="394.676" y="4.62963"/>
      <point x="358.796" y="37.037"/>
      <point x="337.963" y="84.4907" type="curve" smooth="yes"/>
      <point x="321.759" y="120.37"/>
      <point x="328.704" y="158.565"/>
      <point x="342.593" y="194.444" type="curve"/>
      <point x="353.009" y="223.38"/>
      <point x="393.519" y="251.157"/>
    </contour>
  </outline>
</glyph>
<glyph name="C" format="2">
  <advance width="707"/>
  <unicode hex="0043"/>
  <outline>
    <contour>
      <point x="207.176" y="137.731" type="curve" smooth="yes"/>
      <point x="224.537" y="173.611"/>
      <point x="245.37" y="208.333"/>
      <point x="262.731" y="244.213" type="curve" smooth="yes"/>
      <point x="275.463" y="271.991"/>
      <point x="268.519" y="295.139"/>
      <point x="243.056" y="312.5" type="curve" smooth="yes"/>
      <point x="172.454" y="359.954"/>
      <point x="127.315" y="428.241"/>
      <point x="90.2778" y="502.315" type="curve" smooth="yes"/>
      <point x="81.0185" y="520.833"/>
      <point x="78.7037" y="543.981"/>
      <point x="76.3889" y="565.972" type="curve" smooth="yes"/>
      <point x="74.0741" y="584.491"/>
      <point x="76.3889" y="601.852"/>
      <point x="76.3889" y="620.37" type="curve" smooth="yes"/>
      <point x="76.3889" y="674.769"/>
      <point x="98.3796" y="697.917"/>
      <point x="151.62" y="703.704" type="curve" smooth="yes"/>
      <point x="197.917" y="708.333"/>
      <point x="233.796" y="690.972"/>
      <point x="260.417" y="652.778" type="curve" smooth="yes"/>
      <point x="281.25" y="622.685"/>
      <point x="302.083" y="593.75"/>
      <point x="320.602" y="562.5" type="curve" smooth="yes"/>
      <point x="361.111" y="495.37"/>
      <point x="417.824" y="446.759"/>
      <point x="481.481" y="402.778" type="curve" smooth="yes"/>
      <point x="517.361" y="377.315"/>
      <point x="553.241" y="350.694"/>
      <point x="586.806" y="320.602" type="curve" smooth="yes"/>
      <point x="622.685" y="290.509"/>
      <point x="619.213" y="270.833"/>
      <point x="577.546" y="252.315" type="curve" smooth="yes"/>
      <point x="545.139" y="237.269"/>
      <point x="511.574" y="225.694"/>
      <point x="476.852" y="215.278" type="curve" smooth="yes"/>
      <point x="422.454" y="199.074"/>
      <point x="379.63" y="163.194"/>
      <point x="336.806" y="126.157" type="curve" smooth="yes"/>
      <point x="307.87" y="100.694"/>
      <point x="277.778" y="77.5463"/>
      <point x="247.685" y="53.2407" type="curve" smooth="yes"/>
      <point x="237.269" y="45.1389"/>
      <point x="226.852" y="39.3519"/>
      <point x="214.12" y="46.2963" type="curve" smooth="yes"/>
      <point x="200.231" y="54.3981"/>
      <point x="194.444" y="65.9722"/>
      <point x="194.444" y="81.0185" type="curve" smooth="yes"/>
      <point x="194.444" y="84.4907"/>
      <point x="194.444" y="87.963"/>
      <point x="194.444" y="91.4352" type="curve" smooth="yes"/>
      <point x="194.444" y="115.741"/>
      <point x="203.704" y="130.787"/>
    </contour>
  </outline>
</glyph>
<glyph name="G" format="2">
  <advance width="666"/>
  <unicode hex="0047"/>
  <outline>
    <contour>
      <point x="282" y="3" type="line" smooth="yes"/>
      <point x="276" y="-3"/>
      <point x="243" y="9"/>
      <point x="226" y="17" type="curve" smooth="yes"/>
      <point x="216" y="22"/>
      <point x="207" y="31"/>
      <point x="201" y="40" type="curve" smooth="yes"/>
      <point x="177" y="73"/>
      <point x="173" y="112"/>
      <point x="166" y="150" type="curve" smooth="yes"/>
      <point x="163" y="165"/>
      <point x="159" y="180"/>
      <point x="154" y="194" type="curve" smooth="yes"/>
      <point x="152" y="199"/>
      <point x="144" y="204"/>
      <point x="138" y="205" type="curve" smooth="yes"/>
      <point x="121" y="208"/>
      <point x="102" y="208"/>
      <point x="84" y="212" type="curve" smooth="yes"/>
      <point x="74" y="215"/>
      <point x="65" y="223"/>
      <point x="57" y="231" type="curve" smooth="yes"/>
      <point x="53" y="235"/>
      <point x="64" y="251"/>
      <point x="69" y="252" type="curve" smooth="yes"/>
      <point x="85" y="255"/>
      <point x="100" y="257"/>
      <point x="116" y="261" type="curve" smooth="yes"/>
      <point x="148" y="268"/>
      <point x="156" y="278"/>
      <point x="158" y="311" type="curve" smooth="yes"/>
      <point x="160" y="343"/>
      <point x="162" y="376"/>
      <point x="167" y="408" type="curve" smooth="yes"/>
      <point x="169" y="419"/>
      <point x="177" y="431"/>
      <point x="185" y="439" type="curve" smooth="yes"/>
      <point x="201" y="455"/>
      <point x="223" y="463"/>
      <point x="244" y="470" type="curve" smooth="yes"/>
      <point x="278" y="480"/>
      <point x="311" y="494"/>
      <point x="343" y="507" type="curve" smooth="yes"/>
      <point x="347" y="509"/>
      <point x="351" y="512"/>
      <point x="354" y="516" type="curve" smooth="yes"/>
      <point x="357" y="521" type="line" smooth="yes"/>
      <point x="363" y="532"/>
      <point x="329" y="522"/>
      <point x="318" y="519" type="curve" smooth="yes"/>
      <point x="289" y="512"/>
      <point x="260" y="514"/>
      <point x="232" y="522" type="curve" smooth="yes"/>
      <point x="209" y="528"/>
      <point x="191" y="542"/>
      <point x="177" y="562" type="curve" smooth="yes"/>
      <point x="168" y="574"/>
      <point x="170" y="586"/>
      <point x="178" y="597" type="curve" smooth="yes"/>
      <point x="180" y="600"/>
      <point x="188" y="603"/>
      <point x="193" y="602" type="curve" smooth="yes"/>
      <point x="201" y="600"/>
      <point x="209" y="597"/>
      <point x="217" y="592" type="curve" smooth="yes"/>
      <point x="240" y="579"/>
      <point x="266" y="575"/>
      <point x="292" y="575" type="curve" smooth="yes"/>
      <point x="326" y="574"/>
      <point x="361" y="574"/>
      <point x="407" y="574" type="curve" smooth="yes"/>
      <point x="415" y="574"/>
      <point x="416" y="574"/>
      <point x="425" y="566" type="curve" smooth="yes"/>
      <point x="446" y="548"/>
      <point x="463" y="537"/>
      <point x="478" y="524" type="curve" smooth="yes"/>
      <point x="483" y="520"/>
      <point x="487" y="510"/>
      <point x="485" y="505" type="curve" smooth="yes"/>
      <point x="483" y="501"/>
      <point x="483" y="498"/>
      <point x="454" y="498" type="curve" smooth="yes"/>
      <point x="430" y="498"/>
      <point x="424" y="494"/>
      <point x="415" y="490" type="curve" smooth="yes"/>
      <point x="374" y="472"/>
      <point x="353" y="462"/>
      <point x="335" y="454" type="curve" smooth="yes"/>
      <point x="310" y="443"/>
      <point x="291" y="426"/>
      <point x="280" y="401" type="curve" smooth="yes"/>
      <point x="270" y="379"/>
      <point x="262" y="356"/>
      <point x="254" y="333" type="curve" smooth="yes"/>
      <point x="250" y="323"/>
      <point x="265" y="304"/>
      <point x="278" y="304" type="curve" smooth="yes"/>
      <point x="295" y="303"/>
      <point x="313" y="301"/>
      <point x="329" y="305" type="curve" smooth="yes"/>
      <point x="340" y="308"/>
      <point x="350" y="320"/>
      <point x="357" y="330" type="curve" smooth="yes"/>
      <point x="367" y="343"/>
      <point x="373" y="358"/>
      <point x="382" y="372" type="curve" smooth="yes"/>
      <point x="384" y="376"/>
      <point x="388" y="380"/>
      <point x="391" y="383" type="curve" smooth="yes"/>
      <point x="415" y="404"/>
      <point x="441" y="397"/>
      <point x="453" y="368" type="curve" smooth="yes"/>
      <point x="456" y="360"/>
      <point x="459" y="352"/>
      <point x="460" y="344" type="curve" smooth="yes"/>
      <point x="462" y="320"/>
      <point x="479" y="311"/>
      <point x="499" y="303" type="curve" smooth="yes"/>
      <point x="524" y="293"/>
      <point x="550" y="283"/>
      <point x="573" y="269" type="curve" smooth="yes"/>
      <point x="604" y="251"/>
      <point x="610" y="225"/>
      <point x="603" y="189" type="curve" smooth="yes"/>
      <point x="598" y="160"/>
      <point x="587" y="134"/>
      <point x="561" y="119" type="curve" smooth="yes"/>
      <point x="549" y="112"/>
      <point x="535" y="106"/>
      <point x="521" y="103" type="curve" smooth="yes"/>
      <point x="494" y="98"/>
      <point x="480" y="91"/>
      <point x="447" y="74" type="curve" smooth="yes"/>
      <point x="425" y="63"/>
      <point x="397" y="61"/>
      <point x="368" y="71" type="curve" smooth="yes"/>
      <point x="364" y="72"/>
      <point x="355" y="87"/>
      <point x="349" y="99" type="curve" smooth="yes"/>
      <point x="336" y="127"/>
      <point x="339" y="158"/>
      <point x="341" y="188" type="curve" smooth="yes"/>
      <point x="342" y="202"/>
      <point x="342" y="216"/>
      <point x="343" y="230" type="curve" smooth="yes"/>
      <point x="343" y="242"/>
      <point x="336" y="250"/>
      <point x="325" y="251" type="curve" smooth="yes"/>
      <point x="311" y="253"/>
      <point x="296" y="254"/>
      <point x="281" y="252" type="curve" smooth="yes"/>
      <point x="267" y="251"/>
      <point x="258" y="239"/>
      <point x="258" y="225" type="curve" smooth="yes"/>
      <point x="258" y="177"/>
      <point x="257" y="129"/>
      <point x="259" y="81" type="curve" smooth="yes"/>
      <point x="260" y="67"/>
      <point x="269" y="53"/>
      <point x="274" y="39" type="curve" smooth="yes"/>
      <point x="277" y="28"/>
      <point x="288" y="9"/>
      <point x="284" y="5" type="curve" smooth="yes"/>
    </contour>
    <contour>
      <point x="511" y="219" type="curve" smooth="yes"/>
      <point x="511" y="223"/>
      <point x="506" y="231"/>
      <point x="500" y="237" type="curve" smooth="yes"/>
      <point x="493" y="243"/>
      <point x="484" y="247"/>
      <point x="476" y="252" type="curve" smooth="yes"/>
      <point x="451" y="267"/>
      <point x="445" y="265"/>
      <point x="431" y="239" type="curve" smooth="yes"/>
      <point x="430" y="237"/>
      <point x="428" y="233"/>
      <point x="427" y="230" type="curve" smooth="yes"/>
      <point x="417" y="197"/>
      <point x="408" y="164"/>
      <point x="398" y="131" type="curve" smooth="yes"/>
      <point x="397" y="127"/>
      <point x="397" y="122"/>
      <point x="401" y="119" type="curve" smooth="yes"/>
      <point x="423" y="99"/>
      <point x="442" y="104"/>
      <point x="467" y="121" type="curve" smooth="yes"/>
      <point x="496" y="140"/>
      <point x="507" y="170"/>
    </contour>
  </outline>
</glyph>
<glyph name="I" format="2">
  <advance width="660"/>
  <unicode hex="0049"/>
  <outline>
    <contour>
      <point x="80.5628" y="88.9137" type="curve" smooth="yes"/>
      <point x="80.4676" y="162.84"/>
      <point x="88.4201" y="219.297"/>
      <point x="98.3727" y="287.632" type="curve" smooth="yes"/>
      <point x="106.468" y="342.776"/>
      <point x="113.611" y="398.063"/>
      <point x="120.04" y="453.445" type="curve" smooth="yes"/>
      <point x="120.754" y="459.54"/>
      <point x="115.183" y="467.778"/>
      <point x="110.278" y="472.921" type="curve" smooth="yes"/>
      <point x="91.8964" y="492.16"/>
      <point x="71.7531" y="509.732"/>
      <point x="53.8004" y="529.304" type="curve" smooth="yes"/>
      <point x="29.3713" y="555.971"/>
      <point x="30.7568" y="588.188"/>
      <point x="54.1337" y="615.21" type="curve" smooth="yes"/>
      <point x="70.2141" y="633.798"/>
      <point x="72.9437" y="627.829"/>
      <point x="86.1344" y="624.782" type="curve" smooth="yes"/>
      <point x="146.517" y="610.781"/>
      <point x="207.137" y="597.638"/>
      <point x="267.567" y="583.924" type="curve" smooth="yes"/>
      <point x="324.139" y="571.019"/>
      <point x="369.473" y="561.257"/>
      <point x="384.236" y="494.684" type="curve" smooth="yes"/>
      <point x="390.712" y="465.112"/>
      <point x="372.14" y="442.492"/>
      <point x="349.902" y="425.778" type="curve" smooth="yes"/>
      <point x="324.615" y="406.682"/>
      <point x="296.472" y="391.396"/>
      <point x="270.852" y="372.681" type="curve" smooth="yes"/>
      <point x="250.376" y="357.729"/>
      <point x="240.852" y="336.252"/>
      <point x="240.947" y="310.156" type="curve" smooth="yes"/>
      <point x="241.137" y="216.44"/>
      <point x="240.09" y="122.724"/>
      <point x="240.947" y="29.0077" type="curve" smooth="yes"/>
      <point x="241.471" y="-31.1363"/>
      <point x="195.708" y="-49.4224"/>
      <point x="150.374" y="-37.0888" type="curve" smooth="yes"/>
      <point x="135.612" y="-33.0411"/>
      <point x="121.802" y="-25.1838"/>
      <point x="107.754" y="-18.7075" type="curve" smooth="yes"/>
      <point x="85.5629" y="-8.46919"/>
      <point x="80.4676" y="10.9122"/>
      <point x="80.5628" y="33.0078" type="curve" smooth="yes"/>
      <point x="80.6104" y="49.2463"/>
      <point x="80.5931" y="65.4371"/>
    </contour>
    <contour>
      <point x="466.973" y="188.639" type="curve" smooth="yes"/>
      <point x="426.796" y="189.865"/>
      <point x="380.997" y="193.344"/>
      <point x="334.568" y="199.535" type="curve" smooth="yes"/>
      <point x="318.472" y="201.678"/>
      <point x="302.805" y="209.297"/>
      <point x="287.71" y="216.107" type="curve" smooth="yes"/>
      <point x="270.948" y="223.678"/>
      <point x="270.614" y="235.726"/>
      <point x="284.138" y="248.298" type="curve" smooth="yes"/>
      <point x="319.901" y="281.537"/>
      <point x="363.521" y="291.442"/>
      <point x="385.654" y="292.334" type="curve" smooth="yes"/>
      <point x="424.951" y="293.918"/>
      <point x="439.38" y="297.061"/>
      <point x="453.951" y="298.061" type="curve" smooth="yes"/>
      <point x="487.285" y="300.442"/>
      <point x="519.667" y="297.823"/>
      <point x="547.001" y="275.489" type="curve" smooth="yes"/>
      <point x="552.953" y="270.584"/>
      <point x="557.906" y="264.298"/>
      <point x="562.906" y="258.298" type="curve" smooth="yes"/>
      <point x="585.573" y="231.44"/>
      <point x="574.811" y="200.535"/>
      <point x="540.048" y="192.392" type="curve" smooth="yes"/>
      <point x="537.001" y="191.63"/>
      <point x="533.905" y="190.916"/>
      <point x="530.762" y="190.678" type="curve" smooth="yes"/>
      <point x="512.048" y="189.154"/>
      <point x="492.56" y="187.858"/>
    </contour>
    <contour>
      <point x="416.712" y="125.438" type="curve" smooth="yes"/>
      <point x="449.922" y="122.692"/>
      <point x="482.809" y="116.438"/>
      <point x="515.524" y="110.295" type="curve" smooth="yes"/>
      <point x="539.429" y="105.819"/>
      <point x="569.144" y="61.818"/>
      <point x="566.668" y="37.5794" type="curve" smooth="yes"/>
      <point x="564.049" y="11.8169"/>
      <point x="540.902" y="-1.79924"/>
      <point x="515.524" y="3.5998" type="curve" smooth="yes"/>
      <point x="485.615" y="9.96291"/>
      <point x="455.142" y="10.7217"/>
      <point x="428.998" y="29.1506" type="curve" smooth="yes"/>
      <point x="416.189" y="38.1508"/>
      <point x="402.426" y="46.0081"/>
      <point x="390.807" y="56.3416" type="curve" smooth="yes"/>
      <point x="383.426" y="62.9132"/>
      <point x="377.331" y="72.4848"/>
      <point x="374.092" y="81.8659" type="curve" smooth="yes"/>
      <point x="366.378" y="104.247"/>
      <point x="379.932" y="121.301"/>
      <point x="403.569" y="124.876" type="curve" smooth="yes"/>
      <point x="407.67" y="125.496"/>
      <point x="411.883" y="125.838"/>
    </contour>
  </outline>
  <guideline angle="0" x="0" y="605"/>
  <guideline angle="0" x="0" y="-5"/>
</glyph>
<glyph name="J" format="2">
  <advance width="848"/>
  <unicode hex="004A"/>
  <outline>
    <contour>
      <point x="411.124" y="127.49" type="curve" smooth="yes"/>
      <point x="411.124" y="91.856"/>
      <point x="411.731" y="56.2217"/>
      <point x="410.777" y="20.6741" type="curve" smooth="yes"/>
      <point x="410.517" y="9.40288"/>
      <point x="406.962" y="-2.04172"/>
      <point x="403.668" y="-13.0528" type="curve" smooth="yes"/>
      <point x="400.807" y="-22.6767"/>
      <point x="398.552" y="-32.9074"/>
      <point x="384.073" y="-33.4276" type="curve" smooth="yes"/>
      <point x="368.901" y="-33.9478"/>
      <point x="362.745" y="-24.9309"/>
      <point x="359.45" y="-13.4863" type="curve" smooth="yes"/>
      <point x="348.873" y="23.4485"/>
      <point x="340.723" y="61.1637"/>
      <point x="328.584" y="97.4916" type="curve" smooth="yes"/>
      <point x="321.215" y="119.774"/>
      <point x="309.077" y="140.582"/>
      <point x="297.719" y="161.304" type="curve" smooth="yes"/>
      <point x="291.91" y="171.968"/>
      <point x="283.586" y="169.714"/>
      <point x="272.749" y="164.599" type="curve" smooth="yes"/>
      <point x="246.565" y="152.027"/>
      <point x="219.861" y="138.935"/>
      <point x="191.943" y="132.172" type="curve" smooth="yes"/>
      <point x="155.355" y="123.242"/>
      <point x="86.6872" y="163.125"/>
      <point x="74.2022" y="199.193" type="curve" smooth="yes"/>
      <point x="61.1103" y="237.168"/>
      <point x="73.3352" y="279.391"/>
      <point x="125.963" y="274.363" type="curve" smooth="yes"/>
      <point x="158.736" y="271.155"/>
      <point x="192.116" y="272.369"/>
      <point x="225.149" y="273.322" type="curve" smooth="yes"/>
      <point x="247.605" y="274.016"/>
      <point x="255.235" y="281.819"/>
      <point x="252.027" y="303.234" type="curve" smooth="yes"/>
      <point x="245.871" y="344.244"/>
      <point x="239.889" y="385.687"/>
      <point x="228.531" y="425.397" type="curve" smooth="yes"/>
      <point x="216.479" y="467.534"/>
      <point x="196.451" y="507.33"/>
      <point x="183.533" y="549.293" type="curve" smooth="yes"/>
      <point x="176.076" y="573.483"/>
      <point x="173.996" y="599.753"/>
      <point x="173.302" y="625.244" type="curve" smooth="yes"/>
      <point x="173.042" y="634.954"/>
      <point x="181.799" y="646.486"/>
      <point x="189.255" y="654.549" type="curve" smooth="yes"/>
      <point x="208.936" y="675.704"/>
      <point x="228.878" y="695.819"/>
      <point x="262.171" y="694.605" type="curve" smooth="yes"/>
      <point x="284.887" y="693.738"/>
      <point x="301.62" y="685.935"/>
      <point x="316.013" y="668.681" type="curve" smooth="yes"/>
      <point x="335.521" y="645.185"/>
      <point x="355.895" y="622.296"/>
      <point x="376.877" y="600.013" type="curve" smooth="yes"/>
      <point x="393.437" y="582.413"/>
      <point x="396.905" y="563.946"/>
      <point x="393.09" y="539.756" type="curve" smooth="yes"/>
      <point x="383.727" y="480.365"/>
      <point x="378.958" y="420.281"/>
      <point x="388.322" y="360.284" type="curve" smooth="yes"/>
      <point x="392.917" y="330.719"/>
      <point x="403.582" y="327.416"/>
      <point x="432.973" y="329.592" type="curve" smooth="yes"/>
      <point x="490.32" y="333.837"/>
      <point x="504.236" y="342.615"/>
      <point x="583.92" y="377.884" type="curve" smooth="yes"/>
      <point x="606.053" y="387.68"/>
      <point x="630.219" y="393.751"/>
      <point x="654.149" y="397.999" type="curve" smooth="yes"/>
      <point x="700.534" y="406.236"/>
      <point x="747.266" y="355.949"/>
      <point x="745.619" y="303.408" type="curve" smooth="yes"/>
      <point x="744.578" y="269.854"/>
      <point x="727.029" y="258.171"/>
      <point x="702.776" y="257.152" type="curve" smooth="yes"/>
      <point x="677.3" y="256.081"/>
      <point x="642.209" y="240.384"/>
      <point x="612.965" y="232.746" type="curve" smooth="yes"/>
      <point x="600.824" y="229.575"/>
      <point x="583.155" y="228.805"/>
      <point x="579.389" y="234.374" type="curve" smooth="yes"/>
      <point x="574.903" y="241.007"/>
      <point x="582.186" y="258.236"/>
      <point x="588.949" y="267.947" type="curve" smooth="yes"/>
      <point x="599.353" y="282.946"/>
      <point x="608.023" y="297.339"/>
      <point x="606.029" y="316.76" type="curve" smooth="yes"/>
      <point x="604.729" y="329.852"/>
      <point x="597.966" y="335.921"/>
      <point x="586.868" y="331.759" type="curve" smooth="yes"/>
      <point x="550.367" y="318.147"/>
      <point x="514.212" y="303.408"/>
      <point x="478.318" y="288.322" type="curve" smooth="yes"/>
      <point x="460.977" y="281.039"/>
      <point x="444.938" y="270.461"/>
      <point x="427.424" y="263.872" type="curve" smooth="yes"/>
      <point x="415.112" y="259.19"/>
      <point x="409.824" y="253.381"/>
      <point x="410.084" y="240.029" type="curve" smooth="yes"/>
      <point x="410.777" y="202.574"/>
      <point x="411.124" y="164.946"/>
    </contour>
  </outline>
  <guideline angle="0" x="0" y="694.676"/>
  <guideline angle="0" x="0" y="-33.4491"/>
</glyph>
<glyph name="L" format="2">
  <advance width="742"/>
  <unicode hex="004C"/>
  <outline>
    <contour>
      <point x="464.443" y="276.399" type="curve" smooth="yes"/>
      <point x="463.945" y="307.666"/>
      <point x="459.393" y="342.097"/>
      <point x="455.46" y="376.488" type="curve" smooth="yes"/>
      <point x="452.536" y="401.949"/>
      <point x="426.65" y="422.891"/>
      <point x="401.19" y="420.606" type="curve" smooth="yes"/>
      <point x="375.038" y="418.32"/>
      <point x="349.099" y="413.802"/>
      <point x="322.947" y="410.825" type="curve" smooth="yes"/>
      <point x="277.288" y="405.669"/>
      <point x="213.928" y="443.568"/>
      <point x="191.338" y="491.991" type="curve" smooth="yes"/>
      <point x="185.757" y="503.951"/>
      <point x="187.777" y="520.163"/>
      <point x="188.574" y="534.249" type="curve" smooth="yes"/>
      <point x="190.222" y="563.377"/>
      <point x="204.042" y="588.147"/>
      <point x="222.38" y="609.727" type="curve" smooth="yes"/>
      <point x="244.279" y="635.348"/>
      <point x="281.965" y="639.706"/>
      <point x="312.688" y="624.61" type="curve" smooth="yes"/>
      <point x="349.683" y="606.379"/>
      <point x="387.316" y="606.804"/>
      <point x="424.79" y="624.504" type="curve" smooth="yes"/>
      <point x="484.057" y="652.516"/>
      <point x="543.057" y="681.113"/>
      <point x="602.962" y="707.743" type="curve" smooth="yes"/>
      <point x="630.389" y="719.915"/>
      <point x="657.338" y="703.757"/>
      <point x="663.557" y="673.618" type="curve" smooth="yes"/>
      <point x="667.65" y="653.898"/>
      <point x="662.494" y="635.613"/>
      <point x="655.319" y="616.425" type="curve" smooth="yes"/>
      <point x="637.353" y="568.48"/>
      <point x="597.381" y="538.342"/>
      <point x="566.924" y="500.496" type="curve" smooth="yes"/>
      <point x="560.97" y="493.054"/>
      <point x="556.133" y="484.709"/>
      <point x="550.446" y="477.055" type="curve" smooth="yes"/>
      <point x="529.556" y="449.149"/>
      <point x="538.858" y="420.34"/>
      <point x="548.054" y="391.796" type="curve" smooth="yes"/>
      <point x="558.472" y="359.585"/>
      <point x="570.166" y="327.693"/>
      <point x="580.531" y="295.428" type="curve" smooth="yes"/>
      <point x="591.109" y="262.579"/>
      <point x="601.739" y="229.677"/>
      <point x="610.616" y="196.296" type="curve" smooth="yes"/>
      <point x="620.343" y="159.514"/>
      <point x="616.144" y="123.528"/>
      <point x="595.148" y="91.3702" type="curve" smooth="yes"/>
      <point x="567.561" y="49.1659"/>
      <point x="536.041" y="10.2573"/>
      <point x="491.817" y="-16.3197" type="curve" smooth="yes"/>
      <point x="429.202" y="-53.8995"/>
      <point x="348.939" y="-20.9972"/>
      <point x="328.847" y="33.8576" type="curve" smooth="yes"/>
      <point x="319.705" y="58.7868"/>
      <point x="322.15" y="83.3971"/>
      <point x="329.804" y="107.529" type="curve" smooth="yes"/>
      <point x="337.299" y="131.342"/>
      <point x="356.593" y="138.783"/>
      <point x="380.141" y="140.484" type="curve" smooth="yes"/>
      <point x="420.059" y="143.355"/>
      <point x="450.038" y="167.699"/>
      <point x="458.809" y="206.98" type="curve" smooth="yes"/>
      <point x="463.592" y="228.242"/>
      <point x="464.851" y="250.768"/>
    </contour>
    <contour>
      <point x="124.417" y="707.371" type="curve" smooth="yes"/>
      <point x="158.189" y="705.838"/>
      <point x="185.81" y="683.292"/>
      <point x="185.81" y="653.526" type="curve" smooth="yes"/>
      <point x="185.81" y="624.026"/>
      <point x="158.117" y="599.947"/>
      <point x="124.098" y="599.894" type="curve" smooth="yes"/>
      <point x="88.6445" y="599.841"/>
      <point x="67.2235" y="620.996"/>
      <point x="68.3397" y="656.716" type="curve" smooth="yes"/>
      <point x="69.1902" y="683.824"/>
      <point x="86.6695" y="709.084"/>
    </contour>
  </outline>
  <guideline angle="0" x="0" y="711.806"/>
  <guideline angle="0" x="0" y="-32.4074"/>
</glyph>
<glyph name="M" format="2">
  <advance width="957"/>
  <unicode hex="004D"/>
  <outline>
    <contour>
      <point x="199.915" y="710.631" type="curve" smooth="yes"/>
      <point x="250.274" y="708.01"/>
      <point x="296.001" y="706.267"/>
      <point x="339.137" y="687.349" type="curve" smooth="yes"/>
      <point x="365.843" y="675.649"/>
      <point x="373.098" y="658.117"/>
      <point x="359.158" y="632.193" type="curve" smooth="yes"/>
      <point x="346.889" y="609.399"/>
      <point x="323.025" y="573.05"/>
      <point x="303.032" y="552.396" type="curve" smooth="yes"/>
      <point x="294.793" y="543.885"/>
      <point x="293.293" y="532.419"/>
      <point x="284.965" y="512.543" type="curve" smooth="yes"/>
      <point x="269.929" y="476.659"/>
      <point x="256.137" y="437.211"/>
      <point x="246.251" y="399.766" type="curve" smooth="yes"/>
      <point x="227.724" y="329.461"/>
      <point x="224.808" y="258.694"/>
      <point x="266.45" y="194.364" type="curve" smooth="yes"/>
      <point x="291.058" y="156.349"/>
      <point x="326.69" y="131.243"/>
      <point x="372.493" y="124.629" type="curve" smooth="yes"/>
      <point x="392.301" y="121.748"/>
      <point x="412.571" y="121.997"/>
      <point x="432.627" y="121.286" type="curve" smooth="yes"/>
      <point x="438.459" y="121.073"/>
      <point x="446.131" y="122.349"/>
      <point x="451.545" y="122.89" type="curve" smooth="yes"/>
      <point x="462.963" y="124.032"/>
      <point x="472.463" y="132.145"/>
      <point x="473.73" y="139.102" type="curve" smooth="yes"/>
      <point x="475.052" y="146.366"/>
      <point x="464.917" y="157.772"/>
      <point x="457.306" y="163.142" type="curve" smooth="yes"/>
      <point x="420.358" y="189.137"/>
      <point x="397.03" y="223.169"/>
      <point x="402.4" y="269.256" type="curve" smooth="yes"/>
      <point x="406.81" y="307.271"/>
      <point x="430.956" y="335.933"/>
      <point x="459.618" y="360.044" type="curve" smooth="yes"/>
      <point x="471.531" y="370.072"/>
      <point x="483.195" y="381.06"/>
      <point x="496.779" y="388.244" type="curve" smooth="yes"/>
      <point x="518.721" y="399.837"/>
      <point x="543.08" y="397.668"/>
      <point x="565.91" y="391.124" type="curve" smooth="yes"/>
      <point x="610.611" y="378.322"/>
      <point x="645.567" y="353.501"/>
      <point x="660.859" y="306.631" type="curve" smooth="yes"/>
      <point x="666.335" y="289.811"/>
      <point x="673.127" y="273.417"/>
      <point x="679.315" y="256.81" type="curve" smooth="yes"/>
      <point x="684.293" y="243.545"/>
      <point x="693.61" y="238.105"/>
      <point x="707.977" y="238.105" type="curve" smooth="yes"/>
      <point x="771.418" y="238.069"/>
      <point x="816.474" y="282.094"/>
      <point x="816.865" y="345.464" type="curve" smooth="yes"/>
      <point x="816.936" y="357.306"/>
      <point x="817.221" y="369.219"/>
      <point x="816.083" y="380.989" type="curve" smooth="yes"/>
      <point x="812.064" y="422.738"/>
      <point x="783.758" y="440.056"/>
      <point x="747.699" y="452.325" type="curve" smooth="yes"/>
      <point x="727.465" y="459.224"/>
      <point x="704.563" y="462.922"/>
      <point x="689.947" y="482.765" type="curve" smooth="yes"/>
      <point x="679.706" y="496.67"/>
      <point x="679.101" y="509.579"/>
      <point x="688.098" y="523.163" type="curve" smooth="yes"/>
      <point x="698.98" y="539.592"/>
      <point x="714.698" y="545.531"/>
      <point x="730.594" y="539.948" type="curve" smooth="yes"/>
      <point x="803.601" y="514.273"/>
      <point x="851.36" y="467.225"/>
      <point x="862.241" y="387.177" type="curve" smooth="yes"/>
      <point x="869.638" y="332.697"/>
      <point x="867.824" y="280.209"/>
      <point x="842.434" y="229.926" type="curve" smooth="yes"/>
      <point x="830.521" y="206.313"/>
      <point x="814.838" y="186.897"/>
      <point x="791.155" y="175.481" type="curve" smooth="yes"/>
      <point x="763.595" y="162.253"/>
      <point x="736.213" y="147.21"/>
      <point x="707.052" y="139.102" type="curve" smooth="yes"/>
      <point x="663.383" y="126.976"/>
      <point x="633.263" y="97.3891"/>
      <point x="604.423" y="66.6287" type="curve" smooth="yes"/>
      <point x="546.565" y="4.93009"/>
      <point x="477.327" y="-34.2583"/>
      <point x="394.221" y="-48.8028" type="curve" smooth="yes"/>
      <point x="387.962" y="-49.9052"/>
      <point x="380.814" y="-50.3676"/>
      <point x="374.911" y="-48.5183" type="curve" smooth="yes"/>
      <point x="322.103" y="-31.8046"/>
      <point x="265.845" y="-20.425"/>
      <point x="223.207" y="16.8075" type="curve" smooth="yes"/>
      <point x="188.855" y="46.8212"/>
      <point x="155.606" y="80.8532"/>
      <point x="131.708" y="119.295" type="curve" smooth="yes"/>
      <point x="113.217" y="149.059"/>
      <point x="106.851" y="187.821"/>
      <point x="100.664" y="223.525" type="curve" smooth="yes"/>
      <point x="91.7377" y="274.804"/>
      <point x="100.095" y="326.261"/>
      <point x="111.83" y="376.473" type="curve" smooth="yes"/>
      <point x="117.022" y="398.699"/>
      <point x="128.081" y="419.501"/>
      <point x="136.26" y="441.016" type="curve" smooth="yes"/>
      <point x="143.764" y="460.752"/>
      <point x="151.445" y="480.453"/>
      <point x="158.273" y="500.439" type="curve" smooth="yes"/>
      <point x="164.923" y="519.962"/>
      <point x="157.028" y="534.577"/>
      <point x="141.772" y="546.988" type="curve" smooth="yes"/>
      <point x="123.458" y="561.853"/>
      <point x="105.251" y="576.966"/>
      <point x="88.146" y="593.218" type="curve" smooth="yes"/>
      <point x="57.1367" y="622.591"/>
      <point x="61.0839" y="655.948"/>
      <point x="95.7205" y="681.231" type="curve" smooth="yes"/>
      <point x="128.472" y="705.2"/>
      <point x="163.96" y="712.502"/>
    </contour>
    <contour>
      <point x="565.59" y="216.341" type="curve" smooth="yes"/>
      <point x="593.755" y="215.879"/>
      <point x="605.703" y="224.129"/>
      <point x="606.521" y="247.99" type="curve" smooth="yes"/>
      <point x="607.268" y="269.932"/>
      <point x="600.511" y="290.379"/>
      <point x="582.091" y="303.999" type="curve" smooth="yes"/>
      <point x="568.364" y="314.17"/>
      <point x="551.65" y="320.108"/>
      <point x="535.932" y="310.365" type="curve" smooth="yes"/>
      <point x="518.827" y="299.732"/>
      <point x="503.571" y="285.792"/>
      <point x="505.278" y="262.393" type="curve" smooth="yes"/>
      <point x="505.88" y="254.056"/>
      <point x="517.701" y="240.863"/>
      <point x="525.219" y="233.326" type="curve" smooth="yes"/>
      <point x="537.263" y="221.252"/>
      <point x="548.885" y="216.604"/>
    </contour>
  </outline>
  <guideline angle="0" x="0" y="710.648"/>
  <guideline angle="0" x="0" y="-49.7685"/>
</glyph>
<glyph name="Q" format="2">
  <advance width="738"/>
  <unicode hex="0051"/>
  <outline>
    <contour>
      <point x="220.447" y="335.9" type="curve"/>
      <point x="192.004" y="332.781"/>
      <point x="165.632" y="329.515"/>
      <point x="137.166" y="332.179" type="curve" smooth="yes"/>
      <point x="121.691" y="333.627"/>
      <point x="107.104" y="339.542"/>
      <point x="90.9795" y="346.512" type="curve" smooth="yes"/>
      <point x="71.0326" y="355.134"/>
      <point x="59.1961" y="367.032"/>
      <point x="58.2654" y="392.049" type="curve" smooth="yes"/>
      <point x="57.2441" y="419.502"/>
      <point x="56.6324" y="427.622"/>
      <point x="57.2547" y="451.275" type="curve" smooth="yes"/>
      <point x="57.4408" y="458.35"/>
      <point x="67.5001" y="467.65"/>
      <point x="83.9501" y="465.6" type="curve" smooth="yes"/>
      <point x="109.35" y="462.45"/>
      <point x="134.9" y="458.8"/>
      <point x="159.5" y="452.25" type="curve" smooth="yes"/>
      <point x="194.75" y="442.75"/>
      <point x="229.45" y="446.8"/>
      <point x="264.6" y="450.65" type="curve" smooth="yes"/>
      <point x="283.35" y="452.75"/>
      <point x="302.15" y="454.55"/>
      <point x="321" y="455.25" type="curve" smooth="yes"/>
      <point x="331.05" y="455.65"/>
      <point x="356.35" y="436.55"/>
      <point x="356.2" y="427.7" type="curve" smooth="yes"/>
      <point x="356.1" y="419.85"/>
      <point x="351.75" y="411.35"/>
      <point x="347.3" y="404.35" type="curve" smooth="yes"/>
      <point x="329.45" y="376.5"/>
      <point x="307.15" y="350.8"/>
      <point x="293.5" y="321.05" type="curve" smooth="yes"/>
      <point x="280" y="291.45"/>
      <point x="272.9" y="258.35"/>
      <point x="266.9" y="226.05" type="curve" smooth="yes"/>
      <point x="263.2" y="206.1"/>
      <point x="268.487" y="174.688"/>
      <point x="273.564" y="153.11" type="curve" smooth="yes"/>
      <point x="281.566" y="119.101"/>
      <point x="290.235" y="103.763"/>
      <point x="316.8" y="85" type="curve" smooth="yes"/>
      <point x="358.393" y="55.6219"/>
      <point x="395.75" y="49.85"/>
      <point x="441.15" y="54.85" type="curve" smooth="yes"/>
      <point x="478.5" y="59"/>
      <point x="505.2" y="79.6"/>
      <point x="522.55" y="110.35" type="curve" smooth="yes"/>
      <point x="540.397" y="141.676"/>
      <point x="545.917" y="164.776"/>
      <point x="557.25" y="199.1" type="curve" smooth="yes"/>
      <point x="569.8" y="237.5"/>
      <point x="572.9" y="276.95"/>
      <point x="567.75" y="316.8" type="curve" smooth="yes"/>
      <point x="564.85" y="339.1"/>
      <point x="560.8" y="361.35"/>
      <point x="555.5" y="383.15" type="curve" smooth="yes"/>
      <point x="551.85" y="398.2"/>
      <point x="545.73" y="413.304"/>
      <point x="540.65" y="427.1" type="curve" smooth="yes"/>
      <point x="527.632" y="462.45"/>
      <point x="520.3" y="481.9"/>
      <point x="526.65" y="511.85" type="curve" smooth="yes"/>
      <point x="529.65" y="525.85"/>
      <point x="533.85" y="539.8"/>
      <point x="535.15" y="553.95" type="curve" smooth="yes"/>
      <point x="537.35" y="578.1"/>
      <point x="537.6" y="602.45"/>
      <point x="538.6" y="626.7" type="curve" smooth="yes"/>
      <point x="539.6" y="649.1"/>
      <point x="539.35" y="671.6"/>
      <point x="541.7" y="693.85" type="curve" smooth="yes"/>
      <point x="544.1" y="716.8"/>
      <point x="553.944" y="737.972"/>
      <point x="564.163" y="746.218" type="curve" smooth="yes"/>
      <point x="583.647" y="761.941"/>
      <point x="604.223" y="757.626"/>
      <point x="613.15" y="754.45" type="curve" smooth="yes"/>
      <point x="625.659" y="750"/>
      <point x="628.326" y="746.603"/>
      <point x="632.7" y="722.25" type="curve" smooth="yes"/>
      <point x="633.871" y="715.731"/>
      <point x="637.95" y="708.85"/>
      <point x="639.4" y="701.85" type="curve" smooth="yes"/>
      <point x="641.45" y="692.1"/>
      <point x="644.3" y="681.75"/>
      <point x="640.666" y="656.526" type="curve" smooth="yes"/>
      <point x="638.498" y="641.475"/>
      <point x="632.414" y="610.175"/>
      <point x="622.7" y="580.6" type="curve" smooth="yes"/>
      <point x="604.2" y="524.25"/>
      <point x="601.7" y="467.7"/>
      <point x="612.95" y="408.95" type="curve" smooth="yes"/>
      <point x="621.1" y="366.6"/>
      <point x="632.994" y="353.831"/>
      <point x="632.289" y="301.8" type="curve" smooth="yes"/>
      <point x="631.682" y="257.013"/>
      <point x="626.231" y="235.243"/>
      <point x="619.5" y="211.45" type="curve" smooth="yes"/>
      <point x="609.708" y="176.835"/>
      <point x="604.066" y="146.647"/>
      <point x="596.803" y="121.251" type="curve" smooth="yes"/>
      <point x="582.283" y="70.4811"/>
      <point x="574.978" y="40.413"/>
      <point x="533.92" y="-6.62966" type="curve" smooth="yes"/>
      <point x="518.243" y="-24.591"/>
      <point x="506.7" y="-30.3"/>
      <point x="495.95" y="-35.35" type="curve" smooth="yes"/>
      <point x="451.55" y="-56.15"/>
      <point x="404.45" y="-67.5"/>
      <point x="355.65" y="-63.55" type="curve" smooth="yes"/>
      <point x="314.281" y="-60.1983"/>
      <point x="258.723" y="-29"/>
      <point x="236.633" y="-10.8136" type="curve" smooth="yes"/>
      <point x="205.231" y="15.0397"/>
      <point x="184.35" y="38.75"/>
      <point x="177.2" y="53.5" type="curve" smooth="yes"/>
      <point x="164" y="80.75"/>
      <point x="156.199" y="95.7613"/>
      <point x="162.85" y="141" type="curve" smooth="yes"/>
      <point x="165.641" y="159.986"/>
      <point x="170.15" y="178.9"/>
      <point x="175.7" y="197.25" type="curve" smooth="yes"/>
      <point x="183.2" y="221.95"/>
      <point x="192.95" y="246.05"/>
      <point x="201.35" y="270.55" type="curve" smooth="yes"/>
      <point x="207.35" y="288.05"/>
      <point x="212.95" y="305.7"/>
      <point x="218.15" y="323.45" type="curve" smooth="yes"/>
      <point x="219.245" y="327.132"/>
      <point x="220" y="331"/>
    </contour>
    <contour>
      <point x="310.45" y="565.3" type="curve" smooth="yes"/>
      <point x="310.607" y="529.598"/>
      <point x="310.05" y="528.9"/>
      <point x="274.35" y="529.9" type="curve" smooth="yes"/>
      <point x="243.3" y="530.8"/>
      <point x="212.15" y="532.55"/>
      <point x="181.3" y="535.9" type="curve" smooth="yes"/>
      <point x="149.25" y="539.4"/>
      <point x="137.4" y="556.6"/>
      <point x="130.5" y="589.1" type="curve" smooth="yes"/>
      <point x="126.35" y="608.55"/>
      <point x="130.6" y="626.15"/>
      <point x="131.65" y="644.5" type="curve" smooth="yes"/>
      <point x="134.65" y="695.4"/>
      <point x="202.75" y="732.2"/>
      <point x="243.3" y="704.55" type="curve" smooth="yes"/>
      <point x="259.3" y="693.65"/>
      <point x="271.827" y="680.352"/>
      <point x="281.15" y="661.15" type="curve" smooth="yes"/>
      <point x="290.702" y="641.475"/>
      <point x="301.211" y="624.258"/>
      <point x="304.395" y="610.487" type="curve" smooth="yes"/>
      <point x="310.256" y="585.144"/>
      <point x="310.407" y="575.018"/>
    </contour>
  </outline>
  <guideline angle="0" x="0" y="700"/>
  <guideline angle="0" x="0" y="-29"/>
</glyph>
<glyph name="R" format="2">
  <advance width="994"/>
  <unicode hex="0052"/>
  <outline>
    <contour>
      <point x="705.229" y="762.329" type="curve" smooth="yes"/>
      <point x="758.318" y="761.548"/>
      <point x="811.356" y="757.645"/>
      <point x="864.445" y="754.99" type="curve" smooth="yes"/>
      <point x="868.973" y="754.782"/>
      <point x="874.907" y="755.198"/>
      <point x="877.718" y="752.596" type="curve" smooth="yes"/>
      <point x="884.848" y="746.142"/>
      <point x="893.488" y="738.907"/>
      <point x="895.831" y="730.423" type="curve" smooth="yes"/>
      <point x="897.132" y="725.531"/>
      <point x="888.388" y="716.422"/>
      <point x="882.35" y="711.426" type="curve" smooth="yes"/>
      <point x="876.937" y="706.949"/>
      <point x="869.078" y="705.128"/>
      <point x="862.051" y="702.838" type="curve" smooth="yes"/>
      <point x="823.743" y="690.346"/>
      <point x="785.644" y="677.074"/>
      <point x="746.815" y="666.247" type="curve" smooth="yes"/>
      <point x="727.766" y="660.991"/>
      <point x="707.467" y="660.21"/>
      <point x="687.636" y="657.972" type="curve" smooth="yes"/>
      <point x="651.514" y="653.964"/>
      <point x="615.08" y="652.559"/>
      <point x="581.925" y="634.342" type="curve" smooth="yes"/>
      <point x="571.203" y="628.46"/>
      <point x="566.883" y="621.642"/>
      <point x="568.549" y="609.983" type="curve" smooth="yes"/>
      <point x="576.877" y="553.042"/>
      <point x="584.944" y="495.996"/>
      <point x="593.532" y="439.055" type="curve" smooth="yes"/>
      <point x="595.198" y="427.865"/>
      <point x="599.466" y="417.091"/>
      <point x="601.287" y="405.952" type="curve" smooth="yes"/>
      <point x="606.857" y="372.589"/>
      <point x="632.933" y="363.429"/>
      <point x="659.842" y="354.372" type="curve" smooth="yes"/>
      <point x="720.166" y="334.073"/>
      <point x="778.097" y="309.35"/>
      <point x="821.141" y="259.696" type="curve" smooth="yes"/>
      <point x="843.366" y="233.984"/>
      <point x="864.966" y="207.699"/>
      <point x="886.254" y="181.154" type="curve" smooth="yes"/>
      <point x="916.494" y="143.315"/>
      <point x="885.004" y="74.4547"/>
      <point x="836.651" y="65.0339" type="curve" smooth="yes"/>
      <point x="827.022" y="63.1081"/>
      <point x="814.062" y="68.365"/>
      <point x="805.214" y="74.1945" type="curve" smooth="yes"/>
      <point x="773.568" y="95.0139"/>
      <point x="758.11" y="128.585"/>
      <point x="739.633" y="160.023" type="curve" smooth="yes"/>
      <point x="719.081" y="195.03"/>
      <point x="691.99" y="231.594"/>
      <point x="660.467" y="257.562" type="curve" smooth="yes"/>
      <point x="653.336" y="263.391"/>
      <point x="641.781" y="268.544"/>
      <point x="633.714" y="266.826" type="curve" smooth="yes"/>
      <point x="628.613" y="265.785"/>
      <point x="623.877" y="251.628"/>
      <point x="623.252" y="243.04" type="curve" smooth="yes"/>
      <point x="621.638" y="220.243"/>
      <point x="622.263" y="197.342"/>
      <point x="622.003" y="174.492" type="curve" smooth="yes"/>
      <point x="621.743" y="152.319"/>
      <point x="614.456" y="133.894"/>
      <point x="597.904" y="118.124" type="curve" smooth="yes"/>
      <point x="573.389" y="94.7016"/>
      <point x="545.335" y="78.6186"/>
      <point x="513.273" y="68.1569" type="curve" smooth="yes"/>
      <point x="454.562" y="49.055"/>
      <point x="403.389" y="31.7263"/>
      <point x="333.029" y="35.0539" type="curve" smooth="yes"/>
      <point x="308.288" y="36.224"/>
      <point x="288.026" y="43.1042"/>
      <point x="269.321" y="60.3496" type="curve" smooth="yes"/>
      <point x="257.142" y="71.5921"/>
      <point x="244.65" y="82.4182"/>
      <point x="232.679" y="93.8689" type="curve" smooth="yes"/>
      <point x="203.74" y="121.611"/>
      <point x="187.657" y="154.922"/>
      <point x="187.553" y="195.728" type="curve" smooth="yes"/>
      <point x="187.449" y="222.585"/>
      <point x="185.419" y="249.39"/>
      <point x="185.159" y="276.195" type="curve" smooth="yes"/>
      <point x="185.107" y="283.326"/>
      <point x="184.664" y="300.654"/>
      <point x="188.625" y="306.115" type="curve" smooth="yes"/>
      <point x="211.729" y="337.973"/>
      <point x="234.709" y="362.96"/>
      <point x="268.332" y="385.289" type="curve" smooth="yes"/>
      <point x="308.514" y="411.99"/>
      <point x="353.12" y="412.146"/>
      <point x="398.558" y="404.963" type="curve" smooth="yes"/>
      <point x="405.845" y="403.766"/>
      <point x="412.923" y="401.112"/>
      <point x="420.262" y="400.071" type="curve" smooth="yes"/>
      <point x="434.315" y="398.093"/>
      <point x="443.684" y="388.724"/>
      <point x="443.112" y="376.493" type="curve" smooth="yes"/>
      <point x="442.643" y="366.916"/>
      <point x="435.565" y="354.684"/>
      <point x="427.653" y="349.063" type="curve" smooth="yes"/>
      <point x="416.411" y="341.152"/>
      <point x="401.889" y="337.404"/>
      <point x="388.304" y="333.449" type="curve" smooth="yes"/>
      <point x="355.358" y="323.924"/>
      <point x="328.709" y="304.926"/>
      <point x="306.484" y="279.578" type="curve" smooth="yes"/>
      <point x="290.297" y="261.153"/>
      <point x="284.363" y="238.2"/>
      <point x="285.717" y="214.257" type="curve" smooth="yes"/>
      <point x="286.862" y="194.01"/>
      <point x="327.772" y="167.778"/>
      <point x="347.342" y="177.719" type="curve" smooth="yes"/>
      <point x="396.06" y="202.598"/>
      <point x="451.075" y="216.339"/>
      <point x="491.777" y="255.792" type="curve" smooth="yes"/>
      <point x="495.681" y="259.592"/>
      <point x="499.116" y="266.306"/>
      <point x="499.012" y="271.563" type="curve" smooth="yes"/>
      <point x="497.086" y="341.152"/>
      <point x="496.826" y="410.949"/>
      <point x="491.257" y="480.226" type="curve" smooth="yes"/>
      <point x="487.665" y="525.404"/>
      <point x="476.006" y="569.957"/>
      <point x="467.991" y="614.771" type="curve" smooth="yes"/>
      <point x="466.221" y="624.661"/>
      <point x="461.173" y="629.033"/>
      <point x="450.503" y="629.189" type="curve" smooth="yes"/>
      <point x="395.695" y="630.022"/>
      <point x="340.888" y="631.843"/>
      <point x="286.081" y="632.728" type="curve" smooth="yes"/>
      <point x="258.964" y="633.145"/>
      <point x="234.032" y="637.933"/>
      <point x="209.361" y="651.362" type="curve" smooth="yes"/>
      <point x="188.854" y="662.5"/>
      <point x="164.339" y="666.456"/>
      <point x="141.386" y="672.858" type="curve" smooth="yes"/>
      <point x="125.563" y="677.282"/>
      <point x="109.064" y="679.416"/>
      <point x="93.5012" y="684.412" type="curve" smooth="yes"/>
      <point x="76.4813" y="689.982"/>
      <point x="73.8943" y="707.366"/>
      <point x="87.6718" y="718.973" type="curve" smooth="yes"/>
      <point x="91.656" y="722.329"/>
      <point x="95.8813" y="725.036"/>
      <point x="100.84" y="726.78" type="curve" smooth="yes"/>
      <point x="129.05" y="736.878"/>
      <point x="157.209" y="747.964"/>
      <point x="186.252" y="755.615" type="curve" smooth="yes"/>
      <point x="202.439" y="759.883"/>
      <point x="220.188" y="758.946"/>
      <point x="237.207" y="758.998" type="curve" smooth="yes"/>
      <point x="313.198" y="759.31"/>
      <point x="389.241" y="759.154"/>
      <point x="465.232" y="759.154" type="curve" smooth="yes"/>
      <point x="545.231" y="759.154"/>
      <point x="625.282" y="763.578"/>
    </contour>
    <contour>
      <point x="240.115" y="451.945" type="curve" smooth="yes"/>
      <point x="215.181" y="452.657"/>
      <point x="198.015" y="462.425"/>
      <point x="182.4" y="476.686" type="curve" smooth="yes"/>
      <point x="167.462" y="490.323"/>
      <point x="163.663" y="508.02"/>
      <point x="174.281" y="527.694" type="curve" smooth="yes"/>
      <point x="192.185" y="560.745"/>
      <point x="214.098" y="588.435"/>
      <point x="255.424" y="588.903" type="curve" smooth="yes"/>
      <point x="266.979" y="589.007"/>
      <point x="283.062" y="586.145"/>
      <point x="289.308" y="578.389" type="curve" smooth="yes"/>
      <point x="309.607" y="553.458"/>
      <point x="326.147" y="525.472"/>
      <point x="343.907" y="498.547" type="curve" smooth="yes"/>
      <point x="348.873" y="491.019"/>
      <point x="346.268" y="487.763"/>
      <point x="341.253" y="483.765" type="curve" smooth="yes"/>
      <point x="334.776" y="478.602"/>
      <point x="328.345" y="471.69"/>
      <point x="320.641" y="469.4" type="curve" smooth="yes"/>
      <point x="294.097" y="461.436"/>
      <point x="262.909" y="451.293"/>
    </contour>
  </outline>
  <guideline angle="0" x="0" y="613.542"/>
  <guideline angle="0" x="0" y="63.3102"/>
</glyph>
<glyph name="W" format="2">
  <advance width="646"/>
  <unicode hex="0057"/>
  <outline>
    <contour>
      <point x="357.05" y="662.55" type="curve" smooth="yes"/>
      <point x="359.031" y="673.734"/>
      <point x="364.27" y="678.65"/>
      <point x="368.979" y="679" type="curve" smooth="yes"/>
      <point x="375.028" y="679.449"/>
      <point x="385.833" y="666.114"/>
      <point x="387.447" y="660.217" type="curve" smooth="yes"/>
      <point x="392.783" y="640.714"/>
      <point x="396.05" y="625"/>
      <point x="397.35" y="604.9" type="curve" smooth="yes"/>
      <point x="400" y="563.05"/>
      <point x="399.4" y="520.95"/>
      <point x="402.15" y="479.1" type="curve" smooth="yes"/>
      <point x="403.8" y="453"/>
      <point x="407.5" y="451.6"/>
      <point x="433.25" y="456.6" type="curve" smooth="yes"/>
      <point x="472.65" y="464.25"/>
      <point x="511.35" y="463.4"/>
      <point x="545.75" y="440.45" type="curve" smooth="yes"/>
      <point x="568.85" y="425"/>
      <point x="586.7" y="408.353"/>
      <point x="588.665" y="395.69" type="curve" smooth="yes"/>
      <point x="594.419" y="358.601"/>
      <point x="586.7" y="344.75"/>
      <point x="570.8" y="336.55" type="curve" smooth="yes"/>
      <point x="555.85" y="328.85"/>
      <point x="541.55" y="319.75"/>
      <point x="526.25" y="312.8" type="curve" smooth="yes"/>
      <point x="519.7" y="309.85"/>
      <point x="510.95" y="308.9"/>
      <point x="504" y="310.5" type="curve" smooth="yes"/>
      <point x="498.6" y="311.7"/>
      <point x="492.1" y="317.6"/>
      <point x="490.45" y="322.8" type="curve" smooth="yes"/>
      <point x="489.1" y="327.2"/>
      <point x="493.4" y="333.9"/>
      <point x="496.45" y="338.85" type="curve" smooth="yes"/>
      <point x="498.45" y="342.1"/>
      <point x="503" y="343.7"/>
      <point x="505.75" y="346.6" type="curve" smooth="yes"/>
      <point x="513.05" y="354.4"/>
      <point x="513.3" y="361.9"/>
      <point x="503.9" y="368.45" type="curve" smooth="yes"/>
      <point x="474.9" y="388.75"/>
      <point x="442.75" y="385.7"/>
      <point x="410.9" y="379.4" type="curve" smooth="yes"/>
      <point x="406.6" y="378.55"/>
      <point x="402.591" y="376.952"/>
      <point x="402.417" y="372.875" type="curve" smooth="yes"/>
      <point x="400.457" y="326.802"/>
      <point x="401.4" y="293.95"/>
      <point x="400" y="261.2" type="curve" smooth="yes"/>
      <point x="397.6" y="204.95"/>
      <point x="392.404" y="153.882"/>
      <point x="390.45" y="92.6499" type="curve" smooth="yes"/>
      <point x="389.037" y="48.3729"/>
      <point x="350.95" y="29.4499"/>
      <point x="309.3" y="43.6499" type="curve" smooth="yes"/>
      <point x="258.2" y="61.0499"/>
      <point x="236.4" y="101.3"/>
      <point x="228.2" y="149.75" type="curve" smooth="yes"/>
      <point x="220.5" y="195.55"/>
      <point x="217.7" y="242.15"/>
      <point x="212.7" y="288.4" type="curve" smooth="yes"/>
      <point x="211.15" y="302.65"/>
      <point x="209" y="316.8"/>
      <point x="207.75" y="331.05" type="curve" smooth="yes"/>
      <point x="206.65" y="342.75"/>
      <point x="201.55" y="346.15"/>
      <point x="189.45" y="344.85" type="curve" smooth="yes"/>
      <point x="165.6" y="342.3"/>
      <point x="141.55" y="341.5"/>
      <point x="117.55" y="340.55" type="curve" smooth="yes"/>
      <point x="84.7" y="339.25"/>
      <point x="66.55" y="361.05"/>
      <point x="51.55" y="385.55" type="curve" smooth="yes"/>
      <point x="48.55" y="390.4"/>
      <point x="50.1" y="403.3"/>
      <point x="54.05" y="406.15" type="curve" smooth="yes"/>
      <point x="67.35" y="415.6"/>
      <point x="82" y="426.2"/>
      <point x="97.45" y="428.95" type="curve" smooth="yes"/>
      <point x="125.5" y="433.9"/>
      <point x="154.5" y="433.75"/>
      <point x="183.15" y="435.1" type="curve" smooth="yes"/>
      <point x="196" y="435.75"/>
      <point x="200.85" y="440.85"/>
      <point x="200.4" y="454.25" type="curve" smooth="yes"/>
      <point x="199.35" y="483.35"/>
      <point x="198.85" y="512.6"/>
      <point x="200.3" y="541.65" type="curve" smooth="yes"/>
      <point x="201.45" y="565.8"/>
      <point x="217.25" y="581.45"/>
      <point x="237.15" y="593.1" type="curve" smooth="yes"/>
      <point x="246.65" y="598.65"/>
      <point x="256.2" y="597.55"/>
      <point x="259.95" y="586.65" type="curve" smooth="yes"/>
      <point x="267.4" y="564.6"/>
      <point x="275.25" y="542.35"/>
      <point x="279.05" y="519.55" type="curve" smooth="yes"/>
      <point x="282.3" y="500.1"/>
      <point x="280.4" y="479.7"/>
      <point x="280.3" y="459.7" type="curve" smooth="yes"/>
      <point x="280.3" y="449.55"/>
      <point x="284.15" y="444.35"/>
      <point x="294.85" y="444.7" type="curve" smooth="yes"/>
      <point x="306.6" y="445.1"/>
      <point x="318.45" y="444.65"/>
      <point x="330.2" y="445.2" type="curve" smooth="yes"/>
      <point x="346" y="445.9"/>
      <point x="354.1" y="454.75"/>
      <point x="354.15" y="470.9" type="curve" smooth="yes"/>
      <point x="354.3" y="497.05"/>
      <point x="353.648" y="523.186"/>
      <point x="353.255" y="549.386" type="curve" smooth="yes"/>
      <point x="352.613" y="592.226"/>
      <point x="354.59" y="648.663"/>
    </contour>
    <contour>
      <point x="356.85" y="330.85" type="curve" smooth="yes"/>
      <point x="356.7" y="339.5"/>
      <point x="355.614" y="353.638"/>
      <point x="354.798" y="363.747" type="curve" smooth="yes"/>
      <point x="354.425" y="368.374"/>
      <point x="351.181" y="368.631"/>
      <point x="344.873" y="368.531" type="curve" smooth="yes"/>
      <point x="324.053" y="368.202"/>
      <point x="306.95" y="367.2"/>
      <point x="290.65" y="365.95" type="curve" smooth="yes"/>
      <point x="276.5" y="364.9"/>
      <point x="270.15" y="357.15"/>
      <point x="270.9" y="342.35" type="curve" smooth="yes"/>
      <point x="272.95" y="302.5"/>
      <point x="273.35" y="262.5"/>
      <point x="276.1" y="222.7" type="curve" smooth="yes"/>
      <point x="277.95" y="194.9"/>
      <point x="275.9" y="166.3"/>
      <point x="289.1" y="140.05" type="curve" smooth="yes"/>
      <point x="299.5" y="119.35"/>
      <point x="311.75" y="109.4"/>
      <point x="326.5" y="111.65" type="curve" smooth="yes"/>
      <point x="341.5" y="113.95"/>
      <point x="351.902" y="126.343"/>
      <point x="354.15" y="152.75" type="curve" smooth="yes"/>
      <point x="357.057" y="186.893"/>
      <point x="357.105" y="221.144"/>
      <point x="358" y="255.45" type="curve" smooth="yes"/>
      <point x="358.655" y="280.542"/>
      <point x="357.3" y="305.75"/>
    </contour>
  </outline>
  <guideline angle="0" x="0" y="679"/>
  <guideline angle="0" x="0" y="39"/>
</glyph>
<glyph name="Y" format="2">
  <advance width="719"/>
  <unicode hex="0059"/>
  <outline>
    <contour>
      <point x="169.618" y="797.396" type="curve" smooth="yes"/>
      <point x="191.666" y="797.056"/>
      <point x="209.896" y="789.236"/>
      <point x="227.373" y="775.926" type="curve" smooth="yes"/>
      <point x="251.852" y="757.118"/>
      <point x="248.438" y="729.745"/>
      <point x="228.357" y="709.375" type="curve" smooth="yes"/>
      <point x="215.278" y="696.065"/>
      <point x="200.522" y="684.2"/>
      <point x="182.786" y="660.863" type="curve" smooth="yes"/>
      <point x="178.758" y="655.564"/>
      <point x="177.796" y="655.5"/>
      <point x="178.031" y="650.006" type="curve" smooth="yes"/>
      <point x="181.95" y="558.399"/>
      <point x="188.137" y="479.919"/>
      <point x="189.699" y="401.331" type="curve" smooth="yes"/>
      <point x="190.162" y="376.62"/>
      <point x="180.266" y="351.273"/>
      <point x="172.512" y="327.025" type="curve" smooth="yes"/>
      <point x="169.271" y="316.725"/>
      <point x="160.069" y="308.796"/>
      <point x="146.007" y="309.433" type="curve" smooth="yes"/>
      <point x="131.887" y="310.069"/>
      <point x="130.208" y="320.718"/>
      <point x="126.794" y="329.745" type="curve" smooth="yes"/>
      <point x="106.424" y="383.044"/>
      <point x="98.2639" y="437.442"/>
      <point x="103.183" y="495.081" type="curve" smooth="yes"/>
      <point x="106.539" y="534.722"/>
      <point x="102.778" y="575.405"/>
      <point x="97.743" y="615.104" type="curve" smooth="yes"/>
      <point x="95.6018" y="632.349"/>
      <point x="84.0856" y="649.537"/>
      <point x="73.7268" y="664.583" type="curve" smooth="yes"/>
      <point x="52.5463" y="695.37"/>
      <point x="51.6782" y="734.896"/>
      <point x="88.4838" y="759.954" type="curve" smooth="yes"/>
      <point x="96.0118" y="765.226" type="line" smooth="yes"/>
      <point x="118.41" y="781.255"/>
      <point x="139.498" y="797.86"/>
    </contour>
    <contour>
      <point x="180.787" y="269.676" type="curve" smooth="yes"/>
      <point x="190.162" y="294.039"/>
      <point x="215.046" y="304.861"/>
      <point x="239.294" y="310.127" type="curve" smooth="yes"/>
      <point x="272.569" y="317.361"/>
      <point x="306.31" y="323.388"/>
      <point x="340.972" y="316.377" type="curve" smooth="yes"/>
      <point x="352.634" y="314.019"/>
      <point x="355.409" y="313.857"/>
      <point x="358.738" y="328.125" type="curve" smooth="yes"/>
      <point x="365.636" y="357.686"/>
      <point x="372.627" y="387.731"/>
      <point x="374.016" y="417.94" type="curve" smooth="yes"/>
      <point x="375.347" y="446.412"/>
      <point x="370.602" y="475.289"/>
      <point x="367.014" y="503.877" type="curve" smooth="yes"/>
      <point x="363.6" y="531.25"/>
      <point x="344.965" y="542.13"/>
      <point x="319.444" y="531.713" type="curve" smooth="yes"/>
      <point x="308.507" y="527.257"/>
      <point x="298.495" y="520.139"/>
      <point x="288.889" y="513.137" type="curve" smooth="yes"/>
      <point x="277.836" y="505.093"/>
      <point x="267.245" y="496.933"/>
      <point x="253.241" y="506.366" type="curve" smooth="yes"/>
      <point x="239.352" y="515.741"/>
      <point x="229.919" y="538.31"/>
      <point x="237.442" y="552.199" type="curve" smooth="yes"/>
      <point x="246.528" y="568.808"/>
      <point x="257.986" y="584.549"/>
      <point x="270.718" y="598.553" type="curve" smooth="yes"/>
      <point x="290.104" y="619.792"/>
      <point x="311.574" y="639.236"/>
      <point x="332.002" y="659.491" type="curve" smooth="yes"/>
      <point x="350" y="677.431"/>
      <point x="372.093" y="685.481"/>
      <point x="397.049" y="685.764" type="curve" smooth="yes"/>
      <point x="452.163" y="686.389"/>
      <point x="462.829" y="687.515"/>
      <point x="468.866" y="689.236" type="curve" smooth="yes"/>
      <point x="488.431" y="694.816"/>
      <point x="501.736" y="665.972"/>
      <point x="489.641" y="643.982" type="curve" smooth="yes"/>
      <point x="481.192" y="628.53"/>
      <point x="470.67" y="615.828"/>
      <point x="455.592" y="606.191" type="curve" smooth="yes"/>
      <point x="445.254" y="599.583"/>
      <point x="444.716" y="600.45"/>
      <point x="444.618" y="587.014" type="curve" smooth="yes"/>
      <point x="443.889" y="487.13"/>
      <point x="443.981" y="378.241"/>
      <point x="444.734" y="278.414" type="curve" smooth="yes"/>
      <point x="444.792" y="270.602"/>
      <point x="449.247" y="265.046"/>
      <point x="455.318" y="258.425" type="curve" smooth="yes"/>
      <point x="459.023" y="254.383"/>
      <point x="461.055" y="251.018"/>
      <point x="466.956" y="241.956" type="curve" smooth="yes"/>
      <point x="494.232" y="200.067"/>
      <point x="535.185" y="176.91"/>
      <point x="580.093" y="159.896" type="curve" smooth="yes"/>
      <point x="591.088" y="155.671"/>
      <point x="603.935" y="157.235"/>
      <point x="627.266" y="160.568" type="curve" smooth="yes"/>
      <point x="644.039" y="162.964"/>
      <point x="659.606" y="151.447"/>
      <point x="657.176" y="123.033" type="curve" smooth="yes"/>
      <point x="655.787" y="106.481"/>
      <point x="651.215" y="88.0208"/>
      <point x="641.956" y="74.6528" type="curve" smooth="yes"/>
      <point x="616.609" y="38.3102"/>
      <point x="589.063" y="36.1111"/>
      <point x="555.903" y="65.5093" type="curve" smooth="yes"/>
      <point x="535.706" y="83.4491"/>
      <point x="517.014" y="103.125"/>
      <point x="497.28" y="121.701" type="curve" smooth="yes"/>
      <point x="478.414" y="139.468"/>
      <point x="458.507" y="156.539"/>
      <point x="431.655" y="159.549" type="curve" smooth="yes"/>
      <point x="423.553" y="160.475"/>
      <point x="412.442" y="156.713"/>
      <point x="406.539" y="151.157" type="curve" smooth="yes"/>
      <point x="389.525" y="135.069"/>
      <point x="372.512" y="118.345"/>
      <point x="359.144" y="99.3634" type="curve" smooth="yes"/>
      <point x="344.85" y="79.1088"/>
      <point x="323.958" y="69.7917"/>
      <point x="303.125" y="66.6088" type="curve" smooth="yes"/>
      <point x="264.988" y="60.706"/>
      <point x="227.488" y="68.75"/>
      <point x="195.139" y="91.7245" type="curve" smooth="yes"/>
      <point x="167.13" y="111.632"/>
      <point x="158.148" y="140.31"/>
      <point x="159.801" y="190.743" type="curve" smooth="yes"/>
      <point x="160.807" y="221.442"/>
      <point x="175.767" y="256.756"/>
    </contour>
    <contour>
      <point x="225.347" y="230.671" type="curve" smooth="yes"/>
      <point x="211.102" y="207.228"/>
      <point x="214.236" y="186.458"/>
      <point x="225.932" y="174.849" type="curve" smooth="yes"/>
      <point x="253.009" y="147.975"/>
      <point x="270.66" y="145.949"/>
      <point x="295.312" y="160.938" type="curve" smooth="yes"/>
      <point x="302.951" y="165.509"/>
      <point x="310.648" y="170.775"/>
      <point x="316.667" y="177.315" type="curve" smooth="yes"/>
      <point x="332.465" y="194.618"/>
      <point x="341.609" y="216.377"/>
      <point x="333.102" y="238.31" type="curve" smooth="yes"/>
      <point x="325.231" y="258.681"/>
      <point x="303.782" y="259.147"/>
      <point x="283.379" y="259.405" type="curve" smooth="yes"/>
      <point x="253.248" y="259.786"/>
      <point x="247.159" y="266.568"/>
    </contour>
  </outline>
  <guideline angle="0" x="0" y="45.1389"/>
  <guideline angle="0" x="0" y="797.454"/>
</glyph>
<glyph name="b" format="2">
  <advance width="776"/>
  <unicode hex="0062"/>
  <outline>
    <contour>
      <point x="670" y="125" type="curve" smooth="yes"/>
      <point x="637" y="126"/>
      <point x="604" y="127"/>
      <point x="581" y="154" type="curve"/>
      <point x="575" y="160"/>
      <point x="570" y="168"/>
      <point x="567" y="176" type="curve"/>
      <point x="560" y="204"/>
      <point x="556" y="231"/>
      <point x="548" y="258" type="curve"/>
      <point x="539" y="286"/>
      <point x="530" y="315"/>
      <point x="515" y="340" type="curve" smooth="yes"/>
      <point x="492" y="377"/>
      <point x="466" y="413"/>
      <point x="436" y="444" type="curve" smooth="yes"/>
      <point x="407" y="474"/>
      <point x="372" y="500"/>
      <point x="325" y="495" type="curve" smooth="yes"/>
      <point x="303" y="493"/>
      <point x="286" y="483"/>
      <point x="271" y="468" type="curve" smooth="yes"/>
      <point x="230" y="427"/>
      <point x="203" y="378"/>
      <point x="183" y="324" type="curve"/>
      <point x="173" y="299"/>
      <point x="160" y="275"/>
      <point x="139" y="257" type="curve" smooth="yes"/>
      <point x="126" y="246"/>
      <point x="113" y="237"/>
      <point x="95" y="243" type="curve" smooth="yes"/>
      <point x="71" y="251"/>
      <point x="56" y="266"/>
      <point x="52" y="292" type="curve" smooth="yes"/>
      <point x="45" y="336"/>
      <point x="59" y="373"/>
      <point x="90" y="404" type="curve"/>
      <point x="147" y="464"/>
      <point x="204" y="525"/>
      <point x="263" y="584" type="curve" smooth="yes"/>
      <point x="279" y="600"/>
      <point x="297" y="613"/>
      <point x="315" y="625" type="curve" smooth="yes"/>
      <point x="333" y="637"/>
      <point x="356" y="637"/>
      <point x="373" y="624" type="curve" smooth="yes"/>
      <point x="396" y="608"/>
      <point x="418" y="590"/>
      <point x="436" y="569" type="curve" smooth="yes"/>
      <point x="501" y="495"/>
      <point x="564" y="419"/>
      <point x="628" y="345" type="curve" smooth="yes"/>
      <point x="651" y="319"/>
      <point x="674" y="295"/>
      <point x="697" y="269" type="curve" smooth="yes"/>
      <point x="731" y="231"/>
      <point x="742" y="183"/>
      <point x="710" y="136" type="curve" smooth="yes"/>
      <point x="706" y="130"/>
      <point x="698" y="127"/>
      <point x="691" y="125" type="curve" smooth="yes"/>
      <point x="684" y="123"/>
      <point x="677" y="125"/>
    </contour>
    <contour>
      <point x="399" y="281" type="curve"/>
      <point x="350" y="283"/>
      <point x="312" y="265"/>
      <point x="286" y="223" type="curve" smooth="yes"/>
      <point x="274" y="204"/>
      <point x="263" y="205"/>
      <point x="252" y="224" type="curve"/>
      <point x="242" y="242"/>
      <point x="233" y="260"/>
      <point x="224" y="278" type="curve"/>
      <point x="214" y="300"/>
      <point x="225" y="323"/>
      <point x="250" y="326" type="curve" smooth="yes"/>
      <point x="302" y="333"/>
      <point x="355" y="337"/>
      <point x="408" y="328" type="curve"/>
      <point x="418" y="327"/>
      <point x="426" y="324"/>
      <point x="434" y="319" type="curve"/>
      <point x="447" y="312"/>
      <point x="446" y="299"/>
      <point x="433" y="293" type="curve" smooth="yes"/>
      <point x="422" y="288"/>
      <point x="410" y="285"/>
    </contour>
    <contour>
      <point x="376" y="216" type="curve" smooth="yes"/>
      <point x="387" y="216"/>
      <point x="400" y="203"/>
      <point x="413" y="190" type="curve" smooth="yes"/>
      <point x="421" y="181"/>
      <point x="415" y="168"/>
      <point x="403" y="166" type="curve" smooth="yes"/>
      <point x="380" y="162"/>
      <point x="377" y="159"/>
      <point x="377" y="135" type="curve" smooth="yes"/>
      <point x="377" y="123"/>
      <point x="379" y="110"/>
      <point x="383" y="98" type="curve" smooth="yes"/>
      <point x="389" y="83"/>
      <point x="399" y="79"/>
      <point x="414" y="86" type="curve" smooth="yes"/>
      <point x="428" y="92"/>
      <point x="445" y="91"/>
      <point x="458" y="83" type="curve" smooth="yes"/>
      <point x="471" y="74"/>
      <point x="476" y="60"/>
      <point x="470" y="46" type="curve" smooth="yes"/>
      <point x="460" y="20"/>
      <point x="417" y="-3"/>
      <point x="389" y="0" type="curve" smooth="yes"/>
      <point x="341" y="4"/>
      <point x="310" y="32"/>
      <point x="292" y="73" type="curve" smooth="yes"/>
      <point x="278" y="104"/>
      <point x="284" y="137"/>
      <point x="296" y="168" type="curve"/>
      <point x="305" y="193"/>
      <point x="340" y="217"/>
    </contour>
  </outline>
</glyph>
<glyph name="c" format="2">
  <advance width="611"/>
  <unicode hex="0063"/>
  <outline>
    <contour>
      <point x="179" y="119" type="curve" smooth="yes"/>
      <point x="194" y="150"/>
      <point x="212" y="180"/>
      <point x="227" y="211" type="curve" smooth="yes"/>
      <point x="238" y="235"/>
      <point x="232" y="255"/>
      <point x="210" y="270" type="curve" smooth="yes"/>
      <point x="149" y="311"/>
      <point x="110" y="370"/>
      <point x="78" y="434" type="curve" smooth="yes"/>
      <point x="70" y="450"/>
      <point x="68" y="470"/>
      <point x="66" y="489" type="curve" smooth="yes"/>
      <point x="64" y="505"/>
      <point x="66" y="520"/>
      <point x="66" y="536" type="curve" smooth="yes"/>
      <point x="66" y="583"/>
      <point x="85" y="603"/>
      <point x="131" y="608" type="curve" smooth="yes"/>
      <point x="171" y="612"/>
      <point x="202" y="597"/>
      <point x="225" y="564" type="curve" smooth="yes"/>
      <point x="243" y="538"/>
      <point x="261" y="513"/>
      <point x="277" y="486" type="curve" smooth="yes"/>
      <point x="312" y="428"/>
      <point x="361" y="386"/>
      <point x="416" y="348" type="curve" smooth="yes"/>
      <point x="447" y="326"/>
      <point x="478" y="303"/>
      <point x="507" y="277" type="curve" smooth="yes"/>
      <point x="538" y="251"/>
      <point x="535" y="234"/>
      <point x="499" y="218" type="curve" smooth="yes"/>
      <point x="471" y="205"/>
      <point x="442" y="195"/>
      <point x="412" y="186" type="curve" smooth="yes"/>
      <point x="365" y="172"/>
      <point x="328" y="141"/>
      <point x="291" y="109" type="curve" smooth="yes"/>
      <point x="266" y="87"/>
      <point x="240" y="67"/>
      <point x="214" y="46" type="curve" smooth="yes"/>
      <point x="205" y="39"/>
      <point x="196" y="34"/>
      <point x="185" y="40" type="curve" smooth="yes"/>
      <point x="173" y="47"/>
      <point x="168" y="57"/>
      <point x="168" y="70" type="curve" smooth="yes"/>
      <point x="168" y="73"/>
      <point x="168" y="76"/>
      <point x="168" y="79" type="curve" smooth="yes"/>
      <point x="168" y="100"/>
      <point x="176" y="113"/>
    </contour>
  </outline>
</glyph>
<glyph name="f" format="2">
  <advance width="801"/>
  <unicode hex="0066"/>
  <outline>
    <contour>
      <point x="136.574" y="346.065" type="curve" smooth="yes"/>
      <point x="92.5926" y="347.222"/>
      <point x="77.5463" y="368.056"/>
      <point x="59.0278" y="403.935" type="curve" smooth="yes"/>
      <point x="48.6111" y="425.926"/>
      <point x="62.5" y="449.074"/>
      <point x="89.1204" y="461.806" type="curve" smooth="yes"/>
      <point x="121.528" y="478.009"/>
      <point x="155.093" y="481.481"/>
      <point x="189.815" y="481.481" type="curve" smooth="yes"/>
      <point x="226.852" y="482.639"/>
      <point x="263.889" y="481.481"/>
      <point x="302.083" y="482.639" type="curve" smooth="yes"/>
      <point x="318.287" y="482.639"/>
      <point x="334.491" y="483.796"/>
      <point x="350.694" y="486.111" type="curve" smooth="yes"/>
      <point x="365.741" y="488.426"/>
      <point x="378.472" y="495.37"/>
      <point x="378.472" y="512.731" type="curve" smooth="yes"/>
      <point x="378.472" y="519.676" type="line" smooth="yes"/>
      <point x="378.472" y="578.704"/>
      <point x="378.472" y="569.444"/>
      <point x="335.648" y="570.602" type="curve" smooth="yes"/>
      <point x="309.028" y="571.759"/>
      <point x="281.25" y="574.074"/>
      <point x="254.63" y="576.389" type="curve" smooth="yes"/>
      <point x="229.167" y="578.704"/>
      <point x="204.861" y="607.639"/>
      <point x="200.231" y="638.889" type="curve" smooth="yes"/>
      <point x="196.759" y="667.824"/>
      <point x="209.491" y="684.028"/>
      <point x="237.269" y="696.759" type="curve" smooth="yes"/>
      <point x="284.722" y="717.593"/>
      <point x="333.333" y="710.648"/>
      <point x="381.944" y="704.861" type="curve" smooth="yes"/>
      <point x="432.87" y="699.074"/>
      <point x="483.796" y="692.13"/>
      <point x="533.565" y="685.185" type="curve" smooth="yes"/>
      <point x="552.083" y="682.87"/>
      <point x="571.759" y="664.352"/>
      <point x="577.546" y="644.676" type="curve" smooth="yes"/>
      <point x="582.176" y="626.157"/>
      <point x="576.389" y="612.269"/>
      <point x="559.028" y="598.38" type="curve" smooth="yes"/>
      <point x="541.667" y="584.491"/>
      <point x="524.306" y="571.759"/>
      <point x="502.315" y="569.444" type="curve" smooth="yes"/>
      <point x="496.528" y="568.287"/>
      <point x="489.583" y="560.185"/>
      <point x="489.583" y="554.398" type="curve" smooth="yes"/>
      <point x="488.426" y="539.352"/>
      <point x="489.583" y="524.306"/>
      <point x="491.898" y="509.259" type="curve" smooth="yes"/>
      <point x="494.213" y="494.213"/>
      <point x="505.787" y="488.426"/>
      <point x="519.676" y="486.111" type="curve" smooth="yes"/>
      <point x="539.352" y="483.796"/>
      <point x="560.185" y="482.639"/>
      <point x="579.861" y="482.639" type="curve" smooth="yes"/>
      <point x="667.824" y="482.639" type="line" smooth="yes"/>
      <point x="703.704" y="482.639"/>
      <point x="728.009" y="447.917"/>
      <point x="708.333" y="409.722" type="curve" smooth="yes"/>
      <point x="704.861" y="402.778"/>
      <point x="697.917" y="399.306"/>
      <point x="690.972" y="399.306" type="curve" smooth="yes"/>
      <point x="664.352" y="399.306"/>
      <point x="640.046" y="393.519"/>
      <point x="615.741" y="385.417" type="curve" smooth="yes"/>
      <point x="589.12" y="377.315"/>
      <point x="560.185" y="375"/>
      <point x="531.25" y="370.37" type="curve" smooth="yes"/>
      <point x="523.148" y="369.213"/>
      <point x="513.889" y="368.056"/>
      <point x="504.63" y="365.741" type="curve" smooth="yes"/>
      <point x="491.898" y="363.426"/>
      <point x="483.796" y="355.324"/>
      <point x="483.796" y="341.435" type="curve" smooth="yes"/>
      <point x="481.481" y="285.88"/>
      <point x="479.167" y="230.324"/>
      <point x="476.852" y="174.769" type="curve" smooth="yes"/>
      <point x="475.694" y="150.463"/>
      <point x="468.75" y="128.472"/>
      <point x="446.759" y="113.426" type="curve" smooth="yes"/>
      <point x="429.398" y="101.852"/>
      <point x="408.565" y="107.639"/>
      <point x="401.62" y="126.157" type="curve" smooth="yes"/>
      <point x="395.833" y="141.204"/>
      <point x="391.204" y="156.25"/>
      <point x="390.046" y="171.296" type="curve" smooth="yes"/>
      <point x="387.731" y="221.065"/>
      <point x="387.731" y="270.833"/>
      <point x="386.574" y="319.444" type="curve" smooth="yes"/>
      <point x="386.574" y="340.278"/>
      <point x="380.787" y="347.222"/>
      <point x="361.111" y="347.222" type="curve" smooth="yes"/>
      <point x="287.037" y="348.38"/>
      <point x="210.648" y="342.593"/>
    </contour>
    <contour>
      <point x="236.111" y="273.148" type="curve" smooth="yes"/>
      <point x="252.315" y="273.148"/>
      <point x="270.833" y="266.204"/>
      <point x="288.194" y="258.102" type="curve" smooth="yes"/>
      <point x="309.028" y="247.685"/>
      <point x="315.972" y="228.009"/>
      <point x="309.028" y="206.019" type="curve" smooth="yes"/>
      <point x="298.611" y="171.296"/>
      <point x="268.519" y="137.731"/>
      <point x="232.639" y="138.889" type="curve" smooth="yes"/>
      <point x="190.972" y="141.204"/>
      <point x="160.88" y="171.296"/>
      <point x="160.88" y="209.491" type="curve" smooth="yes"/>
      <point x="160.88" y="234.954"/>
      <point x="164.352" y="255.787"/>
      <point x="189.815" y="266.204" type="curve" smooth="yes"/>
      <point x="202.546" y="271.991"/>
      <point x="216.435" y="274.306"/>
    </contour>
    <contour>
      <point x="579.861" y="-32.4074" type="curve" smooth="yes"/>
      <point x="553.241" y="-33.5648"/>
      <point x="534.722" y="-20.8333"/>
      <point x="528.935" y="-1.15741" type="curve" smooth="yes"/>
      <point x="526.62" y="5.78704"/>
      <point x="527.778" y="13.8889"/>
      <point x="532.407" y="19.6759" type="curve" smooth="yes"/>
      <point x="539.352" y="27.7778"/>
      <point x="549.769" y="33.5648"/>
      <point x="559.028" y="41.6667" type="curve" smooth="yes"/>
      <point x="579.861" y="57.8704"/>
      <point x="599.537" y="72.9167"/>
      <point x="619.213" y="90.2778" type="curve" smooth="yes"/>
      <point x="636.574" y="105.324"/>
      <point x="638.889" y="123.843"/>
      <point x="629.63" y="144.676" type="curve" smooth="yes"/>
      <point x="621.528" y="162.037"/>
      <point x="605.324" y="167.824"/>
      <point x="589.12" y="170.139" type="curve" smooth="yes"/>
      <point x="570.602" y="173.611"/>
      <point x="555.556" y="177.083"/>
      <point x="542.824" y="193.287" type="curve" smooth="yes"/>
      <point x="535.88" y="201.389"/>
      <point x="534.722" y="212.963"/>
      <point x="537.037" y="223.38" type="curve" smooth="yes"/>
      <point x="546.296" y="255.787"/>
      <point x="576.389" y="273.148"/>
      <point x="607.639" y="261.574" type="curve" smooth="yes"/>
      <point x="645.833" y="246.528"/>
      <point x="678.241" y="219.907"/>
      <point x="702.546" y="186.343" type="curve" smooth="yes"/>
      <point x="709.491" y="175.926"/>
      <point x="709.491" y="160.88"/>
      <point x="711.806" y="146.991" type="curve" smooth="yes"/>
      <point x="719.907" y="84.4907"/>
      <point x="694.444" y="35.8796"/>
      <point x="648.148" y="-3.47222" type="curve" smooth="yes"/>
      <point x="629.63" y="-19.6759"/>
      <point x="605.324" y="-31.25"/>
    </contour>
  </outline>
  <guideline angle="0" x="0" y="709.491"/>
</glyph>
<glyph name="h" format="2">
  <advance width="1031"/>
  <unicode hex="0068"/>
  <outline>
    <contour>
      <point x="92.3733" y="381.366" type="curve" smooth="yes"/>
      <point x="114.491" y="476.007"/>
      <point x="146.926" y="566.896"/>
      <point x="218.265" y="637.543" type="curve" smooth="yes"/>
      <point x="231.051" y="650.231"/>
      <point x="248.429" y="658.624"/>
      <point x="264.474" y="667.51" type="curve" smooth="yes"/>
      <point x="279.68" y="676.002"/>
      <point x="295.528" y="670.226"/>
      <point x="306.389" y="660.204" type="curve" smooth="yes"/>
      <point x="321.2" y="646.528"/>
      <point x="333.147" y="629.595"/>
      <point x="345.292" y="613.204" type="curve" smooth="yes"/>
      <point x="352.845" y="602.985"/>
      <point x="357.881" y="590.939"/>
      <point x="365.039" y="580.423" type="curve" smooth="yes"/>
      <point x="384.886" y="551.246"/>
      <point x="383.207" y="524.093"/>
      <point x="361.732" y="496.495" type="curve" smooth="yes"/>
      <point x="341.095" y="469.984"/>
      <point x="318.04" y="444.164"/>
      <point x="303.822" y="414.296" type="curve" smooth="yes"/>
      <point x="289.949" y="385.217"/>
      <point x="282.889" y="351.794"/>
      <point x="278.446" y="319.507" type="curve" smooth="yes"/>
      <point x="274.299" y="289.194"/>
      <point x="276.52" y="257.795"/>
      <point x="277.853" y="226.939" type="curve" smooth="yes"/>
      <point x="278.495" y="211.586"/>
      <point x="282" y="195.837"/>
      <point x="286.888" y="181.174" type="curve" smooth="yes"/>
      <point x="295.083" y="156.588"/>
      <point x="316.855" y="150.368"/>
      <point x="335.467" y="168.338" type="curve" smooth="yes"/>
      <point x="354.672" y="186.852"/>
      <point x="373.383" y="206.649"/>
      <point x="387.996" y="228.766" type="curve" smooth="yes"/>
      <point x="417.766" y="273.643"/>
      <point x="448.72" y="279.814"/>
      <point x="497.941" y="255.524" type="curve" smooth="yes"/>
      <point x="540.201" y="234.69"/>
      <point x="565.281" y="197.565"/>
      <point x="592.878" y="162.414" type="curve" smooth="yes"/>
      <point x="610.503" y="140.05"/>
      <point x="628.967" y="118.327"/>
      <point x="647.481" y="96.7034" type="curve" smooth="yes"/>
      <point x="674.535" y="65.1071"/>
      <point x="710.081" y="64.9096"/>
      <point x="745.479" y="74.7341" type="curve" smooth="yes"/>
      <point x="797.958" y="89.2487"/>
      <point x="849.45" y="107.268"/>
      <point x="901.584" y="122.869" type="curve" smooth="yes"/>
      <point x="908.397" y="124.943"/>
      <point x="920.394" y="124.35"/>
      <point x="923.652" y="120.104" type="curve" smooth="yes"/>
      <point x="927.848" y="114.624"/>
      <point x="928.49" y="103.22"/>
      <point x="925.824" y="96.1603" type="curve" smooth="yes"/>
      <point x="910.372" y="55.7763"/>
      <point x="881.54" y="27.0928"/>
      <point x="843.723" y="7.19702" type="curve" smooth="yes"/>
      <point x="792.725" y="-19.7092"/>
      <point x="737.53" y="-22.9182"/>
      <point x="682.187" y="-17.0926" type="curve" smooth="yes"/>
      <point x="646.493" y="-13.3406"/>
      <point x="616.181" y="7.19702"/>
      <point x="592.78" y="33.3627" type="curve" smooth="yes"/>
      <point x="567.305" y="61.7994"/>
      <point x="548.298" y="95.9629"/>
      <point x="522.478" y="123.955" type="curve" smooth="yes"/>
      <point x="505.643" y="142.222"/>
      <point x="473.109" y="169.079"/>
      <point x="460.569" y="167.993" type="curve" smooth="yes"/>
      <point x="456.916" y="167.647"/>
      <point x="448.424" y="165.771"/>
      <point x="444.08" y="162.118" type="curve" smooth="yes"/>
      <point x="416.532" y="138.815"/>
      <point x="401.227" y="107.367"/>
      <point x="389.477" y="74.2898" type="curve" smooth="yes"/>
      <point x="376.098" y="36.473"/>
      <point x="342.576" y="11.4922"/>
      <point x="303.229" y="5.71595" type="curve" smooth="yes"/>
      <point x="219.4" y="-6.57698"/>
      <point x="169.241" y="42.1998"/>
      <point x="128.758" y="103.121" type="curve" smooth="yes"/>
      <point x="109.06" y="132.842"/>
      <point x="97.3102" y="169.079"/>
      <point x="87.7326" y="203.983" type="curve" smooth="yes"/>
      <point x="74.551" y="252.068"/>
      <point x="82.4007" y="338.711"/>
    </contour>
    <contour>
      <point x="603.493" y="520.341" type="curve"/>
      <point x="644.864" y="515.601"/>
      <point x="687.667" y="500.346"/>
      <point x="705.193" y="447.768" type="curve" smooth="yes"/>
      <point x="713.586" y="422.688"/>
      <point x="721.871" y="397.888"/>
      <point x="725.443" y="384.752" type="curve" smooth="yes"/>
      <point x="727.482" y="377.255"/>
      <point x="728.792" y="367.296"/>
      <point x="728.94" y="364.976" type="curve" smooth="yes"/>
      <point x="730.865" y="332.392"/>
      <point x="713.833" y="319.112"/>
      <point x="683.619" y="331.454" type="curve" smooth="yes"/>
      <point x="639.748" y="349.455"/>
      <point x="588.938" y="386.055"/>
      <point x="553.58" y="416.813" type="curve" smooth="yes"/>
      <point x="541.633" y="427.23"/>
      <point x="530.574" y="442.979"/>
      <point x="527.415" y="458.086" type="curve" smooth="yes"/>
      <point x="520.503" y="491.311"/>
      <point x="554.666" y="520.834"/>
    </contour>
  </outline>
  <guideline angle="0" x="0" y="699.074"/>
</glyph>
<glyph name="i" format="2">
  <advance width="764"/>
  <unicode hex="0069"/>
  <outline>
    <contour>
      <point x="93.244" y="102.909" type="curve" smooth="yes"/>
      <point x="93.1338" y="188.472"/>
      <point x="102.338" y="253.816"/>
      <point x="113.857" y="332.907" type="curve" smooth="yes"/>
      <point x="123.227" y="396.731"/>
      <point x="131.494" y="460.721"/>
      <point x="138.935" y="524.82" type="curve" smooth="yes"/>
      <point x="139.762" y="531.875"/>
      <point x="133.313" y="541.41"/>
      <point x="127.636" y="547.363" type="curve" smooth="yes"/>
      <point x="106.362" y="569.629"/>
      <point x="83.0476" y="589.967"/>
      <point x="62.269" y="612.62" type="curve" smooth="yes"/>
      <point x="33.9946" y="643.485"/>
      <point x="35.5982" y="680.773"/>
      <point x="62.6548" y="712.049" type="curve" smooth="yes"/>
      <point x="81.2663" y="733.562"/>
      <point x="84.4256" y="726.654"/>
      <point x="99.6926" y="723.127" type="curve" smooth="yes"/>
      <point x="169.579" y="706.923"/>
      <point x="239.742" y="691.711"/>
      <point x="309.684" y="675.838" type="curve" smooth="yes"/>
      <point x="375.161" y="660.901"/>
      <point x="427.631" y="649.602"/>
      <point x="444.717" y="572.551" type="curve" smooth="yes"/>
      <point x="452.213" y="538.324"/>
      <point x="430.718" y="512.144"/>
      <point x="404.979" y="492.798" type="curve" smooth="yes"/>
      <point x="375.712" y="470.697"/>
      <point x="343.139" y="453.005"/>
      <point x="313.486" y="431.344" type="curve" smooth="yes"/>
      <point x="289.787" y="414.038"/>
      <point x="278.764" y="389.181"/>
      <point x="278.874" y="358.977" type="curve" smooth="yes"/>
      <point x="279.094" y="250.509"/>
      <point x="277.882" y="142.042"/>
      <point x="278.874" y="33.5738" type="curve" smooth="yes"/>
      <point x="279.48" y="-36.0374"/>
      <point x="226.514" y="-57.2018"/>
      <point x="174.044" y="-42.9269" type="curve" smooth="yes"/>
      <point x="156.958" y="-38.242"/>
      <point x="140.974" y="-29.1479"/>
      <point x="124.715" y="-21.6522" type="curve" smooth="yes"/>
      <point x="99.0311" y="-9.8023"/>
      <point x="93.1337" y="12.6298"/>
      <point x="93.244" y="38.2035" type="curve" smooth="yes"/>
      <point x="93.2991" y="56.998"/>
      <point x="93.279" y="75.7373"/>
    </contour>
    <contour>
      <point x="540.478" y="218.332" type="curve" smooth="yes"/>
      <point x="493.977" y="219.751"/>
      <point x="440.969" y="223.778"/>
      <point x="387.231" y="230.943" type="curve" smooth="yes"/>
      <point x="368.602" y="233.423"/>
      <point x="350.469" y="242.242"/>
      <point x="332.997" y="250.124" type="curve" smooth="yes"/>
      <point x="313.597" y="258.887"/>
      <point x="313.211" y="272.831"/>
      <point x="328.864" y="287.382" type="curve" smooth="yes"/>
      <point x="370.256" y="325.853"/>
      <point x="420.742" y="337.317"/>
      <point x="446.359" y="338.349" type="curve" smooth="yes"/>
      <point x="491.841" y="340.183"/>
      <point x="508.541" y="343.82"/>
      <point x="525.407" y="344.978" type="curve" smooth="yes"/>
      <point x="563.988" y="347.734"/>
      <point x="601.466" y="344.702"/>
      <point x="633.103" y="318.853" type="curve" smooth="yes"/>
      <point x="639.992" y="313.176"/>
      <point x="645.724" y="305.901"/>
      <point x="651.511" y="298.956" type="curve" smooth="yes"/>
      <point x="677.746" y="267.871"/>
      <point x="665.29" y="232.101"/>
      <point x="625.056" y="222.676" type="curve" smooth="yes"/>
      <point x="621.528" y="221.794"/>
      <point x="617.946" y="220.967"/>
      <point x="614.308" y="220.692" type="curve" smooth="yes"/>
      <point x="592.648" y="218.928"/>
      <point x="570.093" y="217.428"/>
    </contour>
    <contour>
      <point x="482.306" y="145.183" type="curve" smooth="yes"/>
      <point x="520.743" y="142.005"/>
      <point x="558.807" y="134.766"/>
      <point x="596.671" y="127.656" type="curve" smooth="yes"/>
      <point x="624.339" y="122.476"/>
      <point x="658.732" y="71.5486"/>
      <point x="655.866" y="43.4946" type="curve" smooth="yes"/>
      <point x="652.834" y="13.677"/>
      <point x="626.044" y="-2.08245"/>
      <point x="596.671" y="4.16644" type="curve" smooth="yes"/>
      <point x="562.054" y="11.5311"/>
      <point x="526.784" y="12.4094"/>
      <point x="496.526" y="33.7392" type="curve" smooth="yes"/>
      <point x="481.7" y="44.156"/>
      <point x="465.771" y="53.2501"/>
      <point x="452.323" y="65.2102" type="curve" smooth="yes"/>
      <point x="443.78" y="72.8162"/>
      <point x="436.725" y="83.8945"/>
      <point x="432.977" y="94.7523" type="curve" smooth="yes"/>
      <point x="424.049" y="120.657"/>
      <point x="439.736" y="140.395"/>
      <point x="467.094" y="144.532" type="curve" smooth="yes"/>
      <point x="471.84" y="145.25"/>
      <point x="476.716" y="145.645"/>
    </contour>
  </outline>
  <guideline angle="0" x="0" y="700.231"/>
  <guideline angle="0" x="0" y="-5.78704"/>
</glyph>
<glyph name="j" format="2">
  <advance width="733"/>
  <unicode hex="006A"/>
  <outline>
    <contour>
      <point x="355.211" y="110.152" type="curve" smooth="yes"/>
      <point x="355.211" y="79.3636"/>
      <point x="355.736" y="48.5755"/>
      <point x="354.912" y="17.8624" type="curve" smooth="yes"/>
      <point x="354.687" y="8.12409"/>
      <point x="351.615" y="-1.76404"/>
      <point x="348.769" y="-11.2776" type="curve" smooth="yes"/>
      <point x="346.297" y="-19.5926"/>
      <point x="344.349" y="-28.432"/>
      <point x="331.839" y="-28.8815" type="curve" smooth="yes"/>
      <point x="318.73" y="-29.331"/>
      <point x="313.411" y="-21.5403"/>
      <point x="310.565" y="-11.6522" type="curve" smooth="yes"/>
      <point x="301.426" y="20.2595"/>
      <point x="294.384" y="52.8454"/>
      <point x="283.897" y="84.2327" type="curve" smooth="yes"/>
      <point x="277.529" y="103.485"/>
      <point x="267.042" y="121.463"/>
      <point x="257.229" y="139.367" type="curve" smooth="yes"/>
      <point x="252.21" y="148.58"/>
      <point x="245.018" y="146.633"/>
      <point x="235.655" y="142.213" type="curve" smooth="yes"/>
      <point x="213.032" y="131.351"/>
      <point x="189.96" y="120.04"/>
      <point x="165.838" y="114.197" type="curve" smooth="yes"/>
      <point x="134.226" y="106.481"/>
      <point x="74.8976" y="140.94"/>
      <point x="64.1106" y="172.102" type="curve" smooth="yes"/>
      <point x="52.7992" y="204.913"/>
      <point x="63.3615" y="241.394"/>
      <point x="108.832" y="237.049" type="curve" smooth="yes"/>
      <point x="137.148" y="234.278"/>
      <point x="165.988" y="235.326"/>
      <point x="194.529" y="236.15" type="curve" smooth="yes"/>
      <point x="213.931" y="236.75"/>
      <point x="220.523" y="243.492"/>
      <point x="217.751" y="261.994" type="curve" smooth="yes"/>
      <point x="212.433" y="297.427"/>
      <point x="207.264" y="333.234"/>
      <point x="197.451" y="367.543" type="curve" smooth="yes"/>
      <point x="187.038" y="403.949"/>
      <point x="169.734" y="438.333"/>
      <point x="158.572" y="474.589" type="curve" smooth="yes"/>
      <point x="152.13" y="495.489"/>
      <point x="150.332" y="518.187"/>
      <point x="149.733" y="540.21" type="curve" smooth="yes"/>
      <point x="149.508" y="548.6"/>
      <point x="157.074" y="558.563"/>
      <point x="163.516" y="565.53" type="curve" smooth="yes"/>
      <point x="180.521" y="583.808"/>
      <point x="197.75" y="601.187"/>
      <point x="226.516" y="600.139" type="curve" smooth="yes"/>
      <point x="246.142" y="599.389"/>
      <point x="260.6" y="592.648"/>
      <point x="273.035" y="577.74" type="curve" smooth="yes"/>
      <point x="289.89" y="557.44"/>
      <point x="307.493" y="537.664"/>
      <point x="325.622" y="518.412" type="curve" smooth="yes"/>
      <point x="339.93" y="503.205"/>
      <point x="342.926" y="487.249"/>
      <point x="339.63" y="466.349" type="curve" smooth="yes"/>
      <point x="331.54" y="415.036"/>
      <point x="327.42" y="363.123"/>
      <point x="335.51" y="311.285" type="curve" smooth="yes"/>
      <point x="339.48" y="285.741"/>
      <point x="348.695" y="282.887"/>
      <point x="374.089" y="284.767" type="curve" smooth="yes"/>
      <point x="423.637" y="288.435"/>
      <point x="435.66" y="296.019"/>
      <point x="504.507" y="326.492" type="curve" smooth="yes"/>
      <point x="523.629" y="334.956"/>
      <point x="544.509" y="340.201"/>
      <point x="565.184" y="343.871" type="curve" smooth="yes"/>
      <point x="605.261" y="350.988"/>
      <point x="645.638" y="307.54"/>
      <point x="644.214" y="262.144" type="curve" smooth="yes"/>
      <point x="643.315" y="233.154"/>
      <point x="628.153" y="223.06"/>
      <point x="607.199" y="222.179" type="curve" smooth="yes"/>
      <point x="585.187" y="221.254"/>
      <point x="554.869" y="207.692"/>
      <point x="529.602" y="201.093" type="curve" smooth="yes"/>
      <point x="519.112" y="198.353"/>
      <point x="503.845" y="197.688"/>
      <point x="500.592" y="202.499" type="curve" smooth="yes"/>
      <point x="496.716" y="208.23"/>
      <point x="503.009" y="223.116"/>
      <point x="508.852" y="231.506" type="curve" smooth="yes"/>
      <point x="517.841" y="244.466"/>
      <point x="525.332" y="256.901"/>
      <point x="523.609" y="273.68" type="curve" smooth="yes"/>
      <point x="522.485" y="284.992"/>
      <point x="516.642" y="290.236"/>
      <point x="507.054" y="286.64" type="curve" smooth="yes"/>
      <point x="475.517" y="274.879"/>
      <point x="444.279" y="262.144"/>
      <point x="413.266" y="249.11" type="curve" smooth="yes"/>
      <point x="398.284" y="242.818"/>
      <point x="384.426" y="233.678"/>
      <point x="369.294" y="227.985" type="curve" smooth="yes"/>
      <point x="358.657" y="223.94"/>
      <point x="354.088" y="218.921"/>
      <point x="354.312" y="207.385" type="curve" smooth="yes"/>
      <point x="354.912" y="175.024"/>
      <point x="355.211" y="142.513"/>
    </contour>
  </outline>
  <guideline angle="0" x="0" y="600.2"/>
  <guideline angle="0" x="0" y="-28.9"/>
</glyph>
<glyph name="k" format="2">
  <advance width="755"/>
  <unicode hex="006B"/>
  <outline>
    <contour>
      <point x="493.329" y="209.877" type="curve"/>
      <point x="501.374" y="242.526"/>
      <point x="509.606" y="272.743"/>
      <point x="515.921" y="303.333" type="curve" smooth="yes"/>
      <point x="518.213" y="314.559"/>
      <point x="517.371" y="327.002"/>
      <point x="515.266" y="338.415" type="curve" smooth="yes"/>
      <point x="511.992" y="356.517"/>
      <point x="499.269" y="366.76"/>
      <point x="480.933" y="367.696" type="curve" smooth="yes"/>
      <point x="445.478" y="369.567"/>
      <point x="413.063" y="358.06"/>
      <point x="381.49" y="343.747" type="curve" smooth="yes"/>
      <point x="377.701" y="342.063"/>
      <point x="373.585" y="337.76"/>
      <point x="372.602" y="333.924" type="curve" smooth="yes"/>
      <point x="360.581" y="287.757"/>
      <point x="349.075" y="241.403"/>
      <point x="337.474" y="195.143" type="curve" smooth="yes"/>
      <point x="334.481" y="183.168"/>
      <point x="339.299" y="174.468"/>
      <point x="350.291" y="170.305" type="curve" smooth="yes"/>
      <point x="395.803" y="153.186"/>
      <point x="440.987" y="134.803"/>
      <point x="487.342" y="120.35" type="curve" smooth="yes"/>
      <point x="520.552" y="110.012"/>
      <point x="556.101" y="107.299"/>
      <point x="589.451" y="97.383" type="curve" smooth="yes"/>
      <point x="619.013" y="88.6361"/>
      <point x="647.078" y="74.6971"/>
      <point x="665.648" y="47.8951" type="curve" smooth="yes"/>
      <point x="676.219" y="32.5996"/>
      <point x="675.33" y="23.7124"/>
      <point x="658.257" y="17.8655" type="curve" smooth="yes"/>
      <point x="636.133" y="10.3347"/>
      <point x="612.792" y="5.28302"/>
      <point x="589.545" y="2.3362" type="curve" smooth="yes"/>
      <point x="545.763" y="-3.23003"/>
      <point x="504.742" y="9.2589"/>
      <point x="465.591" y="27.4544" type="curve" smooth="yes"/>
      <point x="421.295" y="48.0354"/>
      <point x="377.514" y="69.7858"/>
      <point x="333.592" y="91.1152" type="curve" smooth="yes"/>
      <point x="313.947" y="100.657"/>
      <point x="306.79" y="100.33"/>
      <point x="290.886" y="84.5667" type="curve" smooth="yes"/>
      <point x="274.141" y="67.868"/>
      <point x="259.22" y="49.3451"/>
      <point x="242.334" y="32.7399" type="curve" smooth="yes"/>
      <point x="209.685" y="0.511971"/>
      <point x="155.613" y="-1.4058"/>
      <point x="123.666" y="31.1496" type="curve" smooth="yes"/>
      <point x="108.23" y="46.866"/>
      <point x="98.267" y="68.289"/>
      <point x="87.0878" y="87.7941" type="curve" smooth="yes"/>
      <point x="81.2877" y="97.8975"/>
      <point x="78.7619" y="109.778"/>
      <point x="73.8037" y="120.49" type="curve" smooth="yes"/>
      <point x="61.5487" y="147.058"/>
      <point x="71.5117" y="171.615"/>
      <point x="86.1991" y="191.448" type="curve" smooth="yes"/>
      <point x="99.3896" y="209.316"/>
      <point x="121" y="222.038"/>
      <point x="144.808" y="221.524" type="curve" smooth="yes"/>
      <point x="171.283" y="220.963"/>
      <point x="197.664" y="216.472"/>
      <point x="224.045" y="213.479" type="curve" smooth="yes"/>
      <point x="230.173" y="212.824"/>
      <point x="236.207" y="211.233"/>
      <point x="242.24" y="210.017" type="curve" smooth="yes"/>
      <point x="255.197" y="207.398"/>
      <point x="265.628" y="211.748"/>
      <point x="269.464" y="224.237" type="curve" smooth="yes"/>
      <point x="275.778" y="244.771"/>
      <point x="281.344" y="265.679"/>
      <point x="285.133" y="286.822" type="curve" smooth="yes"/>
      <point x="288.033" y="303.146"/>
      <point x="278.912" y="315.027"/>
      <point x="263.336" y="319.705" type="curve" smooth="yes"/>
      <point x="247.62" y="324.382"/>
      <point x="231.248" y="326.908"/>
      <point x="215.158" y="330.416" type="curve" smooth="yes"/>
      <point x="184.894" y="336.965"/>
      <point x="158.233" y="350.249"/>
      <point x="135.874" y="372.093" type="curve" smooth="yes"/>
      <point x="109.353" y="397.959"/>
      <point x="123.245" y="449.225"/>
      <point x="155.473" y="461.76" type="curve" smooth="yes"/>
      <point x="167.634" y="466.485"/>
      <point x="183.491" y="462.415"/>
      <point x="197.57" y="461.199" type="curve" smooth="yes"/>
      <point x="221.94" y="459.188"/>
      <point x="246.263" y="454.229"/>
      <point x="270.539" y="454.323" type="curve" smooth="yes"/>
      <point x="288.361" y="454.417"/>
      <point x="292.617" y="462.696"/>
      <point x="292.056" y="480.938" type="curve" smooth="yes"/>
      <point x="290.793" y="520.977"/>
      <point x="289.296" y="561.017"/>
      <point x="288.361" y="601.056" type="curve" smooth="yes"/>
      <point x="287.846" y="622.479"/>
      <point x="299.4" y="637.634"/>
      <point x="315.63" y="650.076" type="curve" smooth="yes"/>
      <point x="326.576" y="658.496"/>
      <point x="335.978" y="658.075"/>
      <point x="344.958" y="646.943" type="curve" smooth="yes"/>
      <point x="360.862" y="627.344"/>
      <point x="366.989" y="604.003"/>
      <point x="369.094" y="579.727" type="curve" smooth="yes"/>
      <point x="371.854" y="546.938"/>
      <point x="373.585" y="513.961"/>
      <point x="374.52" y="481.032" type="curve" smooth="yes"/>
      <point x="374.894" y="467.139"/>
      <point x="380.924" y="463.003"/>
      <point x="393.417" y="463.491" type="curve" smooth="yes"/>
      <point x="425.942" y="464.761"/>
      <point x="461.013" y="468.777"/>
      <point x="492.393" y="477.804" type="curve" smooth="yes"/>
      <point x="528.261" y="488.123"/>
      <point x="565.456" y="483.885"/>
      <point x="601.285" y="474.764" type="curve" smooth="yes"/>
      <point x="651.662" y="461.947"/>
      <point x="677.388" y="413.395"/>
      <point x="655.591" y="366.48" type="curve" smooth="yes"/>
      <point x="628.415" y="308.058"/>
      <point x="590.059" y="257.073"/>
      <point x="537.718" y="217.969" type="curve" smooth="yes"/>
      <point x="524.808" y="208.333"/>
      <point x="510.261" y="205.34"/>
    </contour>
    <contour>
      <point x="177.878" y="155.758" type="curve" smooth="yes"/>
      <point x="161.354" y="157.918"/>
      <point x="153.321" y="145.795"/>
      <point x="146.539" y="134.242" type="curve" smooth="yes"/>
      <point x="139.616" y="122.408"/>
      <point x="136.763" y="109.311"/>
      <point x="144.153" y="96.2136" type="curve" smooth="yes"/>
      <point x="157.25" y="73.2003"/>
      <point x="171.984" y="71.189"/>
      <point x="189.759" y="91.0216" type="curve" smooth="yes"/>
      <point x="197.149" y="99.254"/>
      <point x="203.09" y="109.124"/>
      <point x="208.329" y="119.04" type="curve" smooth="yes"/>
      <point x="218.058" y="137.563"/>
      <point x="215.251" y="144.205"/>
      <point x="195.653" y="151.127" type="curve" smooth="yes"/>
      <point x="189.899" y="153.186"/>
      <point x="183.964" y="154.963"/>
    </contour>
    <contour>
      <point x="700.364" y="68.8977" type="curve" smooth="yes"/>
      <point x="697.787" y="71.6803"/>
      <point x="696.552" y="76.7602"/>
      <point x="694.18" y="80.965" type="curve" smooth="yes"/>
      <point x="693.071" y="82.9332"/>
      <point x="699.464" y="91.2574"/>
      <point x="703.194" y="91.4989" type="curve" smooth="yes"/>
      <point x="706.713" y="91.7268"/>
      <point x="712.469" y="85.2683"/>
      <point x="712.376" y="82.2747" type="curve" smooth="yes"/>
      <point x="712.189" y="77.3165"/>
      <point x="709.148" y="71.9936"/>
      <point x="706.81" y="69.1939" type="curve" smooth="yes"/>
      <point x="704.949" y="66.9643"/>
      <point x="702.093" y="67.0314"/>
    </contour>
  </outline>
  <guideline angle="0" x="0" y="655"/>
  <guideline angle="0" x="0" y="1"/>
</glyph>
<glyph name="l" format="2">
  <advance width="641"/>
  <unicode hex="006C"/>
  <outline>
    <contour>
      <point x="401.279" y="238.809" type="curve" smooth="yes"/>
      <point x="400.848" y="265.823"/>
      <point x="396.916" y="295.572"/>
      <point x="393.517" y="325.286" type="curve" smooth="yes"/>
      <point x="390.991" y="347.284"/>
      <point x="368.626" y="365.378"/>
      <point x="346.628" y="363.403" type="curve" smooth="yes"/>
      <point x="324.033" y="361.429"/>
      <point x="301.621" y="357.525"/>
      <point x="279.026" y="354.953" type="curve" smooth="yes"/>
      <point x="239.577" y="350.498"/>
      <point x="184.834" y="383.243"/>
      <point x="165.316" y="425.081" type="curve" smooth="yes"/>
      <point x="160.494" y="435.414"/>
      <point x="162.239" y="449.421"/>
      <point x="162.928" y="461.591" type="curve" smooth="yes"/>
      <point x="164.352" y="486.758"/>
      <point x="176.292" y="508.159"/>
      <point x="192.136" y="526.804" type="curve" smooth="yes"/>
      <point x="211.057" y="548.94"/>
      <point x="243.618" y="552.706"/>
      <point x="270.163" y="539.663" type="curve" smooth="yes"/>
      <point x="302.127" y="523.911"/>
      <point x="334.641" y="524.279"/>
      <point x="367.019" y="539.572" type="curve" smooth="yes"/>
      <point x="418.225" y="563.774"/>
      <point x="469.202" y="588.482"/>
      <point x="520.959" y="611.49" type="curve" smooth="yes"/>
      <point x="544.656" y="622.007"/>
      <point x="567.94" y="608.046"/>
      <point x="573.314" y="582.006" type="curve" smooth="yes"/>
      <point x="576.85" y="564.968"/>
      <point x="572.395" y="549.17"/>
      <point x="566.195" y="532.591" type="curve" smooth="yes"/>
      <point x="550.673" y="491.167"/>
      <point x="516.137" y="465.127"/>
      <point x="489.822" y="432.429" type="curve" smooth="yes"/>
      <point x="484.678" y="425.999"/>
      <point x="480.499" y="418.789"/>
      <point x="475.585" y="412.176" type="curve" smooth="yes"/>
      <point x="457.537" y="388.065"/>
      <point x="465.574" y="363.174"/>
      <point x="473.519" y="338.512" type="curve" smooth="yes"/>
      <point x="482.52" y="310.681"/>
      <point x="492.623" y="283.126"/>
      <point x="501.579" y="255.25" type="curve" smooth="yes"/>
      <point x="510.718" y="226.868"/>
      <point x="519.903" y="198.441"/>
      <point x="527.572" y="169.6" type="curve" smooth="yes"/>
      <point x="535.977" y="137.82"/>
      <point x="532.349" y="106.728"/>
      <point x="514.208" y="78.9438" type="curve" smooth="yes"/>
      <point x="490.373" y="42.4794"/>
      <point x="463.14" y="8.86228"/>
      <point x="424.93" y="-14.1002" type="curve" smooth="yes"/>
      <point x="370.83" y="-46.5692"/>
      <point x="301.484" y="-18.1416"/>
      <point x="284.124" y="29.253" type="curve" smooth="yes"/>
      <point x="276.225" y="50.7918"/>
      <point x="278.337" y="72.0551"/>
      <point x="284.951" y="92.905" type="curve" smooth="yes"/>
      <point x="291.426" y="113.479"/>
      <point x="308.097" y="119.909"/>
      <point x="328.442" y="121.379" type="curve" smooth="yes"/>
      <point x="362.931" y="123.858"/>
      <point x="388.833" y="144.892"/>
      <point x="396.411" y="178.831" type="curve" smooth="yes"/>
      <point x="400.544" y="197.201"/>
      <point x="401.631" y="216.663"/>
    </contour>
    <contour>
      <point x="107.496" y="611.169" type="curve" smooth="yes"/>
      <point x="136.675" y="609.844"/>
      <point x="160.54" y="590.365"/>
      <point x="160.54" y="564.647" type="curve" smooth="yes"/>
      <point x="160.54" y="539.158"/>
      <point x="136.613" y="518.354"/>
      <point x="107.221" y="518.308" type="curve" smooth="yes"/>
      <point x="76.5889" y="518.262"/>
      <point x="58.0811" y="536.541"/>
      <point x="59.0455" y="567.402" type="curve" smooth="yes"/>
      <point x="59.7803" y="590.824"/>
      <point x="74.8825" y="612.649"/>
    </contour>
  </outline>
  <guideline angle="0" x="0" y="615"/>
  <guideline angle="0" x="0" y="-28"/>
</glyph>
<glyph name="n" format="2">
  <advance width="1012"/>
  <unicode hex="006E"/>
  <outline>
    <contour>
      <point x="427.766" y="-29.9072" type="curve" smooth="yes"/>
      <point x="385.088" y="-32.0854"/>
      <point x="341.648" y="-22.8616"/>
      <point x="303.219" y="-5.33701" type="curve" smooth="yes"/>
      <point x="299.326" y="-3.56163"/>
      <point x="295.487" y="-0.962545"/>
      <point x="294.037" y="2.27907" type="curve" smooth="yes"/>
      <point x="291.478" y="7.82393"/>
      <point x="290.804" y="15.6273"/>
      <point x="293.849" y="19.2194" type="curve" smooth="yes"/>
      <point x="295.924" y="21.6683"/>
      <point x="303.261" y="21.3662"/>
      <point x="307.633" y="18.7538" type="curve" smooth="yes"/>
      <point x="360.842" y="-12.8093"/>
      <point x="415.438" y="-9.77029"/>
      <point x="470.673" y="11.716" type="curve" smooth="yes"/>
      <point x="564.136" y="47.9709"/>
      <point x="626.729" y="120.161"/>
      <point x="681.004" y="199.602" type="curve" smooth="yes"/>
      <point x="717.846" y="253.664"/>
      <point x="722.431" y="316.79"/>
      <point x="718.859" y="381.196" type="curve" smooth="yes"/>
      <point x="715.357" y="444.44"/>
      <point x="681.136" y="488.502"/>
      <point x="636.272" y="529.627" type="curve" smooth="yes"/>
      <point x="585.889" y="576.386"/>
      <point x="576.878" y="565.402"/>
      <point x="530.28" y="542.21" type="curve" smooth="yes"/>
      <point x="468.007" y="511.233"/>
      <point x="407.014" y="477.165"/>
      <point x="355.777" y="428.54" type="curve" smooth="yes"/>
      <point x="353.005" y="425.928"/>
      <point x="349.113" y="423.635"/>
      <point x="345.434" y="422.942" type="curve" smooth="yes"/>
      <point x="324.054" y="418.943"/>
      <point x="319.629" y="402.895"/>
      <point x="318.243" y="384.981" type="curve" smooth="yes"/>
      <point x="315.63" y="351.232"/>
      <point x="314.084" y="317.43"/>
      <point x="310.938" y="283.787" type="curve" smooth="yes"/>
      <point x="305.767" y="228.712"/>
      <point x="280.815" y="187.286"/>
      <point x="227.179" y="166.652" type="curve" smooth="yes"/>
      <point x="212.304" y="160.894"/>
      <point x="197.375" y="155.189"/>
      <point x="182.82" y="148.685" type="curve" smooth="yes"/>
      <point x="151.044" y="134.449"/>
      <point x="108.711" y="166.812"/>
      <point x="107.591" y="201.734" type="curve" smooth="yes"/>
      <point x="106.258" y="242.894"/>
      <point x="125.559" y="275.47"/>
      <point x="146.192" y="307.94" type="curve" smooth="yes"/>
      <point x="156.322" y="323.881"/>
      <point x="167.412" y="339.183"/>
      <point x="178.181" y="354.698" type="curve" smooth="yes"/>
      <point x="190.497" y="372.345"/>
      <point x="193.59" y="390.633"/>
      <point x="184.793" y="411.159" type="curve" smooth="yes"/>
      <point x="169.544" y="446.774"/>
      <point x="156.748" y="483.562"/>
      <point x="139.954" y="518.431" type="curve" smooth="yes"/>
      <point x="131.477" y="536.079"/>
      <point x="117.188" y="551.114"/>
      <point x="104.392" y="566.362" type="curve" smooth="yes"/>
      <point x="85.9448" y="588.435"/>
      <point x="67.924" y="610.454"/>
      <point x="66.6977" y="641.164" type="curve" smooth="yes"/>
      <point x="65.4714" y="674.22"/>
      <point x="100.98" y="716.926"/>
      <point x="144.166" y="711.275" type="curve" smooth="yes"/>
      <point x="187.618" y="705.623"/>
      <point x="230.591" y="695.013"/>
      <point x="273.084" y="683.977" type="curve" smooth="yes"/>
      <point x="306.193" y="675.393"/>
      <point x="314.884" y="661.211"/>
      <point x="314.19" y="626.289" type="curve" smooth="yes"/>
      <point x="313.711" y="600.484"/>
      <point x="311.578" y="574.679"/>
      <point x="311.525" y="548.874" type="curve" smooth="yes"/>
      <point x="311.525" y="541.623"/>
      <point x="313.08" y="529.193"/>
      <point x="318.722" y="527.068" type="curve" smooth="yes"/>
      <point x="323.659" y="525.209"/>
      <point x="333.651" y="531.173"/>
      <point x="339.569" y="535.332" type="curve" smooth="yes"/>
      <point x="409.306" y="585.023"/>
      <point x="472.806" y="643.084"/>
      <point x="547.395" y="686.43" type="curve" smooth="yes"/>
      <point x="583.543" y="707.436"/>
      <point x="620.331" y="710.582"/>
      <point x="659.518" y="702.584" type="curve" smooth="yes"/>
      <point x="736.499" y="686.729"/>
      <point x="744.968" y="678.732"/>
      <point x="801.712" y="621.064" type="curve" smooth="yes"/>
      <point x="859.773" y="562.203"/>
      <point x="896.721" y="490.973"/>
      <point x="910.53" y="409.08" type="curve" smooth="yes"/>
      <point x="918.687" y="360.776"/>
      <point x="919.06" y="311.458"/>
      <point x="907.757" y="263.794" type="curve" smooth="yes"/>
      <point x="902.479" y="241.614"/>
      <point x="889.203" y="220.501"/>
      <point x="875.981" y="201.361" type="curve" smooth="yes"/>
      <point x="836.154" y="143.726"/>
      <point x="791.475" y="90.6236"/>
      <point x="729.948" y="54.1022" type="curve" smooth="yes"/>
      <point x="686.602" y="28.3506"/>
      <point x="638.539" y="3.0734"/>
      <point x="588.759" y="-8.47811" type="curve" smooth="yes"/>
      <point x="529.439" y="-22.2435"/>
      <point x="485.692" y="-26.9508"/>
    </contour>
    <contour>
      <point x="554.166" y="274.51" type="line"/>
      <point x="533.639" y="276.003"/>
      <point x="514.232" y="276.91"/>
      <point x="494.932" y="278.882" type="curve" smooth="yes"/>
      <point x="452.545" y="283.254"/>
      <point x="418.423" y="330.546"/>
      <point x="436.391" y="381.249" type="curve" smooth="yes"/>
      <point x="438.15" y="386.047"/>
      <point x="443.482" y="390.206"/>
      <point x="448.014" y="393.298" type="curve" smooth="yes"/>
      <point x="487.201" y="420.063"/>
      <point x="541.423" y="405.294"/>
      <point x="563.016" y="361.469" type="curve" smooth="yes"/>
      <point x="572.08" y="343.075"/>
      <point x="579.597" y="323.774"/>
      <point x="586.422" y="304.421" type="curve" smooth="yes"/>
      <point x="595.006" y="280.002"/>
      <point x="590.58" y="274.51"/>
      <point x="565.042" y="274.51" type="curve" smooth="yes"/>
    </contour>
    <contour>
      <point x="214.596" y="227.592" type="curve"/>
      <point x="211.93" y="233.937"/>
      <point x="207.665" y="246.2"/>
      <point x="201.694" y="257.609" type="curve" smooth="yes"/>
      <point x="197.642" y="265.233"/>
      <point x="188.951" y="268.006"/>
      <point x="183.46" y="260.222" type="curve" smooth="yes"/>
      <point x="168.638" y="239.269"/>
      <point x="154.882" y="217.142"/>
      <point x="160.534" y="189.631" type="curve" smooth="yes"/>
      <point x="161.494" y="185.206"/>
      <point x="169.278" y="179.075"/>
      <point x="173.916" y="179.075" type="curve" smooth="yes"/>
      <point x="196.096" y="178.862"/>
      <point x="214.49" y="198.748"/>
    </contour>
  </outline>
  <guideline angle="0" x="0" y="711.806"/>
  <guideline angle="0" x="0" y="-34.7222"/>
</glyph>
<glyph name="o" format="2">
  <advance width="779"/>
  <unicode hex="006F"/>
  <outline>
    <contour>
      <point x="702.825" y="440.168" type="curve" smooth="yes"/>
      <point x="704.978" y="377.215"/>
      <point x="686.2" y="319.664"/>
      <point x="661.792" y="263.489" type="curve" smooth="yes"/>
      <point x="647.656" y="231.033"/>
      <point x="629.328" y="204.996"/>
      <point x="622.717" y="203.569" type="curve" smooth="yes"/>
      <point x="578.456" y="194.009"/>
      <point x="563.949" y="186.93"/>
      <point x="550.818" y="182.694" type="curve" smooth="yes"/>
      <point x="548.435" y="181.883"/>
      <point x="544.915" y="180.816"/>
      <point x="542.453" y="181.847" type="curve"/>
      <point x="525.669" y="189.259"/>
      <point x="508.671" y="194.009"/>
      <point x="490.196" y="188.677" type="curve" smooth="yes"/>
      <point x="486.822" y="187.703"/>
      <point x="483.849" y="198.172"/>
      <point x="485.272" y="200.854" type="curve" smooth="yes"/>
      <point x="496.02" y="220.603"/>
      <point x="507.297" y="240.14"/>
      <point x="519.58" y="258.883" type="curve" smooth="yes"/>
      <point x="534.405" y="281.543"/>
      <point x="551.242" y="302.616"/>
      <point x="558.442" y="329.883" type="curve" smooth="yes"/>
      <point x="569.667" y="372.239"/>
      <point x="568.079" y="415.019"/>
      <point x="563.313" y="457.535" type="curve" smooth="yes"/>
      <point x="558.419" y="502.087"/>
      <point x="483.43" y="513.394"/>
      <point x="448.633" y="518.634" type="curve" smooth="yes"/>
      <point x="413.67" y="523.899"/>
      <point x="420.681" y="513.451"/>
      <point x="418.878" y="490.837" type="curve" smooth="yes"/>
      <point x="415.651" y="450.367"/>
      <point x="415.072" y="417.37"/>
      <point x="421.049" y="379.652" type="curve" smooth="yes"/>
      <point x="424.736" y="356.377"/>
      <point x="426.078" y="331.683"/>
      <point x="434.55" y="310.028" type="curve" smooth="yes"/>
      <point x="445.351" y="282.496"/>
      <point x="429.785" y="259.147"/>
      <point x="410.936" y="243.423" type="curve" smooth="yes"/>
      <point x="405.165" y="238.605"/>
      <point x="398.176" y="235.216"/>
      <point x="392.458" y="230.345" type="curve" smooth="yes"/>
      <point x="365.615" y="207.367"/>
      <point x="336.759" y="205.778"/>
      <point x="305.151" y="219.862" type="curve" smooth="yes"/>
      <point x="292.656" y="225.474"/>
      <point x="278.731" y="229.551"/>
      <point x="265.177" y="230.663" type="curve" smooth="yes"/>
      <point x="208.737" y="235.322"/>
      <point x="162.903" y="259.252"/>
      <point x="125.194" y="298.197" type="curve" smooth="yes"/>
      <point x="85.4681" y="339.226"/>
      <point x="72.8272" y="358.617"/>
      <point x="80.3966" y="417.561" type="curve" smooth="yes"/>
      <point x="86.856" y="467.806"/>
      <point x="107.875" y="509.527"/>
      <point x="153.25" y="535.629" type="curve" smooth="yes"/>
      <point x="176.228" y="548.866"/>
      <point x="200.689" y="559.667"/>
      <point x="223.297" y="573.433" type="curve" smooth="yes"/>
      <point x="255.488" y="593.075"/>
      <point x="260.676" y="597.946"/>
      <point x="248.393" y="628.972" type="curve" smooth="yes"/>
      <point x="244.475" y="638.82"/>
      <point x="247.387" y="653.38"/>
      <point x="251.782" y="663.863" type="curve" smooth="yes"/>
      <point x="256.229" y="674.558"/>
      <point x="264.069" y="686.564"/>
      <point x="274.389" y="691.766" type="curve" smooth="yes"/>
      <point x="316.681" y="713.083"/>
      <point x="334.916" y="723.503"/>
      <point x="368.156" y="747.412" type="curve" smooth="yes"/>
      <point x="384.1" y="758.88"/>
      <point x="397.911" y="752.071"/>
      <point x="407.124" y="734.281" type="curve" smooth="yes"/>
      <point x="417.713" y="713.791"/>
      <point x="427.137" y="692.613"/>
      <point x="435.768" y="671.223" type="curve" smooth="yes"/>
      <point x="442.439" y="654.81"/>
      <point x="452.576" y="645.93"/>
      <point x="471.029" y="646.444" type="curve" smooth="yes"/>
      <point x="517.052" y="647.727"/>
      <point x="539.859" y="649.886"/>
      <point x="572.261" y="658.94" type="curve" smooth="yes"/>
      <point x="600.27" y="666.776"/>
      <point x="618.218" y="659.257"/>
      <point x="635.108" y="640.038" type="curve" smooth="yes"/>
      <point x="665.287" y="605.623"/>
      <point x="682.229" y="564.379"/>
      <point x="692.395" y="520.699" type="curve" smooth="yes"/>
      <point x="698.484" y="494.491"/>
      <point x="701.722" y="472.423"/>
    </contour>
    <contour>
      <point x="310.498" y="382.405" type="curve"/>
      <point x="308.645" y="411.26"/>
      <point x="307.957" y="433.868"/>
      <point x="305.521" y="456.37" type="curve" smooth="yes"/>
      <point x="301.974" y="489.567"/>
      <point x="284.82" y="502.326"/>
      <point x="254.747" y="489.355" type="curve" smooth="yes"/>
      <point x="235.951" y="481.201"/>
      <point x="220.014" y="465.265"/>
      <point x="204.501" y="450.969" type="curve" smooth="yes"/>
      <point x="189.994" y="437.68"/>
      <point x="185.705" y="419.096"/>
      <point x="188.194" y="399.877" type="curve" smooth="yes"/>
      <point x="193.859" y="356.461"/>
      <point x="228.538" y="323.106"/>
      <point x="272.483" y="317.917" type="curve" smooth="yes"/>
      <point x="290.75" y="315.746"/>
      <point x="301.868" y="322.153"/>
      <point x="305.786" y="340.419" type="curve" smooth="yes"/>
      <point x="309.122" y="356.144"/>
      <point x="309.492" y="372.451"/>
    </contour>
    <contour>
      <point x="431.057" y="14.3807" type="curve" smooth="yes"/>
      <point x="380.553" y="13.0655"/>
      <point x="345.972" y="31.1106"/>
      <point x="317.487" y="59.5424" type="curve" smooth="yes"/>
      <point x="304.515" y="72.4612"/>
      <point x="304.039" y="87.233"/>
      <point x="312.828" y="103.858" type="curve" smooth="yes"/>
      <point x="329.717" y="135.943"/>
      <point x="379.446" y="154.453"/>
      <point x="386.579" y="162.868" type="curve" smooth="yes"/>
      <point x="389.162" y="165.914"/>
      <point x="395.653" y="168.716"/>
      <point x="399.728" y="166.774" type="curve" smooth="yes"/>
      <point x="403.454" y="164.998"/>
      <point x="404.858" y="158.69"/>
      <point x="405.641" y="156.592" type="curve" smooth="yes"/>
      <point x="418.719" y="122.071"/>
      <point x="442.491" y="103.646"/>
      <point x="479.818" y="101.793" type="curve" smooth="yes"/>
      <point x="512.75" y="100.099"/>
      <point x="545.63" y="97.028"/>
      <point x="578.456" y="93.9571" type="curve" smooth="yes"/>
      <point x="593.969" y="92.4746"/>
      <point x="609.535" y="90.5156"/>
      <point x="624.571" y="86.7035" type="curve" smooth="yes"/>
      <point x="630.713" y="85.1681"/>
      <point x="640.032" y="78.2852"/>
      <point x="639.979" y="73.9966" type="curve" smooth="yes"/>
      <point x="639.82" y="67.4313"/>
      <point x="634.26" y="57.7423"/>
      <point x="628.383" y="55.095" type="curve" smooth="yes"/>
      <point x="610.647" y="47.1002"/>
      <point x="592.063" y="39.6349"/>
      <point x="573.055" y="35.8228" type="curve" smooth="yes"/>
      <point x="522.757" y="25.7631"/>
      <point x="472.157" y="15.451"/>
    </contour>
  </outline>
  <guideline angle="0" x="0" y="715.278"/>
  <guideline angle="0" x="0" y="-26.6204"/>
</glyph>
<glyph name="q" format="2">
  <advance width="855"/>
  <unicode hex="0071"/>
  <outline>
    <contour>
      <point x="255.147" y="388.774" type="curve"/>
      <point x="222.227" y="385.163"/>
      <point x="191.703" y="381.383"/>
      <point x="158.757" y="384.467" type="curve" smooth="yes"/>
      <point x="140.846" y="386.143"/>
      <point x="123.963" y="392.988"/>
      <point x="105.3" y="401.055" type="curve" smooth="yes"/>
      <point x="82.2137" y="411.035"/>
      <point x="68.5139" y="424.805"/>
      <point x="67.4367" y="453.761" type="curve" smooth="yes"/>
      <point x="66.2547" y="485.535"/>
      <point x="65.5467" y="494.933"/>
      <point x="66.267" y="522.309" type="curve" smooth="yes"/>
      <point x="66.4824" y="530.498"/>
      <point x="78.1251" y="541.261"/>
      <point x="97.1645" y="538.889" type="curve" smooth="yes"/>
      <point x="126.563" y="535.243"/>
      <point x="156.134" y="531.019"/>
      <point x="184.607" y="523.438" type="curve" smooth="yes"/>
      <point x="225.405" y="512.442"/>
      <point x="265.567" y="517.13"/>
      <point x="306.25" y="521.586" type="curve" smooth="yes"/>
      <point x="327.951" y="524.016"/>
      <point x="349.711" y="526.1"/>
      <point x="371.528" y="526.91" type="curve" smooth="yes"/>
      <point x="383.16" y="527.373"/>
      <point x="412.442" y="505.266"/>
      <point x="412.269" y="495.023" type="curve" smooth="yes"/>
      <point x="412.153" y="485.938"/>
      <point x="407.118" y="476.1"/>
      <point x="401.968" y="467.998" type="curve" smooth="yes"/>
      <point x="381.308" y="435.764"/>
      <point x="355.498" y="406.019"/>
      <point x="339.699" y="371.586" type="curve" smooth="yes"/>
      <point x="324.074" y="337.326"/>
      <point x="315.856" y="299.016"/>
      <point x="308.912" y="261.632" type="curve" smooth="yes"/>
      <point x="304.63" y="238.542"/>
      <point x="310.749" y="202.185"/>
      <point x="316.625" y="177.211" type="curve" smooth="yes"/>
      <point x="325.887" y="137.848"/>
      <point x="335.92" y="120.097"/>
      <point x="366.667" y="98.3798" type="curve" smooth="yes"/>
      <point x="414.807" y="64.3774"/>
      <point x="458.044" y="57.6969"/>
      <point x="510.59" y="63.4839" type="curve" smooth="yes"/>
      <point x="553.819" y="68.2872"/>
      <point x="584.722" y="92.1298"/>
      <point x="604.803" y="127.72" type="curve" smooth="yes"/>
      <point x="625.459" y="163.977"/>
      <point x="631.848" y="190.713"/>
      <point x="644.965" y="230.44" type="curve" smooth="yes"/>
      <point x="659.491" y="274.884"/>
      <point x="663.079" y="320.544"/>
      <point x="657.118" y="366.667" type="curve" smooth="yes"/>
      <point x="653.762" y="392.477"/>
      <point x="649.074" y="418.229"/>
      <point x="642.94" y="443.461" type="curve" smooth="yes"/>
      <point x="638.715" y="460.88"/>
      <point x="631.632" y="478.361"/>
      <point x="625.752" y="494.329" type="curve" smooth="yes"/>
      <point x="610.686" y="535.243"/>
      <point x="602.199" y="557.755"/>
      <point x="609.549" y="592.419" type="curve" smooth="yes"/>
      <point x="613.021" y="608.623"/>
      <point x="617.882" y="624.769"/>
      <point x="619.387" y="641.146" type="curve" smooth="yes"/>
      <point x="621.933" y="669.097"/>
      <point x="622.222" y="697.28"/>
      <point x="623.38" y="725.347" type="curve" smooth="yes"/>
      <point x="624.537" y="751.273"/>
      <point x="624.248" y="777.315"/>
      <point x="626.968" y="803.067" type="curve" smooth="yes"/>
      <point x="629.745" y="829.63"/>
      <point x="641.139" y="854.134"/>
      <point x="652.966" y="863.678" type="curve" smooth="yes"/>
      <point x="675.518" y="881.876"/>
      <point x="699.332" y="876.882"/>
      <point x="709.664" y="873.206" type="curve" smooth="yes"/>
      <point x="724.142" y="868.056"/>
      <point x="727.229" y="864.124"/>
      <point x="732.292" y="835.937" type="curve" smooth="yes"/>
      <point x="733.647" y="828.393"/>
      <point x="738.368" y="820.428"/>
      <point x="740.046" y="812.326" type="curve" smooth="yes"/>
      <point x="742.419" y="801.042"/>
      <point x="745.718" y="789.062"/>
      <point x="741.512" y="759.868" type="curve" smooth="yes"/>
      <point x="739.002" y="742.447"/>
      <point x="731.961" y="706.221"/>
      <point x="720.718" y="671.991" type="curve" smooth="yes"/>
      <point x="699.305" y="606.771"/>
      <point x="696.412" y="541.319"/>
      <point x="709.433" y="473.322" type="curve" smooth="yes"/>
      <point x="718.866" y="424.306"/>
      <point x="732.632" y="409.526"/>
      <point x="731.816" y="349.306" type="curve" smooth="yes"/>
      <point x="731.114" y="297.469"/>
      <point x="724.804" y="272.272"/>
      <point x="717.014" y="244.734" type="curve" smooth="yes"/>
      <point x="705.68" y="204.67"/>
      <point x="699.151" y="169.731"/>
      <point x="690.744" y="140.337" type="curve" smooth="yes"/>
      <point x="673.939" y="81.5753"/>
      <point x="665.484" y="46.7743"/>
      <point x="617.962" y="-7.67322" type="curve" smooth="yes"/>
      <point x="599.818" y="-28.4618"/>
      <point x="586.458" y="-35.0694"/>
      <point x="574.016" y="-40.9143" type="curve" smooth="yes"/>
      <point x="522.627" y="-64.9884"/>
      <point x="468.113" y="-78.125"/>
      <point x="411.632" y="-73.5532" type="curve" smooth="yes"/>
      <point x="363.751" y="-69.674"/>
      <point x="299.448" y="-33.5648"/>
      <point x="273.881" y="-12.5158" type="curve" smooth="yes"/>
      <point x="237.535" y="17.4071"/>
      <point x="213.368" y="44.8495"/>
      <point x="205.093" y="61.9213" type="curve" smooth="yes"/>
      <point x="189.815" y="93.4606"/>
      <point x="180.786" y="110.835"/>
      <point x="188.484" y="163.194" type="curve" smooth="yes"/>
      <point x="191.715" y="185.169"/>
      <point x="196.933" y="207.06"/>
      <point x="203.357" y="228.299" type="curve" smooth="yes"/>
      <point x="212.037" y="256.887"/>
      <point x="223.322" y="284.78"/>
      <point x="233.044" y="313.137" type="curve" smooth="yes"/>
      <point x="239.988" y="333.391"/>
      <point x="246.47" y="353.819"/>
      <point x="252.488" y="374.363" type="curve" smooth="yes"/>
      <point x="253.756" y="378.626"/>
      <point x="254.63" y="383.102"/>
    </contour>
    <contour>
      <point x="359.317" y="654.282" type="curve" smooth="yes"/>
      <point x="359.499" y="612.961"/>
      <point x="358.854" y="612.153"/>
      <point x="317.535" y="613.31" type="curve" smooth="yes"/>
      <point x="281.597" y="614.352"/>
      <point x="245.544" y="616.377"/>
      <point x="209.838" y="620.255" type="curve" smooth="yes"/>
      <point x="172.743" y="624.306"/>
      <point x="159.028" y="644.213"/>
      <point x="151.042" y="681.829" type="curve" smooth="yes"/>
      <point x="146.238" y="704.34"/>
      <point x="151.157" y="724.711"/>
      <point x="152.373" y="745.949" type="curve" smooth="yes"/>
      <point x="155.845" y="804.861"/>
      <point x="234.664" y="847.454"/>
      <point x="281.597" y="815.451" type="curve" smooth="yes"/>
      <point x="300.116" y="802.836"/>
      <point x="314.615" y="787.445"/>
      <point x="325.405" y="765.22" type="curve" smooth="yes"/>
      <point x="336.461" y="742.447"/>
      <point x="348.623" y="722.521"/>
      <point x="352.309" y="706.583" type="curve" smooth="yes"/>
      <point x="359.092" y="677.249"/>
      <point x="359.268" y="665.531"/>
    </contour>
  </outline>
  <guideline angle="0" x="0" y="810.185"/>
  <guideline angle="0" x="0" y="-33.5648"/>
</glyph>
<glyph name="r" format="2">
  <advance width="859"/>
  <unicode hex="0072"/>
  <outline>
    <contour>
      <point x="609.317" y="658.652" type="curve" smooth="yes"/>
      <point x="655.187" y="657.978"/>
      <point x="701.011" y="654.605"/>
      <point x="746.881" y="652.312" type="curve" smooth="yes"/>
      <point x="750.793" y="652.132"/>
      <point x="755.92" y="652.491"/>
      <point x="758.348" y="650.243" type="curve" smooth="yes"/>
      <point x="764.509" y="644.667"/>
      <point x="771.974" y="638.416"/>
      <point x="773.998" y="631.086" type="curve" smooth="yes"/>
      <point x="775.122" y="626.859"/>
      <point x="767.567" y="618.989"/>
      <point x="762.35" y="614.672" type="curve" smooth="yes"/>
      <point x="757.673" y="610.804"/>
      <point x="750.883" y="609.23"/>
      <point x="744.812" y="607.252" type="curve" smooth="yes"/>
      <point x="711.714" y="596.459"/>
      <point x="678.796" y="584.992"/>
      <point x="645.248" y="575.638" type="curve" smooth="yes"/>
      <point x="628.789" y="571.096"/>
      <point x="611.251" y="570.421"/>
      <point x="594.118" y="568.488" type="curve" smooth="yes"/>
      <point x="562.908" y="565.025"/>
      <point x="531.429" y="563.811"/>
      <point x="502.783" y="548.071" type="curve" smooth="yes"/>
      <point x="493.52" y="542.99"/>
      <point x="489.787" y="537.098"/>
      <point x="491.226" y="527.025" type="curve" smooth="yes"/>
      <point x="498.421" y="477.828"/>
      <point x="505.392" y="428.541"/>
      <point x="512.812" y="379.344" type="curve" smooth="yes"/>
      <point x="514.251" y="369.675"/>
      <point x="517.938" y="360.366"/>
      <point x="519.512" y="350.743" type="curve" smooth="yes"/>
      <point x="524.324" y="321.917"/>
      <point x="546.854" y="314.002"/>
      <point x="570.104" y="306.178" type="curve" smooth="yes"/>
      <point x="622.224" y="288.639"/>
      <point x="672.275" y="267.278"/>
      <point x="709.466" y="224.377" type="curve" smooth="yes"/>
      <point x="728.668" y="202.162"/>
      <point x="747.33" y="179.452"/>
      <point x="765.723" y="156.517" type="curve" smooth="yes"/>
      <point x="791.851" y="123.824"/>
      <point x="764.644" y="64.3289"/>
      <point x="722.867" y="56.1893" type="curve" smooth="yes"/>
      <point x="714.547" y="54.5254"/>
      <point x="703.35" y="59.0674"/>
      <point x="695.705" y="64.104" type="curve" smooth="yes"/>
      <point x="668.363" y="82.092"/>
      <point x="655.007" y="111.098"/>
      <point x="639.043" y="138.26" type="curve" smooth="yes"/>
      <point x="621.286" y="168.506"/>
      <point x="597.879" y="200.097"/>
      <point x="570.643" y="222.533" type="curve" smooth="yes"/>
      <point x="564.482" y="227.57"/>
      <point x="554.499" y="232.022"/>
      <point x="547.529" y="230.538" type="curve" smooth="yes"/>
      <point x="543.122" y="229.639"/>
      <point x="539.029" y="217.407"/>
      <point x="538.49" y="209.987" type="curve" smooth="yes"/>
      <point x="537.096" y="190.29"/>
      <point x="537.635" y="170.503"/>
      <point x="537.41" y="150.761" type="curve" smooth="yes"/>
      <point x="537.186" y="131.604"/>
      <point x="530.89" y="115.685"/>
      <point x="516.589" y="102.059" type="curve" smooth="yes"/>
      <point x="495.408" y="81.8222"/>
      <point x="471.17" y="67.9265"/>
      <point x="443.468" y="58.8875" type="curve" smooth="yes"/>
      <point x="392.742" y="42.3835"/>
      <point x="348.528" y="27.4115"/>
      <point x="287.737" y="30.2866" type="curve" smooth="yes"/>
      <point x="266.361" y="31.2975"/>
      <point x="248.855" y="37.242"/>
      <point x="232.694" y="52.142" type="curve" smooth="yes"/>
      <point x="222.171" y="61.8555"/>
      <point x="211.378" y="71.2093"/>
      <point x="201.035" y="81.1027" type="curve" smooth="yes"/>
      <point x="176.031" y="105.072"/>
      <point x="162.136" y="133.852"/>
      <point x="162.046" y="169.109" type="curve" smooth="yes"/>
      <point x="161.956" y="192.313"/>
      <point x="160.202" y="215.473"/>
      <point x="159.977" y="238.633" type="curve" smooth="yes"/>
      <point x="159.932" y="244.793"/>
      <point x="159.55" y="259.765"/>
      <point x="162.972" y="264.484" type="curve" smooth="yes"/>
      <point x="182.934" y="292.008"/>
      <point x="202.789" y="313.598"/>
      <point x="231.839" y="332.89" type="curve" smooth="yes"/>
      <point x="266.556" y="355.959"/>
      <point x="305.095" y="356.094"/>
      <point x="344.354" y="349.888" type="curve" smooth="yes"/>
      <point x="350.65" y="348.854"/>
      <point x="356.766" y="346.561"/>
      <point x="363.107" y="345.661" type="curve" smooth="yes"/>
      <point x="375.249" y="343.952"/>
      <point x="383.343" y="335.858"/>
      <point x="382.848" y="325.29" type="curve" smooth="yes"/>
      <point x="382.444" y="317.015"/>
      <point x="376.328" y="306.447"/>
      <point x="369.492" y="301.591" type="curve" smooth="yes"/>
      <point x="359.779" y="294.755"/>
      <point x="347.232" y="291.517"/>
      <point x="335.495" y="288.1" type="curve" smooth="yes"/>
      <point x="307.029" y="279.87"/>
      <point x="284.004" y="263.456"/>
      <point x="264.802" y="241.556" type="curve" smooth="yes"/>
      <point x="250.817" y="225.636"/>
      <point x="245.69" y="205.804"/>
      <point x="246.859" y="185.118" type="curve" smooth="yes"/>
      <point x="247.849" y="167.625"/>
      <point x="283.195" y="144.96"/>
      <point x="300.104" y="153.549" type="curve" smooth="yes"/>
      <point x="342.196" y="175.045"/>
      <point x="389.729" y="186.917"/>
      <point x="424.895" y="221.004" type="curve" smooth="yes"/>
      <point x="428.268" y="224.287"/>
      <point x="431.236" y="230.088"/>
      <point x="431.146" y="234.63" type="curve" smooth="yes"/>
      <point x="429.482" y="294.755"/>
      <point x="429.258" y="355.06"/>
      <point x="424.446" y="414.915" type="curve" smooth="yes"/>
      <point x="421.343" y="453.949"/>
      <point x="411.27" y="492.443"/>
      <point x="404.344" y="531.162" type="curve" smooth="yes"/>
      <point x="402.815" y="539.707"/>
      <point x="398.453" y="543.484"/>
      <point x="389.234" y="543.619" type="curve" smooth="yes"/>
      <point x="341.881" y="544.339"/>
      <point x="294.527" y="545.913"/>
      <point x="247.174" y="546.677" type="curve" smooth="yes"/>
      <point x="223.745" y="547.037"/>
      <point x="202.204" y="551.174"/>
      <point x="180.888" y="562.776" type="curve" smooth="yes"/>
      <point x="163.17" y="572.4"/>
      <point x="141.989" y="575.818"/>
      <point x="122.157" y="581.349" type="curve" smooth="yes"/>
      <point x="108.487" y="585.171"/>
      <point x="94.2311" y="587.015"/>
      <point x="80.785" y="591.332" type="curve" smooth="yes"/>
      <point x="66.0798" y="596.144"/>
      <point x="63.8446" y="611.164"/>
      <point x="75.7484" y="621.192" type="curve" smooth="yes"/>
      <point x="79.1908" y="624.092"/>
      <point x="82.8414" y="626.431"/>
      <point x="87.1258" y="627.938" type="curve" smooth="yes"/>
      <point x="111.5" y="636.662"/>
      <point x="135.828" y="646.241"/>
      <point x="160.922" y="652.851" type="curve" smooth="yes"/>
      <point x="174.907" y="656.539"/>
      <point x="190.242" y="655.729"/>
      <point x="204.947" y="655.774" type="curve" smooth="yes"/>
      <point x="270.603" y="656.044"/>
      <point x="336.305" y="655.909"/>
      <point x="401.961" y="655.909" type="curve" smooth="yes"/>
      <point x="471.08" y="655.909"/>
      <point x="540.244" y="659.732"/>
    </contour>
    <contour>
      <point x="207.46" y="390.48" type="curve" smooth="yes"/>
      <point x="185.917" y="391.096"/>
      <point x="171.085" y="399.535"/>
      <point x="157.594" y="411.857" type="curve" smooth="yes"/>
      <point x="144.687" y="423.639"/>
      <point x="141.405" y="438.929"/>
      <point x="150.578" y="455.928" type="curve" smooth="yes"/>
      <point x="166.048" y="484.484"/>
      <point x="184.981" y="508.408"/>
      <point x="220.687" y="508.812" type="curve" smooth="yes"/>
      <point x="230.67" y="508.902"/>
      <point x="244.566" y="506.429"/>
      <point x="249.962" y="499.728" type="curve" smooth="yes"/>
      <point x="267.5" y="478.188"/>
      <point x="281.791" y="454.008"/>
      <point x="297.136" y="430.744" type="curve" smooth="yes"/>
      <point x="301.426" y="424.24"/>
      <point x="299.175" y="421.427"/>
      <point x="294.842" y="417.973" type="curve" smooth="yes"/>
      <point x="289.246" y="413.512"/>
      <point x="283.69" y="407.54"/>
      <point x="277.034" y="405.561" type="curve" smooth="yes"/>
      <point x="254.099" y="398.681"/>
      <point x="227.153" y="389.917"/>
    </contour>
  </outline>
  <guideline angle="0" x="0" y="530.1"/>
  <guideline angle="0" x="0" y="54.7"/>
</glyph>
<glyph name="s" format="2">
  <advance width="837"/>
  <unicode hex="0073"/>
  <outline>
    <contour>
      <point x="410.075" y="152.401" type="curve" smooth="yes"/>
      <point x="449.193" y="152.436"/>
      <point x="466.243" y="153.175"/>
      <point x="505.335" y="157.505" type="curve" smooth="yes"/>
      <point x="544.621" y="161.857"/>
      <point x="557.419" y="170.318"/>
      <point x="576.742" y="188.391" type="curve" smooth="yes"/>
      <point x="611.689" y="220.943"/>
      <point x="644.571" y="223.369"/>
      <point x="677.917" y="215.609" type="curve" smooth="yes"/>
      <point x="698.534" y="210.81"/>
      <point x="703.405" y="209.078"/>
      <point x="713.825" y="206.201" type="curve" smooth="yes"/>
      <point x="731.832" y="201.229"/>
      <point x="735.127" y="189.484"/>
      <point x="737.575" y="172.453" type="curve" smooth="yes"/>
      <point x="739.867" y="156.412"/>
      <point x="733.356" y="144.589"/>
      <point x="718.512" y="135.734" type="curve" smooth="yes"/>
      <point x="665.335" y="103.859"/>
      <point x="606.637" y="87.1406"/>
      <point x="547.314" y="71.6719" type="curve" smooth="yes"/>
      <point x="471.846" y="51.9844"/>
      <point x="395.023" y="49.0677"/>
      <point x="318.356" y="58.1823" type="curve" smooth="yes"/>
      <point x="263.512" y="64.7448"/>
      <point x="217.314" y="91.0989"/>
      <point x="178.825" y="132.193" type="curve" smooth="yes"/>
      <point x="149.346" y="163.703"/>
      <point x="135.856" y="197.922"/>
      <point x="134.033" y="241.464" type="curve" smooth="yes"/>
      <point x="131.377" y="306.932"/>
      <point x="163.148" y="355.474"/>
      <point x="202.002" y="401.151" type="curve" smooth="yes"/>
      <point x="226.117" y="429.38"/>
      <point x="255.075" y="453.495"/>
      <point x="281.585" y="479.641" type="curve" smooth="yes"/>
      <point x="301.846" y="499.641"/>
      <point x="300.7" y="506.099"/>
      <point x="273.512" y="515.266" type="curve" smooth="yes"/>
      <point x="250.231" y="523.078"/>
      <point x="226.325" y="528.859"/>
      <point x="202.627" y="535.474" type="curve" smooth="yes"/>
      <point x="143.669" y="552.089"/>
      <point x="107.052" y="591.497"/>
      <point x="90.4395" y="649.12" type="curve" smooth="yes"/>
      <point x="86.9095" y="661.364"/>
      <point x="88.8504" y="672.575"/>
      <point x="88.1478" y="685.005" type="curve" smooth="yes"/>
      <point x="87.4186" y="698.13"/>
      <point x="88.8504" y="713.371"/>
      <point x="85.0705" y="735.364" type="curve" smooth="yes"/>
      <point x="81.4963" y="756.16"/>
      <point x="104.398" y="780.109"/>
      <point x="136.273" y="782.193" type="curve" smooth="yes"/>
      <point x="163.981" y="784.068"/>
      <point x="186.689" y="772.036"/>
      <point x="208.46" y="758.547" type="curve" smooth="yes"/>
      <point x="267.887" y="721.568"/>
      <point x="331.898" y="696.88"/>
      <point x="399.867" y="680.786" type="curve" smooth="yes"/>
      <point x="475.283" y="662.974"/>
      <point x="549.242" y="640.786"/>
      <point x="614.554" y="596.88" type="curve" smooth="yes"/>
      <point x="637.887" y="581.203"/>
      <point x="646.846" y="555.891"/>
      <point x="657.054" y="532.036" type="curve" smooth="yes"/>
      <point x="662.054" y="520.318"/>
      <point x="655.544" y="509.641"/>
      <point x="642.471" y="505.109" type="curve" smooth="yes"/>
      <point x="574.294" y="481.62"/>
      <point x="507.158" y="454.276"/>
      <point x="437.679" y="435.786" type="curve" smooth="yes"/>
      <point x="366.637" y="416.88"/>
      <point x="315.96" y="372.974"/>
      <point x="271.585" y="319.797" type="curve" smooth="yes"/>
      <point x="228.304" y="267.922"/>
      <point x="261.742" y="175.839"/>
      <point x="328.617" y="161.099" type="curve" smooth="yes"/>
      <point x="358.564" y="154.484"/>
      <point x="389.868" y="152.383"/>
    </contour>
    <contour>
      <point x="685.804" y="514.589" type="curve" smooth="yes"/>
      <point x="686.106" y="518.973"/>
      <point x="703.012" y="522.865"/>
      <point x="710.412" y="528.065" type="curve" smooth="yes"/>
      <point x="725.33" y="538.548"/>
      <point x="733.478" y="534.56"/>
      <point x="751.794" y="519.172" type="curve" smooth="yes"/>
      <point x="766.325" y="507.036"/>
      <point x="763.721" y="494.484"/>
      <point x="745.7" y="487.453" type="curve" smooth="yes"/>
      <point x="730.7" y="481.624"/>
      <point x="712.669" y="480.869"/>
      <point x="703.012" y="494.64" type="curve" smooth="yes"/>
      <point x="697.261" y="502.841"/>
      <point x="685.617" y="511.883"/>
    </contour>
  </outline>
  <guideline angle="0" x="0" y="762.731"/>
  <guideline angle="0" x="0" y="33.5648"/>
</glyph>
<glyph name="A.vrt2" format="2">
  <advance width="879"/>
  <outline>
    <contour>
      <point x="238.426" y="408.565" type="curve"/>
      <point x="238.426" y="349.537"/>
      <point x="210.648" y="312.5"/>
      <point x="171.296" y="284.722" type="curve" smooth="yes"/>
      <point x="136.574" y="260.417"/>
      <point x="93.75" y="270.833"/>
      <point x="75.2315" y="306.713" type="curve"/>
      <point x="67.1296" y="321.759"/>
      <point x="68.287" y="344.907"/>
      <point x="74.0741" y="359.954" type="curve"/>
      <point x="93.75" y="407.407"/>
      <point x="129.63" y="437.5"/>
      <point x="180.556" y="449.074" type="curve" smooth="yes"/>
      <point x="215.278" y="457.176"/>
      <point x="241.898" y="449.074"/>
    </contour>
    <contour>
      <point x="782.407" y="349.174" type="curve" smooth="yes"/>
      <point x="782.407" y="282.407"/>
      <point x="766.204" y="218.75"/>
      <point x="732.639" y="163.194" type="curve" smooth="yes"/>
      <point x="707.176" y="121.528"/>
      <point x="673.611" y="89.1204"/>
      <point x="633.102" y="62.5" type="curve" smooth="yes"/>
      <point x="619.213" y="53.2407"/>
      <point x="598.38" y="48.6111"/>
      <point x="579.861" y="47.4537" type="curve" smooth="yes"/>
      <point x="528.935" y="43.9815"/>
      <point x="478.009" y="42.8241"/>
      <point x="427.083" y="42.8241" type="curve"/>
      <point x="423.611" y="42.8241" type="line"/>
      <point x="388.889" y="43.9815"/>
      <point x="388.889" y="45.1389"/>
      <point x="385.417" y="9.25926" type="curve"/>
      <point x="381.944" y="-15.0463"/>
      <point x="375" y="-37.037"/>
      <point x="350.694" y="-47.4537" type="curve" smooth="yes"/>
      <point x="334.491" y="-54.3981"/>
      <point x="320.602" y="-55.5556"/>
      <point x="310.185" y="-40.5093" type="curve"/>
      <point x="295.139" y="-19.6759"/>
      <point x="278.935" y="1.15741"/>
      <point x="267.361" y="23.1481" type="curve"/>
      <point x="254.63" y="46.2963"/>
      <point x="244.213" y="70.6019"/>
      <point x="236.111" y="97.2222" type="curve"/>
      <point x="229.167" y="118.056"/>
      <point x="228.009" y="140.046"/>
      <point x="229.167" y="162.037" type="curve"/>
      <point x="229.167" y="171.296"/>
      <point x="236.111" y="184.028"/>
      <point x="244.213" y="188.657" type="curve" smooth="yes"/>
      <point x="260.417" y="197.917"/>
      <point x="276.62" y="204.861"/>
      <point x="293.981" y="209.491" type="curve"/>
      <point x="299.769" y="211.806"/>
      <point x="309.028" y="207.176"/>
      <point x="314.815" y="203.704" type="curve"/>
      <point x="373.843" y="153.935"/>
      <point x="444.444" y="155.093"/>
      <point x="513.889" y="162.037" type="curve" smooth="yes"/>
      <point x="572.917" y="168.981"/>
      <point x="613.426" y="194.444"/>
      <point x="633.102" y="265.046" type="curve" smooth="yes"/>
      <point x="646.991" y="312.5"/>
      <point x="642.361" y="358.796"/>
      <point x="623.843" y="405.093" type="curve"/>
      <point x="596.065" y="479.167"/>
      <point x="541.667" y="526.62"/>
      <point x="474.537" y="563.657" type="curve" smooth="yes"/>
      <point x="413.194" y="597.222"/>
      <point x="347.222" y="603.009"/>
      <point x="281.25" y="606.481" type="curve" smooth="yes"/>
      <point x="248.843" y="607.639"/>
      <point x="219.907" y="604.167"/>
      <point x="192.13" y="586.806" type="curve"/>
      <point x="164.352" y="568.287"/>
      <point x="112.269" y="587.963"/>
      <point x="111.111" y="634.259" type="curve"/>
      <point x="109.954" y="649.306"/>
      <point x="109.954" y="665.509"/>
      <point x="111.111" y="680.556" type="curve"/>
      <point x="112.269" y="717.593"/>
      <point x="144.676" y="751.157"/>
      <point x="181.713" y="753.472" type="curve" smooth="yes"/>
      <point x="204.861" y="754.63"/>
      <point x="224.537" y="753.472"/>
      <point x="233.796" y="726.852" type="curve"/>
      <point x="238.426" y="711.806"/>
      <point x="251.157" y="706.019"/>
      <point x="267.361" y="706.019" type="curve" smooth="yes"/>
      <point x="326.389" y="706.019"/>
      <point x="384.259" y="707.176"/>
      <point x="442.13" y="702.546" type="curve" smooth="yes"/>
      <point x="475.694" y="700.231"/>
      <point x="509.259" y="689.815"/>
      <point x="540.509" y="679.398" type="curve" smooth="yes"/>
      <point x="606.481" y="656.25"/>
      <point x="664.352" y="619.213"/>
      <point x="709.491" y="565.972" type="curve" smooth="yes"/>
      <point x="756.944" y="510.417"/>
      <point x="782.407" y="432.87"/>
    </contour>
    <contour>
      <point x="282.407" y="331.019" type="curve"/>
      <point x="282.407" y="399.306"/>
      <point x="337.963" y="458.333"/>
      <point x="403.935" y="459.491" type="curve"/>
      <point x="425.926" y="459.491"/>
      <point x="435.185" y="450.231"/>
      <point x="432.87" y="427.083" type="curve"/>
      <point x="428.241" y="363.426"/>
      <point x="398.148" y="312.5"/>
      <point x="346.065" y="275.463" type="curve"/>
      <point x="318.287" y="256.944"/>
      <point x="285.88" y="271.991"/>
      <point x="282.407" y="305.556" type="curve"/>
      <point x="281.25" y="313.657"/>
      <point x="281.25" y="321.759"/>
    </contour>
  </outline>
</glyph>
<glyph name="B.vrt2" format="2">
  <advance width="884"/>
  <outline>
    <contour>
      <point x="657.337" y="693.217" type="curve" smooth="yes"/>
      <point x="656.18" y="655.022"/>
      <point x="655.022" y="616.828"/>
      <point x="623.772" y="590.208" type="curve"/>
      <point x="616.828" y="583.263"/>
      <point x="607.569" y="577.476"/>
      <point x="598.309" y="574.004" type="curve"/>
      <point x="565.902" y="565.902"/>
      <point x="534.652" y="561.272"/>
      <point x="503.402" y="552.013" type="curve"/>
      <point x="470.995" y="541.597"/>
      <point x="437.43" y="531.18"/>
      <point x="408.495" y="513.819" type="curve" smooth="yes"/>
      <point x="365.671" y="487.198"/>
      <point x="324.004" y="457.106"/>
      <point x="288.124" y="422.384" type="curve" smooth="yes"/>
      <point x="253.402" y="388.819"/>
      <point x="223.309" y="348.309"/>
      <point x="229.097" y="293.911" type="curve" smooth="yes"/>
      <point x="231.411" y="268.448"/>
      <point x="242.985" y="248.772"/>
      <point x="260.347" y="231.411" type="curve" smooth="yes"/>
      <point x="307.8" y="183.958"/>
      <point x="364.513" y="152.708"/>
      <point x="427.013" y="129.559" type="curve"/>
      <point x="455.948" y="117.985"/>
      <point x="483.726" y="102.939"/>
      <point x="504.559" y="78.6336" type="curve" smooth="yes"/>
      <point x="517.291" y="63.5873"/>
      <point x="527.708" y="48.541"/>
      <point x="520.763" y="27.7076" type="curve" smooth="yes"/>
      <point x="511.504" y="-0.0701339"/>
      <point x="494.143" y="-17.4312"/>
      <point x="464.05" y="-22.0609" type="curve" smooth="yes"/>
      <point x="413.124" y="-30.1627"/>
      <point x="370.3" y="-13.959"/>
      <point x="334.421" y="21.9206" type="curve"/>
      <point x="264.976" y="87.8928"/>
      <point x="194.374" y="153.865"/>
      <point x="126.087" y="222.152" type="curve" smooth="yes"/>
      <point x="107.569" y="240.671"/>
      <point x="92.5225" y="261.504"/>
      <point x="78.6336" y="282.337" type="curve" smooth="yes"/>
      <point x="64.7447" y="303.171"/>
      <point x="64.7447" y="329.791"/>
      <point x="79.791" y="349.467" type="curve" smooth="yes"/>
      <point x="98.3095" y="376.087"/>
      <point x="119.143" y="401.55"/>
      <point x="143.448" y="422.384" type="curve" smooth="yes"/>
      <point x="229.097" y="497.615"/>
      <point x="317.059" y="570.532"/>
      <point x="402.708" y="644.606" type="curve" smooth="yes"/>
      <point x="432.8" y="671.226"/>
      <point x="460.578" y="697.847"/>
      <point x="490.671" y="724.467" type="curve" smooth="yes"/>
      <point x="534.652" y="763.819"/>
      <point x="590.208" y="776.55"/>
      <point x="644.606" y="739.513" type="curve" smooth="yes"/>
      <point x="651.55" y="734.884"/>
      <point x="655.022" y="725.624"/>
      <point x="657.337" y="717.522" type="curve" smooth="yes"/>
      <point x="659.652" y="709.421"/>
      <point x="657.337" y="701.319"/>
    </contour>
    <contour>
      <point x="476.782" y="379.559" type="curve"/>
      <point x="474.467" y="322.846"/>
      <point x="495.3" y="278.865"/>
      <point x="543.911" y="248.772" type="curve" smooth="yes"/>
      <point x="565.902" y="234.884"/>
      <point x="564.745" y="222.152"/>
      <point x="542.754" y="209.421" type="curve"/>
      <point x="521.921" y="197.846"/>
      <point x="501.087" y="187.43"/>
      <point x="480.254" y="177.013" type="curve"/>
      <point x="454.791" y="165.439"/>
      <point x="428.171" y="178.171"/>
      <point x="424.698" y="207.106" type="curve" smooth="yes"/>
      <point x="416.596" y="267.291"/>
      <point x="411.967" y="328.634"/>
      <point x="422.384" y="389.976" type="curve"/>
      <point x="423.541" y="401.55"/>
      <point x="427.013" y="410.809"/>
      <point x="432.8" y="420.069" type="curve"/>
      <point x="440.902" y="435.115"/>
      <point x="455.948" y="433.958"/>
      <point x="462.893" y="418.911" type="curve" smooth="yes"/>
      <point x="468.68" y="406.18"/>
      <point x="472.152" y="392.291"/>
    </contour>
    <contour>
      <point x="552.013" y="352.939" type="curve" smooth="yes"/>
      <point x="552.013" y="365.671"/>
      <point x="567.059" y="380.717"/>
      <point x="582.106" y="395.763" type="curve" smooth="yes"/>
      <point x="592.522" y="405.022"/>
      <point x="607.569" y="398.078"/>
      <point x="609.884" y="384.189" type="curve" smooth="yes"/>
      <point x="614.513" y="357.569"/>
      <point x="617.985" y="354.096"/>
      <point x="645.763" y="354.096" type="curve" smooth="yes"/>
      <point x="659.652" y="354.096"/>
      <point x="674.698" y="356.411"/>
      <point x="688.587" y="361.041" type="curve" smooth="yes"/>
      <point x="705.948" y="367.985"/>
      <point x="710.578" y="379.559"/>
      <point x="702.476" y="396.921" type="curve" smooth="yes"/>
      <point x="695.532" y="413.124"/>
      <point x="696.689" y="432.8"/>
      <point x="705.948" y="447.846" type="curve" smooth="yes"/>
      <point x="716.365" y="462.893"/>
      <point x="732.569" y="468.68"/>
      <point x="748.772" y="461.735" type="curve" smooth="yes"/>
      <point x="778.865" y="450.161"/>
      <point x="805.485" y="400.393"/>
      <point x="802.013" y="367.985" type="curve" smooth="yes"/>
      <point x="797.384" y="312.43"/>
      <point x="764.976" y="276.55"/>
      <point x="717.522" y="255.717" type="curve" smooth="yes"/>
      <point x="681.643" y="239.513"/>
      <point x="643.448" y="246.458"/>
      <point x="607.569" y="260.346" type="curve"/>
      <point x="578.634" y="270.763"/>
      <point x="550.856" y="311.272"/>
    </contour>
  </outline>
</glyph>
<glyph name="C.vrt2" format="2">
  <advance width="676"/>
  <outline>
    <contour>
      <point x="555.816" y="177.816" type="curve" smooth="yes"/>
      <point x="524.816" y="192.816"/>
      <point x="494.816" y="210.816"/>
      <point x="463.816" y="225.816" type="curve" smooth="yes"/>
      <point x="439.816" y="236.816"/>
      <point x="419.816" y="230.816"/>
      <point x="404.816" y="208.816" type="curve" smooth="yes"/>
      <point x="363.816" y="147.816"/>
      <point x="304.816" y="108.816"/>
      <point x="240.816" y="76.8164" type="curve" smooth="yes"/>
      <point x="224.816" y="68.8164"/>
      <point x="204.816" y="66.8164"/>
      <point x="185.816" y="64.8164" type="curve" smooth="yes"/>
      <point x="169.816" y="62.8164"/>
      <point x="154.816" y="64.8164"/>
      <point x="138.816" y="64.8164" type="curve" smooth="yes"/>
      <point x="91.8163" y="64.8164"/>
      <point x="71.8163" y="83.8164"/>
      <point x="66.8163" y="129.816" type="curve" smooth="yes"/>
      <point x="62.8163" y="169.816"/>
      <point x="77.8163" y="200.816"/>
      <point x="110.816" y="223.816" type="curve" smooth="yes"/>
      <point x="136.816" y="241.816"/>
      <point x="161.816" y="259.816"/>
      <point x="188.816" y="275.816" type="curve" smooth="yes"/>
      <point x="246.816" y="310.816"/>
      <point x="288.816" y="359.816"/>
      <point x="326.816" y="414.816" type="curve" smooth="yes"/>
      <point x="348.816" y="445.816"/>
      <point x="371.816" y="476.816"/>
      <point x="397.816" y="505.816" type="curve" smooth="yes"/>
      <point x="423.816" y="536.816"/>
      <point x="440.816" y="533.816"/>
      <point x="456.816" y="497.816" type="curve" smooth="yes"/>
      <point x="469.816" y="469.816"/>
      <point x="479.816" y="440.816"/>
      <point x="488.816" y="410.816" type="curve" smooth="yes"/>
      <point x="502.816" y="363.816"/>
      <point x="533.816" y="326.816"/>
      <point x="565.816" y="289.816" type="curve" smooth="yes"/>
      <point x="587.816" y="264.816"/>
      <point x="607.816" y="238.816"/>
      <point x="628.816" y="212.816" type="curve" smooth="yes"/>
      <point x="635.816" y="203.816"/>
      <point x="640.816" y="194.816"/>
      <point x="634.816" y="183.816" type="curve" smooth="yes"/>
      <point x="627.816" y="171.816"/>
      <point x="617.816" y="166.816"/>
      <point x="604.816" y="166.816" type="curve" smooth="yes"/>
      <point x="601.816" y="166.816"/>
      <point x="598.816" y="166.816"/>
      <point x="595.816" y="166.816" type="curve" smooth="yes"/>
      <point x="574.816" y="166.816"/>
      <point x="561.816" y="174.816"/>
    </contour>
  </outline>
</glyph>
<glyph name="D.vrt2" format="2">
  <advance width="908"/>
  <outline>
    <contour>
      <point x="310.599" y="702.46" type="line" smooth="yes"/>
      <point x="348.165" y="745.704"/>
      <point x="350.759" y="746.592"/>
      <point x="358.861" y="750.064" type="curve"/>
      <point x="357.703" y="739.648"/>
      <point x="357.703" y="738.49"/>
      <point x="356.546" y="728.074" type="curve" smooth="yes"/>
      <point x="355.388" y="708.398"/>
      <point x="362.333" y="703.768"/>
      <point x="378.536" y="708.398" type="curve" smooth="yes"/>
      <point x="388.953" y="711.87"/>
      <point x="399.37" y="715.342"/>
      <point x="409.786" y="719.972" type="curve" smooth="yes"/>
      <point x="460.712" y="740.805"/>
      <point x="513.953" y="739.648"/>
      <point x="567.194" y="728.074" type="curve" smooth="yes"/>
      <point x="614.648" y="717.657"/>
      <point x="662.101" y="702.611"/>
      <point x="702.611" y="673.675" type="curve" smooth="yes"/>
      <point x="731.546" y="652.842"/>
      <point x="748.907" y="622.75"/>
      <point x="768.583" y="593.814" type="curve" smooth="yes"/>
      <point x="791.731" y="559.092"/>
      <point x="807.935" y="519.74"/>
      <point x="816.036" y="479.231" type="curve" smooth="yes"/>
      <point x="833.398" y="386.638"/>
      <point x="838.027" y="294.046"/>
      <point x="791.731" y="208.398" type="curve" smooth="yes"/>
      <point x="750.064" y="133.166"/>
      <point x="692.194" y="75.2958"/>
      <point x="611.175" y="41.731" type="curve" smooth="yes"/>
      <point x="571.823" y="24.3699"/>
      <point x="531.314" y="15.1106"/>
      <point x="496.592" y="13.9532" type="curve" smooth="yes"/>
      <point x="461.87" y="12.7958"/>
      <point x="447.981" y="11.6384"/>
      <point x="406.314" y="18.5828" type="curve" smooth="yes"/>
      <point x="370.435" y="24.3699"/>
      <point x="332.24" y="47.518"/>
      <point x="285.944" y="61.4069" type="curve" smooth="yes"/>
      <point x="275.527" y="64.8791"/>
      <point x="265.111" y="64.8791"/>
      <point x="254.694" y="62.5643" type="curve" smooth="yes"/>
      <point x="245.435" y="61.4069"/>
      <point x="237.333" y="59.0921"/>
      <point x="229.231" y="55.6199" type="curve" smooth="yes"/>
      <point x="211.87" y="48.6754"/>
      <point x="196.823" y="53.3051"/>
      <point x="184.092" y="64.8791" type="curve" smooth="yes"/>
      <point x="148.212" y="94.9717"/>
      <point x="114.648" y="128.537"/>
      <point x="92.6568" y="171.361" type="curve" smooth="yes"/>
      <point x="78.7679" y="197.981"/>
      <point x="77.6105" y="226.916"/>
      <point x="82.2402" y="255.851" type="curve" smooth="yes"/>
      <point x="88.0272" y="299.833"/>
      <point x="116.962" y="329.925"/>
      <point x="147.055" y="356.546" type="curve" smooth="yes"/>
      <point x="167.888" y="375.064"/>
      <point x="197.981" y="377.379"/>
      <point x="225.759" y="362.333" type="curve" smooth="yes"/>
      <point x="257.009" y="344.972"/>
      <point x="289.416" y="327.611"/>
      <point x="320.666" y="311.407" type="curve" smooth="yes"/>
      <point x="342.657" y="299.833"/>
      <point x="382.009" y="313.722"/>
      <point x="388.953" y="336.87" type="curve" smooth="yes"/>
      <point x="400.527" y="373.907"/>
      <point x="422.518" y="404"/>
      <point x="446.823" y="432.935" type="curve" smooth="yes"/>
      <point x="460.712" y="447.981"/>
      <point x="476.916" y="453.768"/>
      <point x="495.435" y="446.824" type="curve" smooth="yes"/>
      <point x="513.953" y="438.722"/>
      <point x="520.898" y="422.518"/>
      <point x="522.055" y="404" type="curve"/>
      <point x="522.055" y="390.111"/>
      <point x="518.583" y="376.222"/>
      <point x="517.425" y="362.333" type="curve" smooth="yes"/>
      <point x="515.111" y="331.083"/>
      <point x="511.638" y="299.833"/>
      <point x="512.796" y="268.583" type="curve" smooth="yes"/>
      <point x="513.953" y="247.75"/>
      <point x="522.055" y="226.916"/>
      <point x="546.361" y="219.972" type="curve" smooth="yes"/>
      <point x="569.509" y="213.027"/>
      <point x="592.657" y="217.657"/>
      <point x="611.175" y="235.018" type="curve" smooth="yes"/>
      <point x="640.111" y="263.953"/>
      <point x="657.472" y="299.833"/>
      <point x="669.046" y="339.185" type="curve" smooth="yes"/>
      <point x="697.981" y="435.25"/>
      <point x="662.101" y="523.212"/>
      <point x="577.611" y="579.925" type="curve" smooth="yes"/>
      <point x="517.425" y="619.277"/>
      <point x="458.398" y="608.861"/>
      <point x="397.055" y="593.814" type="curve" smooth="yes"/>
      <point x="329.925" y="577.611"/>
      <point x="278.999" y="537.101"/>
      <point x="243.12" y="478.074" type="curve"/>
      <point x="230.388" y="454.925"/>
      <point x="215.342" y="434.092"/>
      <point x="200.296" y="413.259" type="curve" smooth="yes"/>
      <point x="196.823" y="408.629"/>
      <point x="188.722" y="404"/>
      <point x="184.092" y="405.157" type="curve"/>
      <point x="180.62" y="405.157"/>
      <point x="177.148" y="414.416"/>
      <point x="175.99" y="419.046" type="curve" smooth="yes"/>
      <point x="164.416" y="495.435"/>
      <point x="187.85" y="561.158"/>
      <point x="237.333" y="618.12" type="curve" smooth="yes"/>
    </contour>
  </outline>
  <guideline angle="0" x="0" y="25.463"/>
  <guideline angle="0" x="0" y="774.306"/>
</glyph>
<glyph name="E.vrt2" format="2">
  <advance width="881"/>
  <outline>
    <contour>
      <point x="209.514" y="239.606" type="curve" smooth="yes"/>
      <point x="209.514" y="253.495"/>
      <point x="202.569" y="261.597"/>
      <point x="188.681" y="266.227" type="curve" smooth="yes"/>
      <point x="165.532" y="273.171"/>
      <point x="142.384" y="277.801"/>
      <point x="122.708" y="289.375" type="curve" smooth="yes"/>
      <point x="100.718" y="302.106"/>
      <point x="81.0417" y="317.153"/>
      <point x="65.9954" y="336.829" type="curve" smooth="yes"/>
      <point x="56.7361" y="347.245"/>
      <point x="57.8935" y="366.921"/>
      <point x="57.8935" y="383.125" type="curve" smooth="yes"/>
      <point x="57.8935" y="414.375"/>
      <point x="75.2546" y="439.838"/>
      <point x="90.3009" y="465.301" type="curve" smooth="yes"/>
      <point x="111.134" y="498.866"/>
      <point x="120.394" y="516.227"/>
      <point x="134.282" y="562.523" type="curve" smooth="yes"/>
      <point x="149.329" y="612.292"/>
      <point x="197.94" y="640.069"/>
      <point x="254.653" y="633.125" type="curve"/>
      <point x="273.171" y="629.653"/>
      <point x="289.375" y="612.292"/>
      <point x="291.69" y="590.301" type="curve" smooth="yes"/>
      <point x="295.162" y="557.894"/>
      <point x="295.162" y="526.644"/>
      <point x="298.634" y="494.236" type="curve"/>
      <point x="303.264" y="458.356"/>
      <point x="307.894" y="421.319"/>
      <point x="314.838" y="385.44" type="curve"/>
      <point x="315.995" y="377.338"/>
      <point x="326.412" y="366.921"/>
      <point x="334.514" y="366.921" type="curve" smooth="yes"/>
      <point x="342.616" y="366.921"/>
      <point x="351.875" y="377.338"/>
      <point x="354.19" y="385.44" type="curve"/>
      <point x="362.292" y="417.847"/>
      <point x="365.764" y="451.412"/>
      <point x="372.708" y="484.977" type="curve"/>
      <point x="386.597" y="544.005"/>
      <point x="423.634" y="589.144"/>
      <point x="465.301" y="631.968" type="curve" smooth="yes"/>
      <point x="502.338" y="670.162"/>
      <point x="546.319" y="681.736"/>
      <point x="582.199" y="678.264" type="curve" smooth="yes"/>
      <point x="604.19" y="675.949"/>
      <point x="608.819" y="675.949"/>
      <point x="613.449" y="675.949" type="curve" smooth="yes"/>
      <point x="649.329" y="679.421"/>
      <point x="679.421" y="665.532"/>
      <point x="707.199" y="641.227" type="curve"/>
      <point x="752.338" y="598.403"/>
      <point x="791.69" y="552.106"/>
      <point x="805.579" y="489.606" type="curve" smooth="yes"/>
      <point x="817.153" y="436.366"/>
      <point x="822.94" y="379.653"/>
      <point x="814.838" y="322.94" type="curve" smooth="yes"/>
      <point x="812.523" y="304.421"/>
      <point x="810.208" y="287.06"/>
      <point x="805.579" y="268.542" type="curve"/>
      <point x="796.319" y="221.088"/>
      <point x="762.755" y="194.468"/>
      <point x="722.245" y="173.634" type="curve" smooth="yes"/>
      <point x="715.301" y="170.162"/>
      <point x="706.042" y="170.162"/>
      <point x="697.94" y="171.319" type="curve" smooth="yes"/>
      <point x="689.838" y="172.477"/>
      <point x="694.468" y="190.995"/>
      <point x="697.94" y="199.097" type="curve" smooth="yes"/>
      <point x="706.042" y="222.245"/>
      <point x="718.773" y="243.079"/>
      <point x="723.403" y="267.384" type="curve" smooth="yes"/>
      <point x="737.292" y="329.884"/>
      <point x="737.292" y="392.384"/>
      <point x="707.199" y="450.255" type="curve" smooth="yes"/>
      <point x="695.625" y="472.245"/>
      <point x="684.051" y="493.079"/>
      <point x="669.005" y="512.755" type="curve"/>
      <point x="647.014" y="542.847"/>
      <point x="614.606" y="546.319"/>
      <point x="579.884" y="546.319" type="curve" smooth="yes"/>
      <point x="564.838" y="546.319"/>
      <point x="549.792" y="544.005"/>
      <point x="533.588" y="545.162" type="curve"/>
      <point x="512.755" y="545.162"/>
      <point x="497.708" y="538.218"/>
      <point x="486.134" y="520.856" type="curve"/>
      <point x="461.829" y="486.134"/>
      <point x="444.468" y="451.412"/>
      <point x="440.995" y="408.588" type="curve" smooth="yes"/>
      <point x="438.681" y="378.495"/>
      <point x="446.782" y="354.19"/>
      <point x="464.144" y="331.042" type="curve"/>
      <point x="468.773" y="322.94"/>
      <point x="474.56" y="315.995"/>
      <point x="480.347" y="309.051" type="curve"/>
      <point x="500.023" y="288.218"/>
      <point x="498.866" y="262.755"/>
      <point x="480.347" y="238.449" type="curve"/>
      <point x="467.616" y="221.088"/>
      <point x="453.727" y="201.412"/>
      <point x="428.264" y="201.412" type="curve"/>
      <point x="414.375" y="200.255"/>
      <point x="405.116" y="204.884"/>
      <point x="398.171" y="216.458" type="curve" smooth="yes"/>
      <point x="376.181" y="252.338" type="line"/>
      <point x="369.236" y="265.069"/>
      <point x="357.662" y="273.171"/>
      <point x="344.931" y="267.384" type="curve" smooth="yes"/>
      <point x="337.986" y="263.912"/>
      <point x="332.199" y="251.181"/>
      <point x="334.514" y="240.764" type="curve" smooth="yes"/>
      <point x="335.671" y="233.819"/>
      <point x="336.829" y="226.875"/>
      <point x="337.986" y="219.931" type="curve"/>
      <point x="343.773" y="166.69"/>
      <point x="322.94" y="123.866"/>
      <point x="288.218" y="85.6713" type="curve"/>
      <point x="273.171" y="70.625"/>
      <point x="258.125" y="68.3102"/>
      <point x="239.606" y="75.2546" type="curve"/>
      <point x="221.088" y="83.3565"/>
      <point x="214.144" y="98.4028"/>
      <point x="212.986" y="115.764" type="curve" smooth="yes"/>
      <point x="211.829" y="129.653"/>
      <point x="211.829" y="129.653"/>
      <point x="210.671" y="157.431" type="curve"/>
      <point x="210.671" y="165.532"/>
      <point x="209.514" y="216.458"/>
    </contour>
    <contour>
      <point x="214.144" y="484.977" type="curve"/>
      <point x="215.301" y="500.023"/>
      <point x="215.301" y="504.653"/>
      <point x="211.829" y="513.912" type="curve" smooth="yes"/>
      <point x="208.356" y="523.171"/>
      <point x="202.569" y="545.162"/>
      <point x="190.995" y="540.532" type="curve" smooth="yes"/>
      <point x="185.208" y="538.218"/>
      <point x="173.634" y="533.588"/>
      <point x="167.847" y="526.643" type="curve" smooth="yes"/>
      <point x="141.227" y="493.079"/>
      <point x="144.699" y="451.412"/>
      <point x="173.634" y="420.162" type="curve" smooth="yes"/>
      <point x="185.208" y="407.431"/>
      <point x="196.782" y="408.588"/>
      <point x="202.569" y="424.792" type="curve"/>
      <point x="208.356" y="444.468"/>
      <point x="211.829" y="464.143"/>
    </contour>
    <contour>
      <point x="563.681" y="364.606" type="curve"/>
      <point x="553.264" y="381.968"/>
      <point x="548.634" y="379.653"/>
      <point x="547.477" y="387.755" type="curve"/>
      <point x="545.162" y="399.329"/>
      <point x="547.477" y="409.745"/>
      <point x="553.264" y="420.162" type="curve"/>
      <point x="557.893" y="427.106"/>
      <point x="567.153" y="436.366"/>
      <point x="575.255" y="436.366" type="curve" smooth="yes"/>
      <point x="581.042" y="436.366"/>
      <point x="587.986" y="425.949"/>
      <point x="591.458" y="421.319" type="curve" smooth="yes"/>
      <point x="596.088" y="413.218"/>
      <point x="594.931" y="407.431"/>
      <point x="592.616" y="406.273" type="curve" smooth="yes"/>
      <point x="583.356" y="403.958"/>
      <point x="584.514" y="383.125"/>
      <point x="571.782" y="365.764" type="curve"/>
      <point x="568.31" y="364.606"/>
      <point x="567.153" y="364.606"/>
    </contour>
    <contour>
      <point x="643.542" y="346.088" type="line"/>
      <point x="670.162" y="343.773"/>
      <point x="678.264" y="327.569"/>
      <point x="669.005" y="297.477" type="curve"/>
      <point x="662.06" y="276.644"/>
      <point x="630.81" y="258.125"/>
      <point x="609.977" y="262.755" type="curve"/>
      <point x="604.19" y="263.912"/>
      <point x="597.245" y="270.856"/>
      <point x="596.088" y="275.486" type="curve"/>
      <point x="593.773" y="297.477"/>
      <point x="601.875" y="320.625"/>
      <point x="618.079" y="336.829" type="curve" smooth="yes"/>
      <point x="621.551" y="340.301"/>
      <point x="626.181" y="342.616"/>
      <point x="631.968" y="343.773" type="curve"/>
    </contour>
  </outline>
  <guideline angle="0" x="0" y="765.046"/>
  <guideline angle="0" x="0" y="3.47222"/>
</glyph>
<glyph name="F.vrt2" format="2">
  <advance width="838"/>
  <outline>
    <contour>
      <point x="416.741" y="91.5099" type="curve" smooth="yes"/>
      <point x="415.584" y="47.5284"/>
      <point x="394.751" y="32.4821"/>
      <point x="358.871" y="13.9636" type="curve" smooth="yes"/>
      <point x="336.88" y="3.54693"/>
      <point x="313.732" y="17.4358"/>
      <point x="301.001" y="44.0562" type="curve" smooth="yes"/>
      <point x="284.797" y="76.4636"/>
      <point x="281.325" y="110.028"/>
      <point x="281.325" y="144.751" type="curve" smooth="yes"/>
      <point x="280.167" y="181.788"/>
      <point x="281.325" y="218.825"/>
      <point x="280.167" y="257.019" type="curve" smooth="yes"/>
      <point x="280.167" y="273.223"/>
      <point x="279.01" y="289.427"/>
      <point x="276.695" y="305.63" type="curve" smooth="yes"/>
      <point x="274.38" y="320.677"/>
      <point x="267.436" y="333.408"/>
      <point x="250.075" y="333.408" type="curve" smooth="yes"/>
      <point x="243.13" y="333.408" type="line" smooth="yes"/>
      <point x="184.102" y="333.408"/>
      <point x="193.362" y="333.408"/>
      <point x="192.204" y="290.584" type="curve" smooth="yes"/>
      <point x="191.047" y="263.964"/>
      <point x="188.732" y="236.186"/>
      <point x="186.417" y="209.565" type="curve" smooth="yes"/>
      <point x="184.102" y="184.102"/>
      <point x="155.167" y="159.797"/>
      <point x="123.917" y="155.167" type="curve" smooth="yes"/>
      <point x="94.9821" y="151.695"/>
      <point x="78.7784" y="164.427"/>
      <point x="66.0469" y="192.204" type="curve" smooth="yes"/>
      <point x="45.2136" y="239.658"/>
      <point x="52.158" y="288.269"/>
      <point x="57.9451" y="336.88" type="curve" smooth="yes"/>
      <point x="63.7321" y="387.806"/>
      <point x="70.6766" y="438.732"/>
      <point x="77.621" y="488.501" type="curve" smooth="yes"/>
      <point x="79.9358" y="507.019"/>
      <point x="98.4543" y="526.695"/>
      <point x="118.13" y="532.482" type="curve" smooth="yes"/>
      <point x="136.649" y="537.112"/>
      <point x="150.538" y="531.325"/>
      <point x="164.427" y="513.964" type="curve" smooth="yes"/>
      <point x="178.315" y="496.602"/>
      <point x="191.047" y="479.241"/>
      <point x="193.362" y="457.251" type="curve" smooth="yes"/>
      <point x="194.519" y="451.464"/>
      <point x="202.621" y="444.519"/>
      <point x="208.408" y="444.519" type="curve" smooth="yes"/>
      <point x="223.454" y="443.362"/>
      <point x="238.501" y="444.519"/>
      <point x="253.547" y="446.834" type="curve" smooth="yes"/>
      <point x="268.593" y="449.149"/>
      <point x="274.38" y="460.723"/>
      <point x="276.695" y="474.612" type="curve" smooth="yes"/>
      <point x="279.01" y="494.288"/>
      <point x="280.167" y="515.121"/>
      <point x="280.167" y="534.797" type="curve" smooth="yes"/>
      <point x="280.167" y="622.76" type="line" smooth="yes"/>
      <point x="280.167" y="658.64"/>
      <point x="314.89" y="682.945"/>
      <point x="353.084" y="663.269" type="curve" smooth="yes"/>
      <point x="360.028" y="659.797"/>
      <point x="363.501" y="652.852"/>
      <point x="363.501" y="645.908" type="curve" smooth="yes"/>
      <point x="363.501" y="619.288"/>
      <point x="369.288" y="594.982"/>
      <point x="377.39" y="570.677" type="curve" smooth="yes"/>
      <point x="385.491" y="544.056"/>
      <point x="387.806" y="515.121"/>
      <point x="392.436" y="486.186" type="curve" smooth="yes"/>
      <point x="393.593" y="478.084"/>
      <point x="394.751" y="468.825"/>
      <point x="397.065" y="459.565" type="curve" smooth="yes"/>
      <point x="399.38" y="446.834"/>
      <point x="407.482" y="438.732"/>
      <point x="421.371" y="438.732" type="curve" smooth="yes"/>
      <point x="476.927" y="436.417"/>
      <point x="532.482" y="434.102"/>
      <point x="588.038" y="431.788" type="curve" smooth="yes"/>
      <point x="612.343" y="430.63"/>
      <point x="634.334" y="423.686"/>
      <point x="649.38" y="401.695" type="curve" smooth="yes"/>
      <point x="660.954" y="384.334"/>
      <point x="655.167" y="363.501"/>
      <point x="636.649" y="356.556" type="curve" smooth="yes"/>
      <point x="621.602" y="350.769"/>
      <point x="606.556" y="346.14"/>
      <point x="591.51" y="344.982" type="curve" smooth="yes"/>
      <point x="541.741" y="342.667"/>
      <point x="491.973" y="342.667"/>
      <point x="443.362" y="341.51" type="curve" smooth="yes"/>
      <point x="422.528" y="341.51"/>
      <point x="415.584" y="335.723"/>
      <point x="415.584" y="316.047" type="curve" smooth="yes"/>
      <point x="414.427" y="241.973"/>
      <point x="420.214" y="165.584"/>
    </contour>
    <contour>
      <point x="489.658" y="191.047" type="curve" smooth="yes"/>
      <point x="489.658" y="207.251"/>
      <point x="496.602" y="225.769"/>
      <point x="504.704" y="243.13" type="curve" smooth="yes"/>
      <point x="515.121" y="263.964"/>
      <point x="534.797" y="270.908"/>
      <point x="556.788" y="263.964" type="curve" smooth="yes"/>
      <point x="591.51" y="253.547"/>
      <point x="625.075" y="223.454"/>
      <point x="623.917" y="187.575" type="curve" smooth="yes"/>
      <point x="621.602" y="145.908"/>
      <point x="591.51" y="115.815"/>
      <point x="553.315" y="115.815" type="curve" smooth="yes"/>
      <point x="527.852" y="115.815"/>
      <point x="507.019" y="119.288"/>
      <point x="496.602" y="144.751" type="curve" smooth="yes"/>
      <point x="490.815" y="157.482"/>
      <point x="488.501" y="171.371"/>
    </contour>
    <contour>
      <point x="795.214" y="534.797" type="curve" smooth="yes"/>
      <point x="796.371" y="508.177"/>
      <point x="783.64" y="489.658"/>
      <point x="763.964" y="483.871" type="curve" smooth="yes"/>
      <point x="757.019" y="481.556"/>
      <point x="748.917" y="482.714"/>
      <point x="743.13" y="487.343" type="curve" smooth="yes"/>
      <point x="735.028" y="494.288"/>
      <point x="729.241" y="504.704"/>
      <point x="721.14" y="513.964" type="curve" smooth="yes"/>
      <point x="704.936" y="534.797"/>
      <point x="689.89" y="554.473"/>
      <point x="672.528" y="574.149" type="curve" smooth="yes"/>
      <point x="657.482" y="591.51"/>
      <point x="638.964" y="593.825"/>
      <point x="618.13" y="584.565" type="curve" smooth="yes"/>
      <point x="600.769" y="576.464"/>
      <point x="594.982" y="560.26"/>
      <point x="592.667" y="544.056" type="curve" smooth="yes"/>
      <point x="589.195" y="525.538"/>
      <point x="585.723" y="510.491"/>
      <point x="569.519" y="497.76" type="curve" smooth="yes"/>
      <point x="561.417" y="490.815"/>
      <point x="549.843" y="489.658"/>
      <point x="539.427" y="491.973" type="curve" smooth="yes"/>
      <point x="507.019" y="501.232"/>
      <point x="489.658" y="531.325"/>
      <point x="501.232" y="562.575" type="curve" smooth="yes"/>
      <point x="516.278" y="600.769"/>
      <point x="542.899" y="633.177"/>
      <point x="576.464" y="657.482" type="curve" smooth="yes"/>
      <point x="586.88" y="664.427"/>
      <point x="601.927" y="664.427"/>
      <point x="615.815" y="666.741" type="curve" smooth="yes"/>
      <point x="678.315" y="674.843"/>
      <point x="726.927" y="649.38"/>
      <point x="766.278" y="603.084" type="curve" smooth="yes"/>
      <point x="782.482" y="584.565"/>
      <point x="794.056" y="560.26"/>
    </contour>
  </outline>
  <guideline angle="0" x="0" y="709.491"/>
</glyph>
<glyph name="G.vrt2" format="2">
  <advance width="712"/>
  <outline>
    <contour>
      <point x="655.098" y="250.098" type="line" smooth="yes"/>
      <point x="661.098" y="244.098"/>
      <point x="649.098" y="211.098"/>
      <point x="641.098" y="194.098" type="curve" smooth="yes"/>
      <point x="636.098" y="184.098"/>
      <point x="627.098" y="175.098"/>
      <point x="618.098" y="169.098" type="curve" smooth="yes"/>
      <point x="585.098" y="145.098"/>
      <point x="546.098" y="141.098"/>
      <point x="508.098" y="134.098" type="curve" smooth="yes"/>
      <point x="493.098" y="131.098"/>
      <point x="478.098" y="127.098"/>
      <point x="464.098" y="122.098" type="curve" smooth="yes"/>
      <point x="459.098" y="120.098"/>
      <point x="454.098" y="112.098"/>
      <point x="453.098" y="106.098" type="curve" smooth="yes"/>
      <point x="450.098" y="89.0981"/>
      <point x="450.098" y="70.0981"/>
      <point x="446.098" y="52.0981" type="curve" smooth="yes"/>
      <point x="443.098" y="42.0981"/>
      <point x="435.098" y="33.0981"/>
      <point x="427.098" y="25.0981" type="curve" smooth="yes"/>
      <point x="423.098" y="21.0981"/>
      <point x="407.098" y="32.0981"/>
      <point x="406.098" y="37.0981" type="curve" smooth="yes"/>
      <point x="403.098" y="53.0981"/>
      <point x="401.098" y="68.0981"/>
      <point x="397.098" y="84.0981" type="curve" smooth="yes"/>
      <point x="390.098" y="116.098"/>
      <point x="380.098" y="124.098"/>
      <point x="347.098" y="126.098" type="curve" smooth="yes"/>
      <point x="315.098" y="128.098"/>
      <point x="282.098" y="130.098"/>
      <point x="250.098" y="135.098" type="curve" smooth="yes"/>
      <point x="239.098" y="137.098"/>
      <point x="227.098" y="145.098"/>
      <point x="219.098" y="153.098" type="curve" smooth="yes"/>
      <point x="203.098" y="169.098"/>
      <point x="195.098" y="191.098"/>
      <point x="188.098" y="212.098" type="curve" smooth="yes"/>
      <point x="178.098" y="246.098"/>
      <point x="164.098" y="279.098"/>
      <point x="151.098" y="311.098" type="curve" smooth="yes"/>
      <point x="149.098" y="315.098"/>
      <point x="146.098" y="319.098"/>
      <point x="142.098" y="322.098" type="curve" smooth="yes"/>
      <point x="137.098" y="325.098" type="line" smooth="yes"/>
      <point x="126.098" y="331.098"/>
      <point x="136.098" y="297.098"/>
      <point x="139.098" y="286.098" type="curve" smooth="yes"/>
      <point x="146.098" y="257.098"/>
      <point x="144.098" y="228.098"/>
      <point x="136.098" y="200.098" type="curve" smooth="yes"/>
      <point x="130.098" y="177.098"/>
      <point x="116.098" y="159.098"/>
      <point x="96.0981" y="145.098" type="curve" smooth="yes"/>
      <point x="84.0981" y="136.098"/>
      <point x="72.0981" y="138.098"/>
      <point x="61.0981" y="146.098" type="curve" smooth="yes"/>
      <point x="58.0981" y="148.098"/>
      <point x="55.0981" y="156.098"/>
      <point x="56.0981" y="161.098" type="curve" smooth="yes"/>
      <point x="58.0981" y="169.098"/>
      <point x="61.0981" y="177.098"/>
      <point x="66.0981" y="185.098" type="curve" smooth="yes"/>
      <point x="79.0981" y="208.098"/>
      <point x="83.0981" y="234.098"/>
      <point x="83.0981" y="260.098" type="curve" smooth="yes"/>
      <point x="84.0981" y="294.098"/>
      <point x="84.0981" y="329.098"/>
      <point x="84.0981" y="375.098" type="curve" smooth="yes"/>
      <point x="84.0981" y="383.098"/>
      <point x="84.0981" y="384.098"/>
      <point x="92.0981" y="393.098" type="curve" smooth="yes"/>
      <point x="110.098" y="414.098"/>
      <point x="121.098" y="431.098"/>
      <point x="134.098" y="446.098" type="curve" smooth="yes"/>
      <point x="138.098" y="451.098"/>
      <point x="148.098" y="455.098"/>
      <point x="153.098" y="453.098" type="curve" smooth="yes"/>
      <point x="157.098" y="451.098"/>
      <point x="160.098" y="451.098"/>
      <point x="160.098" y="422.098" type="curve" smooth="yes"/>
      <point x="160.098" y="398.098"/>
      <point x="164.098" y="392.098"/>
      <point x="168.098" y="383.098" type="curve" smooth="yes"/>
      <point x="186.098" y="342.098"/>
      <point x="196.098" y="321.098"/>
      <point x="204.098" y="303.098" type="curve" smooth="yes"/>
      <point x="215.098" y="278.098"/>
      <point x="232.098" y="259.098"/>
      <point x="257.098" y="248.098" type="curve" smooth="yes"/>
      <point x="279.098" y="238.098"/>
      <point x="302.098" y="230.098"/>
      <point x="325.098" y="222.098" type="curve" smooth="yes"/>
      <point x="335.098" y="218.098"/>
      <point x="354.098" y="233.098"/>
      <point x="354.098" y="246.098" type="curve" smooth="yes"/>
      <point x="355.098" y="263.098"/>
      <point x="357.098" y="281.098"/>
      <point x="353.098" y="297.098" type="curve" smooth="yes"/>
      <point x="350.098" y="308.098"/>
      <point x="338.098" y="318.098"/>
      <point x="328.098" y="325.098" type="curve" smooth="yes"/>
      <point x="315.098" y="335.098"/>
      <point x="300.098" y="341.098"/>
      <point x="286.098" y="350.098" type="curve" smooth="yes"/>
      <point x="282.098" y="352.098"/>
      <point x="278.098" y="356.098"/>
      <point x="275.098" y="359.098" type="curve" smooth="yes"/>
      <point x="254.098" y="383.098"/>
      <point x="261.098" y="409.098"/>
      <point x="290.098" y="421.098" type="curve" smooth="yes"/>
      <point x="298.098" y="424.098"/>
      <point x="306.098" y="427.098"/>
      <point x="314.098" y="428.098" type="curve" smooth="yes"/>
      <point x="338.098" y="430.098"/>
      <point x="347.098" y="447.098"/>
      <point x="355.098" y="467.098" type="curve" smooth="yes"/>
      <point x="365.098" y="492.098"/>
      <point x="375.098" y="518.098"/>
      <point x="389.098" y="541.098" type="curve" smooth="yes"/>
      <point x="407.098" y="572.098"/>
      <point x="433.098" y="578.098"/>
      <point x="469.098" y="571.098" type="curve" smooth="yes"/>
      <point x="498.098" y="566.098"/>
      <point x="524.098" y="555.098"/>
      <point x="539.098" y="529.098" type="curve" smooth="yes"/>
      <point x="546.098" y="517.098"/>
      <point x="552.098" y="503.098"/>
      <point x="555.098" y="489.098" type="curve" smooth="yes"/>
      <point x="560.098" y="462.098"/>
      <point x="567.098" y="448.098"/>
      <point x="584.098" y="415.098" type="curve" smooth="yes"/>
      <point x="595.098" y="393.098"/>
      <point x="597.098" y="365.098"/>
      <point x="587.098" y="336.098" type="curve" smooth="yes"/>
      <point x="586.098" y="332.098"/>
      <point x="571.098" y="323.098"/>
      <point x="559.098" y="317.098" type="curve" smooth="yes"/>
      <point x="531.098" y="304.098"/>
      <point x="500.098" y="307.098"/>
      <point x="470.098" y="309.098" type="curve" smooth="yes"/>
      <point x="456.098" y="310.098"/>
      <point x="442.098" y="310.098"/>
      <point x="428.098" y="311.098" type="curve" smooth="yes"/>
      <point x="416.098" y="311.098"/>
      <point x="408.098" y="304.098"/>
      <point x="407.098" y="293.098" type="curve" smooth="yes"/>
      <point x="405.098" y="279.098"/>
      <point x="404.098" y="264.098"/>
      <point x="406.098" y="249.098" type="curve" smooth="yes"/>
      <point x="407.098" y="235.098"/>
      <point x="419.098" y="226.098"/>
      <point x="433.098" y="226.098" type="curve" smooth="yes"/>
      <point x="481.098" y="226.098"/>
      <point x="529.098" y="225.098"/>
      <point x="577.098" y="227.098" type="curve" smooth="yes"/>
      <point x="591.098" y="228.098"/>
      <point x="605.098" y="237.098"/>
      <point x="619.098" y="242.098" type="curve" smooth="yes"/>
      <point x="630.098" y="245.098"/>
      <point x="649.098" y="256.098"/>
      <point x="653.098" y="252.098" type="curve" smooth="yes"/>
    </contour>
    <contour>
      <point x="439.098" y="479.098" type="curve" smooth="yes"/>
      <point x="435.098" y="479.098"/>
      <point x="427.098" y="474.098"/>
      <point x="421.098" y="468.098" type="curve" smooth="yes"/>
      <point x="415.098" y="461.098"/>
      <point x="411.098" y="452.098"/>
      <point x="406.098" y="444.098" type="curve" smooth="yes"/>
      <point x="391.098" y="419.098"/>
      <point x="393.098" y="413.098"/>
      <point x="419.098" y="399.098" type="curve" smooth="yes"/>
      <point x="421.098" y="398.098"/>
      <point x="425.098" y="396.098"/>
      <point x="428.098" y="395.098" type="curve" smooth="yes"/>
      <point x="461.098" y="385.098"/>
      <point x="494.098" y="376.098"/>
      <point x="527.098" y="366.098" type="curve" smooth="yes"/>
      <point x="531.098" y="365.098"/>
      <point x="536.098" y="365.098"/>
      <point x="539.098" y="369.098" type="curve" smooth="yes"/>
      <point x="559.098" y="391.098"/>
      <point x="554.098" y="410.098"/>
      <point x="537.098" y="435.098" type="curve" smooth="yes"/>
      <point x="518.098" y="464.098"/>
      <point x="488.098" y="475.098"/>
    </contour>
  </outline>
</glyph>
<glyph name="H.vrt2" format="2">
  <advance width="740"/>
  <outline>
    <contour>
      <point x="311.638" y="-75.0507" type="curve" smooth="yes"/>
      <point x="229.869" y="-55.9412"/>
      <point x="151.341" y="-27.9169"/>
      <point x="90.3015" y="33.7196" type="curve" smooth="yes"/>
      <point x="79.3392" y="44.7672"/>
      <point x="72.0879" y="59.7818"/>
      <point x="64.41" y="73.6446" type="curve" smooth="yes"/>
      <point x="57.0733" y="86.7824"/>
      <point x="62.0639" y="100.475"/>
      <point x="70.7229" y="109.859" type="curve" smooth="yes"/>
      <point x="82.5383" y="122.655"/>
      <point x="97.169" y="132.978"/>
      <point x="111.33" y="143.471" type="curve" smooth="yes"/>
      <point x="120.16" y="149.997"/>
      <point x="130.568" y="154.348"/>
      <point x="139.653" y="160.533" type="curve" smooth="yes"/>
      <point x="164.862" y="177.68"/>
      <point x="188.323" y="176.23"/>
      <point x="212.167" y="157.675" type="curve" smooth="yes"/>
      <point x="235.073" y="139.845"/>
      <point x="257.381" y="119.925"/>
      <point x="283.187" y="107.641" type="curve" smooth="yes"/>
      <point x="308.311" y="95.6546"/>
      <point x="337.189" y="89.5549"/>
      <point x="365.085" y="85.716" type="curve" smooth="yes"/>
      <point x="391.275" y="82.133"/>
      <point x="418.404" y="84.0525"/>
      <point x="445.063" y="85.2042" type="curve" smooth="yes"/>
      <point x="458.329" y="85.7587"/>
      <point x="471.936" y="88.7872"/>
      <point x="484.604" y="93.01" type="curve" smooth="yes"/>
      <point x="505.847" y="100.091"/>
      <point x="511.221" y="118.902"/>
      <point x="495.695" y="134.983" type="curve" smooth="yes"/>
      <point x="479.699" y="151.575"/>
      <point x="462.594" y="167.742"/>
      <point x="443.485" y="180.367" type="curve" smooth="yes"/>
      <point x="404.712" y="206.088"/>
      <point x="399.38" y="232.833"/>
      <point x="420.366" y="275.36" type="curve" smooth="yes"/>
      <point x="438.366" y="311.873"/>
      <point x="470.443" y="333.542"/>
      <point x="500.813" y="357.386" type="curve" smooth="yes"/>
      <point x="520.136" y="372.614"/>
      <point x="538.904" y="388.567"/>
      <point x="557.587" y="404.562" type="curve" smooth="yes"/>
      <point x="584.886" y="427.937"/>
      <point x="585.057" y="458.649"/>
      <point x="576.568" y="489.232" type="curve" smooth="yes"/>
      <point x="564.028" y="534.575"/>
      <point x="548.459" y="579.064"/>
      <point x="534.98" y="624.107" type="curve" smooth="yes"/>
      <point x="533.188" y="629.994"/>
      <point x="533.7" y="640.359"/>
      <point x="537.369" y="643.174" type="curve" smooth="yes"/>
      <point x="542.103" y="646.8"/>
      <point x="551.957" y="647.354"/>
      <point x="558.056" y="645.051" type="curve" smooth="yes"/>
      <point x="592.948" y="631.7"/>
      <point x="617.731" y="606.79"/>
      <point x="634.921" y="574.116" type="curve" smooth="yes"/>
      <point x="658.168" y="530.053"/>
      <point x="660.94" y="482.365"/>
      <point x="655.907" y="434.549" type="curve" smooth="yes"/>
      <point x="652.665" y="403.709"/>
      <point x="634.921" y="377.519"/>
      <point x="612.313" y="357.3" type="curve" smooth="yes"/>
      <point x="587.744" y="335.29"/>
      <point x="558.227" y="318.868"/>
      <point x="534.042" y="296.56" type="curve" smooth="yes"/>
      <point x="518.259" y="282.014"/>
      <point x="495.055" y="253.905"/>
      <point x="495.993" y="243.07" type="curve" smooth="yes"/>
      <point x="496.292" y="239.914"/>
      <point x="497.913" y="232.577"/>
      <point x="501.069" y="228.823" type="curve" smooth="yes"/>
      <point x="521.202" y="205.022"/>
      <point x="548.374" y="191.799"/>
      <point x="576.953" y="181.647" type="curve" smooth="yes"/>
      <point x="609.626" y="170.088"/>
      <point x="631.21" y="141.125"/>
      <point x="636.2" y="107.129" type="curve" smooth="yes"/>
      <point x="646.821" y="34.7005"/>
      <point x="604.678" y="-8.63693"/>
      <point x="552.042" y="-43.614" type="curve" smooth="yes"/>
      <point x="526.364" y="-60.6334"/>
      <point x="495.055" y="-70.7853"/>
      <point x="464.898" y="-79.0603" type="curve" smooth="yes"/>
      <point x="423.352" y="-90.4492"/>
      <point x="348.492" y="-83.6671"/>
    </contour>
    <contour>
      <point x="191.565" y="366.557" type="curve"/>
      <point x="195.659" y="402.301"/>
      <point x="208.84" y="439.283"/>
      <point x="254.267" y="454.426" type="curve" smooth="yes"/>
      <point x="275.936" y="461.677"/>
      <point x="297.364" y="468.836"/>
      <point x="308.713" y="471.922" type="curve" smooth="yes"/>
      <point x="315.191" y="473.683"/>
      <point x="323.795" y="474.815"/>
      <point x="325.8" y="474.943" type="curve" smooth="yes"/>
      <point x="353.952" y="476.606"/>
      <point x="365.426" y="461.89"/>
      <point x="354.763" y="435.785" type="curve" smooth="yes"/>
      <point x="339.209" y="397.881"/>
      <point x="307.587" y="353.981"/>
      <point x="281.012" y="323.432" type="curve" smooth="yes"/>
      <point x="272.012" y="313.11"/>
      <point x="258.405" y="303.555"/>
      <point x="245.352" y="300.825" type="curve" smooth="yes"/>
      <point x="216.646" y="294.853"/>
      <point x="191.138" y="324.371"/>
    </contour>
  </outline>
  <guideline angle="0" x="0" y="604"/>
</glyph>
